%TF.GenerationSoftware,KiCad,Pcbnew,7.0.2*%
%TF.CreationDate,2023-08-22T20:11:55+05:30*%
%TF.ProjectId,Power_Supply_12V,506f7765-725f-4537-9570-706c795f3132,rev?*%
%TF.SameCoordinates,Original*%
%TF.FileFunction,Legend,Top*%
%TF.FilePolarity,Positive*%
%FSLAX46Y46*%
G04 Gerber Fmt 4.6, Leading zero omitted, Abs format (unit mm)*
G04 Created by KiCad (PCBNEW 7.0.2) date 2023-08-22 20:11:55*
%MOMM*%
%LPD*%
G01*
G04 APERTURE LIST*
%ADD10C,0.150000*%
%ADD11C,0.120000*%
G04 APERTURE END LIST*
D10*
%TO.C,J1*%
X107881419Y-78158933D02*
X108595704Y-78158933D01*
X108595704Y-78158933D02*
X108738561Y-78206552D01*
X108738561Y-78206552D02*
X108833800Y-78301790D01*
X108833800Y-78301790D02*
X108881419Y-78444647D01*
X108881419Y-78444647D02*
X108881419Y-78539885D01*
X108881419Y-77158933D02*
X108881419Y-77730361D01*
X108881419Y-77444647D02*
X107881419Y-77444647D01*
X107881419Y-77444647D02*
X108024276Y-77539885D01*
X108024276Y-77539885D02*
X108119514Y-77635123D01*
X108119514Y-77635123D02*
X108167133Y-77730361D01*
%TO.C,U2*%
X140106495Y-91565819D02*
X140106495Y-92375342D01*
X140106495Y-92375342D02*
X140154114Y-92470580D01*
X140154114Y-92470580D02*
X140201733Y-92518200D01*
X140201733Y-92518200D02*
X140296971Y-92565819D01*
X140296971Y-92565819D02*
X140487447Y-92565819D01*
X140487447Y-92565819D02*
X140582685Y-92518200D01*
X140582685Y-92518200D02*
X140630304Y-92470580D01*
X140630304Y-92470580D02*
X140677923Y-92375342D01*
X140677923Y-92375342D02*
X140677923Y-91565819D01*
X141106495Y-91661057D02*
X141154114Y-91613438D01*
X141154114Y-91613438D02*
X141249352Y-91565819D01*
X141249352Y-91565819D02*
X141487447Y-91565819D01*
X141487447Y-91565819D02*
X141582685Y-91613438D01*
X141582685Y-91613438D02*
X141630304Y-91661057D01*
X141630304Y-91661057D02*
X141677923Y-91756295D01*
X141677923Y-91756295D02*
X141677923Y-91851533D01*
X141677923Y-91851533D02*
X141630304Y-91994390D01*
X141630304Y-91994390D02*
X141058876Y-92565819D01*
X141058876Y-92565819D02*
X141677923Y-92565819D01*
%TO.C,D5*%
X162533105Y-66401019D02*
X162533105Y-65401019D01*
X162533105Y-65401019D02*
X162771200Y-65401019D01*
X162771200Y-65401019D02*
X162914057Y-65448638D01*
X162914057Y-65448638D02*
X163009295Y-65543876D01*
X163009295Y-65543876D02*
X163056914Y-65639114D01*
X163056914Y-65639114D02*
X163104533Y-65829590D01*
X163104533Y-65829590D02*
X163104533Y-65972447D01*
X163104533Y-65972447D02*
X163056914Y-66162923D01*
X163056914Y-66162923D02*
X163009295Y-66258161D01*
X163009295Y-66258161D02*
X162914057Y-66353400D01*
X162914057Y-66353400D02*
X162771200Y-66401019D01*
X162771200Y-66401019D02*
X162533105Y-66401019D01*
X164009295Y-65401019D02*
X163533105Y-65401019D01*
X163533105Y-65401019D02*
X163485486Y-65877209D01*
X163485486Y-65877209D02*
X163533105Y-65829590D01*
X163533105Y-65829590D02*
X163628343Y-65781971D01*
X163628343Y-65781971D02*
X163866438Y-65781971D01*
X163866438Y-65781971D02*
X163961676Y-65829590D01*
X163961676Y-65829590D02*
X164009295Y-65877209D01*
X164009295Y-65877209D02*
X164056914Y-65972447D01*
X164056914Y-65972447D02*
X164056914Y-66210542D01*
X164056914Y-66210542D02*
X164009295Y-66305780D01*
X164009295Y-66305780D02*
X163961676Y-66353400D01*
X163961676Y-66353400D02*
X163866438Y-66401019D01*
X163866438Y-66401019D02*
X163628343Y-66401019D01*
X163628343Y-66401019D02*
X163533105Y-66353400D01*
X163533105Y-66353400D02*
X163485486Y-66305780D01*
%TO.C,D3*%
X115136705Y-81234619D02*
X115136705Y-80234619D01*
X115136705Y-80234619D02*
X115374800Y-80234619D01*
X115374800Y-80234619D02*
X115517657Y-80282238D01*
X115517657Y-80282238D02*
X115612895Y-80377476D01*
X115612895Y-80377476D02*
X115660514Y-80472714D01*
X115660514Y-80472714D02*
X115708133Y-80663190D01*
X115708133Y-80663190D02*
X115708133Y-80806047D01*
X115708133Y-80806047D02*
X115660514Y-80996523D01*
X115660514Y-80996523D02*
X115612895Y-81091761D01*
X115612895Y-81091761D02*
X115517657Y-81187000D01*
X115517657Y-81187000D02*
X115374800Y-81234619D01*
X115374800Y-81234619D02*
X115136705Y-81234619D01*
X116041467Y-80234619D02*
X116660514Y-80234619D01*
X116660514Y-80234619D02*
X116327181Y-80615571D01*
X116327181Y-80615571D02*
X116470038Y-80615571D01*
X116470038Y-80615571D02*
X116565276Y-80663190D01*
X116565276Y-80663190D02*
X116612895Y-80710809D01*
X116612895Y-80710809D02*
X116660514Y-80806047D01*
X116660514Y-80806047D02*
X116660514Y-81044142D01*
X116660514Y-81044142D02*
X116612895Y-81139380D01*
X116612895Y-81139380D02*
X116565276Y-81187000D01*
X116565276Y-81187000D02*
X116470038Y-81234619D01*
X116470038Y-81234619D02*
X116184324Y-81234619D01*
X116184324Y-81234619D02*
X116089086Y-81187000D01*
X116089086Y-81187000D02*
X116041467Y-81139380D01*
X110532895Y-81604619D02*
X110532895Y-80604619D01*
X111104323Y-81604619D02*
X110675752Y-81033190D01*
X111104323Y-80604619D02*
X110532895Y-81176047D01*
%TO.C,C2*%
X123836133Y-89927780D02*
X123788514Y-89975400D01*
X123788514Y-89975400D02*
X123645657Y-90023019D01*
X123645657Y-90023019D02*
X123550419Y-90023019D01*
X123550419Y-90023019D02*
X123407562Y-89975400D01*
X123407562Y-89975400D02*
X123312324Y-89880161D01*
X123312324Y-89880161D02*
X123264705Y-89784923D01*
X123264705Y-89784923D02*
X123217086Y-89594447D01*
X123217086Y-89594447D02*
X123217086Y-89451590D01*
X123217086Y-89451590D02*
X123264705Y-89261114D01*
X123264705Y-89261114D02*
X123312324Y-89165876D01*
X123312324Y-89165876D02*
X123407562Y-89070638D01*
X123407562Y-89070638D02*
X123550419Y-89023019D01*
X123550419Y-89023019D02*
X123645657Y-89023019D01*
X123645657Y-89023019D02*
X123788514Y-89070638D01*
X123788514Y-89070638D02*
X123836133Y-89118257D01*
X124217086Y-89118257D02*
X124264705Y-89070638D01*
X124264705Y-89070638D02*
X124359943Y-89023019D01*
X124359943Y-89023019D02*
X124598038Y-89023019D01*
X124598038Y-89023019D02*
X124693276Y-89070638D01*
X124693276Y-89070638D02*
X124740895Y-89118257D01*
X124740895Y-89118257D02*
X124788514Y-89213495D01*
X124788514Y-89213495D02*
X124788514Y-89308733D01*
X124788514Y-89308733D02*
X124740895Y-89451590D01*
X124740895Y-89451590D02*
X124169467Y-90023019D01*
X124169467Y-90023019D02*
X124788514Y-90023019D01*
%TO.C,D2*%
X115035105Y-76357819D02*
X115035105Y-75357819D01*
X115035105Y-75357819D02*
X115273200Y-75357819D01*
X115273200Y-75357819D02*
X115416057Y-75405438D01*
X115416057Y-75405438D02*
X115511295Y-75500676D01*
X115511295Y-75500676D02*
X115558914Y-75595914D01*
X115558914Y-75595914D02*
X115606533Y-75786390D01*
X115606533Y-75786390D02*
X115606533Y-75929247D01*
X115606533Y-75929247D02*
X115558914Y-76119723D01*
X115558914Y-76119723D02*
X115511295Y-76214961D01*
X115511295Y-76214961D02*
X115416057Y-76310200D01*
X115416057Y-76310200D02*
X115273200Y-76357819D01*
X115273200Y-76357819D02*
X115035105Y-76357819D01*
X115987486Y-75453057D02*
X116035105Y-75405438D01*
X116035105Y-75405438D02*
X116130343Y-75357819D01*
X116130343Y-75357819D02*
X116368438Y-75357819D01*
X116368438Y-75357819D02*
X116463676Y-75405438D01*
X116463676Y-75405438D02*
X116511295Y-75453057D01*
X116511295Y-75453057D02*
X116558914Y-75548295D01*
X116558914Y-75548295D02*
X116558914Y-75643533D01*
X116558914Y-75643533D02*
X116511295Y-75786390D01*
X116511295Y-75786390D02*
X115939867Y-76357819D01*
X115939867Y-76357819D02*
X116558914Y-76357819D01*
X110431295Y-76727819D02*
X110431295Y-75727819D01*
X111002723Y-76727819D02*
X110574152Y-76156390D01*
X111002723Y-75727819D02*
X110431295Y-76299247D01*
%TO.C,C3*%
X151877733Y-66559780D02*
X151830114Y-66607400D01*
X151830114Y-66607400D02*
X151687257Y-66655019D01*
X151687257Y-66655019D02*
X151592019Y-66655019D01*
X151592019Y-66655019D02*
X151449162Y-66607400D01*
X151449162Y-66607400D02*
X151353924Y-66512161D01*
X151353924Y-66512161D02*
X151306305Y-66416923D01*
X151306305Y-66416923D02*
X151258686Y-66226447D01*
X151258686Y-66226447D02*
X151258686Y-66083590D01*
X151258686Y-66083590D02*
X151306305Y-65893114D01*
X151306305Y-65893114D02*
X151353924Y-65797876D01*
X151353924Y-65797876D02*
X151449162Y-65702638D01*
X151449162Y-65702638D02*
X151592019Y-65655019D01*
X151592019Y-65655019D02*
X151687257Y-65655019D01*
X151687257Y-65655019D02*
X151830114Y-65702638D01*
X151830114Y-65702638D02*
X151877733Y-65750257D01*
X152211067Y-65655019D02*
X152830114Y-65655019D01*
X152830114Y-65655019D02*
X152496781Y-66035971D01*
X152496781Y-66035971D02*
X152639638Y-66035971D01*
X152639638Y-66035971D02*
X152734876Y-66083590D01*
X152734876Y-66083590D02*
X152782495Y-66131209D01*
X152782495Y-66131209D02*
X152830114Y-66226447D01*
X152830114Y-66226447D02*
X152830114Y-66464542D01*
X152830114Y-66464542D02*
X152782495Y-66559780D01*
X152782495Y-66559780D02*
X152734876Y-66607400D01*
X152734876Y-66607400D02*
X152639638Y-66655019D01*
X152639638Y-66655019D02*
X152353924Y-66655019D01*
X152353924Y-66655019D02*
X152258686Y-66607400D01*
X152258686Y-66607400D02*
X152211067Y-66559780D01*
%TO.C,D6*%
X163345905Y-90835819D02*
X163345905Y-89835819D01*
X163345905Y-89835819D02*
X163584000Y-89835819D01*
X163584000Y-89835819D02*
X163726857Y-89883438D01*
X163726857Y-89883438D02*
X163822095Y-89978676D01*
X163822095Y-89978676D02*
X163869714Y-90073914D01*
X163869714Y-90073914D02*
X163917333Y-90264390D01*
X163917333Y-90264390D02*
X163917333Y-90407247D01*
X163917333Y-90407247D02*
X163869714Y-90597723D01*
X163869714Y-90597723D02*
X163822095Y-90692961D01*
X163822095Y-90692961D02*
X163726857Y-90788200D01*
X163726857Y-90788200D02*
X163584000Y-90835819D01*
X163584000Y-90835819D02*
X163345905Y-90835819D01*
X164774476Y-89835819D02*
X164584000Y-89835819D01*
X164584000Y-89835819D02*
X164488762Y-89883438D01*
X164488762Y-89883438D02*
X164441143Y-89931057D01*
X164441143Y-89931057D02*
X164345905Y-90073914D01*
X164345905Y-90073914D02*
X164298286Y-90264390D01*
X164298286Y-90264390D02*
X164298286Y-90645342D01*
X164298286Y-90645342D02*
X164345905Y-90740580D01*
X164345905Y-90740580D02*
X164393524Y-90788200D01*
X164393524Y-90788200D02*
X164488762Y-90835819D01*
X164488762Y-90835819D02*
X164679238Y-90835819D01*
X164679238Y-90835819D02*
X164774476Y-90788200D01*
X164774476Y-90788200D02*
X164822095Y-90740580D01*
X164822095Y-90740580D02*
X164869714Y-90645342D01*
X164869714Y-90645342D02*
X164869714Y-90407247D01*
X164869714Y-90407247D02*
X164822095Y-90312009D01*
X164822095Y-90312009D02*
X164774476Y-90264390D01*
X164774476Y-90264390D02*
X164679238Y-90216771D01*
X164679238Y-90216771D02*
X164488762Y-90216771D01*
X164488762Y-90216771D02*
X164393524Y-90264390D01*
X164393524Y-90264390D02*
X164345905Y-90312009D01*
X164345905Y-90312009D02*
X164298286Y-90407247D01*
%TO.C,D1*%
X115035105Y-71277819D02*
X115035105Y-70277819D01*
X115035105Y-70277819D02*
X115273200Y-70277819D01*
X115273200Y-70277819D02*
X115416057Y-70325438D01*
X115416057Y-70325438D02*
X115511295Y-70420676D01*
X115511295Y-70420676D02*
X115558914Y-70515914D01*
X115558914Y-70515914D02*
X115606533Y-70706390D01*
X115606533Y-70706390D02*
X115606533Y-70849247D01*
X115606533Y-70849247D02*
X115558914Y-71039723D01*
X115558914Y-71039723D02*
X115511295Y-71134961D01*
X115511295Y-71134961D02*
X115416057Y-71230200D01*
X115416057Y-71230200D02*
X115273200Y-71277819D01*
X115273200Y-71277819D02*
X115035105Y-71277819D01*
X116558914Y-71277819D02*
X115987486Y-71277819D01*
X116273200Y-71277819D02*
X116273200Y-70277819D01*
X116273200Y-70277819D02*
X116177962Y-70420676D01*
X116177962Y-70420676D02*
X116082724Y-70515914D01*
X116082724Y-70515914D02*
X115987486Y-70563533D01*
X110431295Y-71647819D02*
X110431295Y-70647819D01*
X111002723Y-71647819D02*
X110574152Y-71076390D01*
X111002723Y-70647819D02*
X110431295Y-71219247D01*
%TO.C,C4*%
X154773333Y-79970980D02*
X154725714Y-80018600D01*
X154725714Y-80018600D02*
X154582857Y-80066219D01*
X154582857Y-80066219D02*
X154487619Y-80066219D01*
X154487619Y-80066219D02*
X154344762Y-80018600D01*
X154344762Y-80018600D02*
X154249524Y-79923361D01*
X154249524Y-79923361D02*
X154201905Y-79828123D01*
X154201905Y-79828123D02*
X154154286Y-79637647D01*
X154154286Y-79637647D02*
X154154286Y-79494790D01*
X154154286Y-79494790D02*
X154201905Y-79304314D01*
X154201905Y-79304314D02*
X154249524Y-79209076D01*
X154249524Y-79209076D02*
X154344762Y-79113838D01*
X154344762Y-79113838D02*
X154487619Y-79066219D01*
X154487619Y-79066219D02*
X154582857Y-79066219D01*
X154582857Y-79066219D02*
X154725714Y-79113838D01*
X154725714Y-79113838D02*
X154773333Y-79161457D01*
X155630476Y-79399552D02*
X155630476Y-80066219D01*
X155392381Y-79018600D02*
X155154286Y-79732885D01*
X155154286Y-79732885D02*
X155773333Y-79732885D01*
%TO.C,J2*%
X158302619Y-78920933D02*
X159016904Y-78920933D01*
X159016904Y-78920933D02*
X159159761Y-78968552D01*
X159159761Y-78968552D02*
X159255000Y-79063790D01*
X159255000Y-79063790D02*
X159302619Y-79206647D01*
X159302619Y-79206647D02*
X159302619Y-79301885D01*
X158397857Y-78492361D02*
X158350238Y-78444742D01*
X158350238Y-78444742D02*
X158302619Y-78349504D01*
X158302619Y-78349504D02*
X158302619Y-78111409D01*
X158302619Y-78111409D02*
X158350238Y-78016171D01*
X158350238Y-78016171D02*
X158397857Y-77968552D01*
X158397857Y-77968552D02*
X158493095Y-77920933D01*
X158493095Y-77920933D02*
X158588333Y-77920933D01*
X158588333Y-77920933D02*
X158731190Y-77968552D01*
X158731190Y-77968552D02*
X159302619Y-78539980D01*
X159302619Y-78539980D02*
X159302619Y-77920933D01*
%TO.C,C1*%
X128896056Y-66608980D02*
X128848437Y-66656600D01*
X128848437Y-66656600D02*
X128705580Y-66704219D01*
X128705580Y-66704219D02*
X128610342Y-66704219D01*
X128610342Y-66704219D02*
X128467485Y-66656600D01*
X128467485Y-66656600D02*
X128372247Y-66561361D01*
X128372247Y-66561361D02*
X128324628Y-66466123D01*
X128324628Y-66466123D02*
X128277009Y-66275647D01*
X128277009Y-66275647D02*
X128277009Y-66132790D01*
X128277009Y-66132790D02*
X128324628Y-65942314D01*
X128324628Y-65942314D02*
X128372247Y-65847076D01*
X128372247Y-65847076D02*
X128467485Y-65751838D01*
X128467485Y-65751838D02*
X128610342Y-65704219D01*
X128610342Y-65704219D02*
X128705580Y-65704219D01*
X128705580Y-65704219D02*
X128848437Y-65751838D01*
X128848437Y-65751838D02*
X128896056Y-65799457D01*
X129848437Y-66704219D02*
X129277009Y-66704219D01*
X129562723Y-66704219D02*
X129562723Y-65704219D01*
X129562723Y-65704219D02*
X129467485Y-65847076D01*
X129467485Y-65847076D02*
X129372247Y-65942314D01*
X129372247Y-65942314D02*
X129277009Y-65989933D01*
%TO.C,U1*%
X139801695Y-64585419D02*
X139801695Y-65394942D01*
X139801695Y-65394942D02*
X139849314Y-65490180D01*
X139849314Y-65490180D02*
X139896933Y-65537800D01*
X139896933Y-65537800D02*
X139992171Y-65585419D01*
X139992171Y-65585419D02*
X140182647Y-65585419D01*
X140182647Y-65585419D02*
X140277885Y-65537800D01*
X140277885Y-65537800D02*
X140325504Y-65490180D01*
X140325504Y-65490180D02*
X140373123Y-65394942D01*
X140373123Y-65394942D02*
X140373123Y-64585419D01*
X141373123Y-65585419D02*
X140801695Y-65585419D01*
X141087409Y-65585419D02*
X141087409Y-64585419D01*
X141087409Y-64585419D02*
X140992171Y-64728276D01*
X140992171Y-64728276D02*
X140896933Y-64823514D01*
X140896933Y-64823514D02*
X140801695Y-64871133D01*
%TO.C,R2*%
X158024533Y-90480219D02*
X157691200Y-90004028D01*
X157453105Y-90480219D02*
X157453105Y-89480219D01*
X157453105Y-89480219D02*
X157834057Y-89480219D01*
X157834057Y-89480219D02*
X157929295Y-89527838D01*
X157929295Y-89527838D02*
X157976914Y-89575457D01*
X157976914Y-89575457D02*
X158024533Y-89670695D01*
X158024533Y-89670695D02*
X158024533Y-89813552D01*
X158024533Y-89813552D02*
X157976914Y-89908790D01*
X157976914Y-89908790D02*
X157929295Y-89956409D01*
X157929295Y-89956409D02*
X157834057Y-90004028D01*
X157834057Y-90004028D02*
X157453105Y-90004028D01*
X158405486Y-89575457D02*
X158453105Y-89527838D01*
X158453105Y-89527838D02*
X158548343Y-89480219D01*
X158548343Y-89480219D02*
X158786438Y-89480219D01*
X158786438Y-89480219D02*
X158881676Y-89527838D01*
X158881676Y-89527838D02*
X158929295Y-89575457D01*
X158929295Y-89575457D02*
X158976914Y-89670695D01*
X158976914Y-89670695D02*
X158976914Y-89765933D01*
X158976914Y-89765933D02*
X158929295Y-89908790D01*
X158929295Y-89908790D02*
X158357867Y-90480219D01*
X158357867Y-90480219D02*
X158976914Y-90480219D01*
%TO.C,D4*%
X115187505Y-85908219D02*
X115187505Y-84908219D01*
X115187505Y-84908219D02*
X115425600Y-84908219D01*
X115425600Y-84908219D02*
X115568457Y-84955838D01*
X115568457Y-84955838D02*
X115663695Y-85051076D01*
X115663695Y-85051076D02*
X115711314Y-85146314D01*
X115711314Y-85146314D02*
X115758933Y-85336790D01*
X115758933Y-85336790D02*
X115758933Y-85479647D01*
X115758933Y-85479647D02*
X115711314Y-85670123D01*
X115711314Y-85670123D02*
X115663695Y-85765361D01*
X115663695Y-85765361D02*
X115568457Y-85860600D01*
X115568457Y-85860600D02*
X115425600Y-85908219D01*
X115425600Y-85908219D02*
X115187505Y-85908219D01*
X116616076Y-85241552D02*
X116616076Y-85908219D01*
X116377981Y-84860600D02*
X116139886Y-85574885D01*
X116139886Y-85574885D02*
X116758933Y-85574885D01*
X110583695Y-86278219D02*
X110583695Y-85278219D01*
X111155123Y-86278219D02*
X110726552Y-85706790D01*
X111155123Y-85278219D02*
X110583695Y-85849647D01*
%TO.C,R1*%
X158176933Y-66909019D02*
X157843600Y-66432828D01*
X157605505Y-66909019D02*
X157605505Y-65909019D01*
X157605505Y-65909019D02*
X157986457Y-65909019D01*
X157986457Y-65909019D02*
X158081695Y-65956638D01*
X158081695Y-65956638D02*
X158129314Y-66004257D01*
X158129314Y-66004257D02*
X158176933Y-66099495D01*
X158176933Y-66099495D02*
X158176933Y-66242352D01*
X158176933Y-66242352D02*
X158129314Y-66337590D01*
X158129314Y-66337590D02*
X158081695Y-66385209D01*
X158081695Y-66385209D02*
X157986457Y-66432828D01*
X157986457Y-66432828D02*
X157605505Y-66432828D01*
X159129314Y-66909019D02*
X158557886Y-66909019D01*
X158843600Y-66909019D02*
X158843600Y-65909019D01*
X158843600Y-65909019D02*
X158748362Y-66051876D01*
X158748362Y-66051876D02*
X158653124Y-66147114D01*
X158653124Y-66147114D02*
X158557886Y-66194733D01*
D11*
%TO.C,J1*%
X97998800Y-69905600D02*
X97258800Y-69905600D01*
X97258800Y-69905600D02*
X97258800Y-70405600D01*
X107419800Y-70145600D02*
X97498800Y-70145600D01*
X107419800Y-70145600D02*
X107419800Y-85505600D01*
X104459800Y-70145600D02*
X104459800Y-85505600D01*
X99558800Y-70145600D02*
X99558800Y-85505600D01*
X98058800Y-70145600D02*
X98058800Y-85505600D01*
X97498800Y-70145600D02*
X97498800Y-85505600D01*
X101135800Y-76598600D02*
X101089800Y-76551600D01*
X100919800Y-76791600D02*
X100884800Y-76756600D01*
X103433800Y-78895600D02*
X103397800Y-78860600D01*
X103227800Y-79100600D02*
X103181800Y-79053600D01*
X101135800Y-81678600D02*
X101089800Y-81631600D01*
X100919800Y-81871600D02*
X100884800Y-81836600D01*
X103433800Y-83975600D02*
X103397800Y-83940600D01*
X103227800Y-84180600D02*
X103181800Y-84133600D01*
X107419800Y-85505600D02*
X97498800Y-85505600D01*
X102842799Y-71210601D02*
G75*
G03*
X101475758Y-71210174I-684000J-1534992D01*
G01*
X103693799Y-73429599D02*
G75*
G03*
X103694226Y-72062558I-1534992J684000D01*
G01*
X100623801Y-72061600D02*
G75*
G03*
X100478548Y-72774405I1535000J-683999D01*
G01*
X100478801Y-72745600D02*
G75*
G03*
X100624045Y-73428918I1679999J0D01*
G01*
X101474800Y-74280600D02*
G75*
G03*
X102841842Y-74281026I684000J1535000D01*
G01*
X103838800Y-77825600D02*
G75*
G03*
X103838800Y-77825600I-1680000J0D01*
G01*
X103838800Y-82905600D02*
G75*
G03*
X103838800Y-82905600I-1680000J0D01*
G01*
%TO.C,U2*%
X145988400Y-91103200D02*
X145988400Y-86462200D01*
X145988400Y-91103200D02*
X135748400Y-91103200D01*
X145988400Y-89593200D02*
X135748400Y-89593200D01*
X145988400Y-86462200D02*
X135748400Y-86462200D01*
X142718400Y-91103200D02*
X142718400Y-89593200D01*
X139017400Y-91103200D02*
X139017400Y-89593200D01*
X135748400Y-91103200D02*
X135748400Y-86462200D01*
%TO.C,D5*%
X165826000Y-66429600D02*
X165826000Y-66585600D01*
X165826000Y-68745600D02*
X165826000Y-68901600D01*
X169058334Y-66586992D02*
G75*
G03*
X165826001Y-66430085I-1672334J-1078608D01*
G01*
X168427129Y-66585764D02*
G75*
G03*
X166345040Y-66585601I-1041129J-1079836D01*
G01*
X166345040Y-68745599D02*
G75*
G03*
X168427129Y-68745436I1040960J1079999D01*
G01*
X165826001Y-68901115D02*
G75*
G03*
X169058334Y-68744208I1559999J1235515D01*
G01*
%TO.C,D3*%
X112084000Y-80975200D02*
X113104000Y-80975200D01*
X113104000Y-79505200D02*
X113104000Y-82445200D01*
X113104000Y-82445200D02*
X118544000Y-82445200D01*
X113884000Y-79505200D02*
X113884000Y-82445200D01*
X114004000Y-79505200D02*
X114004000Y-82445200D01*
X114124000Y-79505200D02*
X114124000Y-82445200D01*
X118544000Y-79505200D02*
X113104000Y-79505200D01*
X118544000Y-82445200D02*
X118544000Y-79505200D01*
X119564000Y-80975200D02*
X118544000Y-80975200D01*
%TO.C,C2*%
X134531723Y-87965000D02*
X133531723Y-87965000D01*
X134031723Y-88465000D02*
X134031723Y-87465000D01*
X129052077Y-90170000D02*
X129052077Y-80010000D01*
X129012077Y-90170000D02*
X129012077Y-80010000D01*
X128972077Y-90170000D02*
X128972077Y-80010000D01*
X128932077Y-90169000D02*
X128932077Y-80011000D01*
X128892077Y-90168000D02*
X128892077Y-80012000D01*
X128852077Y-90167000D02*
X128852077Y-80013000D01*
X128812077Y-90165000D02*
X128812077Y-80015000D01*
X128772077Y-90163000D02*
X128772077Y-80017000D01*
X128732077Y-90160000D02*
X128732077Y-80020000D01*
X128692077Y-90158000D02*
X128692077Y-80022000D01*
X128652077Y-90155000D02*
X128652077Y-80025000D01*
X128612077Y-90152000D02*
X128612077Y-80028000D01*
X128572077Y-90148000D02*
X128572077Y-80032000D01*
X128532077Y-90144000D02*
X128532077Y-80036000D01*
X128492077Y-90140000D02*
X128492077Y-80040000D01*
X128452077Y-90135000D02*
X128452077Y-80045000D01*
X128412077Y-90130000D02*
X128412077Y-80050000D01*
X128372077Y-90125000D02*
X128372077Y-80055000D01*
X128331077Y-90120000D02*
X128331077Y-80060000D01*
X128291077Y-90114000D02*
X128291077Y-80066000D01*
X128251077Y-90108000D02*
X128251077Y-80072000D01*
X128211077Y-90101000D02*
X128211077Y-80079000D01*
X128171077Y-90094000D02*
X128171077Y-80086000D01*
X128131077Y-90087000D02*
X128131077Y-80093000D01*
X128091077Y-90080000D02*
X128091077Y-80100000D01*
X128051077Y-90072000D02*
X128051077Y-80108000D01*
X128011077Y-90064000D02*
X128011077Y-80116000D01*
X127971077Y-90055000D02*
X127971077Y-80125000D01*
X127931077Y-90046000D02*
X127931077Y-80134000D01*
X127891077Y-90037000D02*
X127891077Y-80143000D01*
X127851077Y-90028000D02*
X127851077Y-80152000D01*
X127811077Y-90018000D02*
X127811077Y-80162000D01*
X127771077Y-90008000D02*
X127771077Y-86331000D01*
X127771077Y-83849000D02*
X127771077Y-80172000D01*
X127731077Y-89997000D02*
X127731077Y-86331000D01*
X127731077Y-83849000D02*
X127731077Y-80183000D01*
X127691077Y-89987000D02*
X127691077Y-86331000D01*
X127691077Y-83849000D02*
X127691077Y-80193000D01*
X127651077Y-89975000D02*
X127651077Y-86331000D01*
X127651077Y-83849000D02*
X127651077Y-80205000D01*
X127611077Y-89964000D02*
X127611077Y-86331000D01*
X127611077Y-83849000D02*
X127611077Y-80216000D01*
X127571077Y-89952000D02*
X127571077Y-86331000D01*
X127571077Y-83849000D02*
X127571077Y-80228000D01*
X127531077Y-89940000D02*
X127531077Y-86331000D01*
X127531077Y-83849000D02*
X127531077Y-80240000D01*
X127491077Y-89927000D02*
X127491077Y-86331000D01*
X127491077Y-83849000D02*
X127491077Y-80253000D01*
X127451077Y-89914000D02*
X127451077Y-86331000D01*
X127451077Y-83849000D02*
X127451077Y-80266000D01*
X127411077Y-89901000D02*
X127411077Y-86331000D01*
X127411077Y-83849000D02*
X127411077Y-80279000D01*
X127371077Y-89887000D02*
X127371077Y-86331000D01*
X127371077Y-83849000D02*
X127371077Y-80293000D01*
X127331077Y-89873000D02*
X127331077Y-86331000D01*
X127331077Y-83849000D02*
X127331077Y-80307000D01*
X127291077Y-89858000D02*
X127291077Y-86331000D01*
X127291077Y-83849000D02*
X127291077Y-80322000D01*
X127251077Y-89844000D02*
X127251077Y-86331000D01*
X127251077Y-83849000D02*
X127251077Y-80336000D01*
X127211077Y-89828000D02*
X127211077Y-86331000D01*
X127211077Y-83849000D02*
X127211077Y-80352000D01*
X127171077Y-89813000D02*
X127171077Y-86331000D01*
X127171077Y-83849000D02*
X127171077Y-80367000D01*
X127131077Y-89797000D02*
X127131077Y-86331000D01*
X127131077Y-83849000D02*
X127131077Y-80383000D01*
X127091077Y-89780000D02*
X127091077Y-86331000D01*
X127091077Y-83849000D02*
X127091077Y-80400000D01*
X127051077Y-89764000D02*
X127051077Y-86331000D01*
X127051077Y-83849000D02*
X127051077Y-80416000D01*
X127011077Y-89747000D02*
X127011077Y-86331000D01*
X127011077Y-83849000D02*
X127011077Y-80433000D01*
X126971077Y-89729000D02*
X126971077Y-86331000D01*
X126971077Y-83849000D02*
X126971077Y-80451000D01*
X126931077Y-89711000D02*
X126931077Y-86331000D01*
X126931077Y-83849000D02*
X126931077Y-80469000D01*
X126891077Y-89693000D02*
X126891077Y-86331000D01*
X126891077Y-83849000D02*
X126891077Y-80487000D01*
X126851077Y-89674000D02*
X126851077Y-86331000D01*
X126851077Y-83849000D02*
X126851077Y-80506000D01*
X126811077Y-89654000D02*
X126811077Y-86331000D01*
X126811077Y-83849000D02*
X126811077Y-80526000D01*
X126771077Y-89635000D02*
X126771077Y-86331000D01*
X126771077Y-83849000D02*
X126771077Y-80545000D01*
X126731077Y-89615000D02*
X126731077Y-86331000D01*
X126731077Y-83849000D02*
X126731077Y-80565000D01*
X126691077Y-89594000D02*
X126691077Y-86331000D01*
X126691077Y-83849000D02*
X126691077Y-80586000D01*
X126651077Y-89573000D02*
X126651077Y-86331000D01*
X126651077Y-83849000D02*
X126651077Y-80607000D01*
X126611077Y-89552000D02*
X126611077Y-86331000D01*
X126611077Y-83849000D02*
X126611077Y-80628000D01*
X126571077Y-89530000D02*
X126571077Y-86331000D01*
X126571077Y-83849000D02*
X126571077Y-80650000D01*
X126531077Y-89507000D02*
X126531077Y-86331000D01*
X126531077Y-83849000D02*
X126531077Y-80673000D01*
X126491077Y-89485000D02*
X126491077Y-86331000D01*
X126491077Y-83849000D02*
X126491077Y-80695000D01*
X126451077Y-89461000D02*
X126451077Y-86331000D01*
X126451077Y-83849000D02*
X126451077Y-80719000D01*
X126411077Y-89437000D02*
X126411077Y-86331000D01*
X126411077Y-83849000D02*
X126411077Y-80743000D01*
X126371077Y-89413000D02*
X126371077Y-86331000D01*
X126371077Y-83849000D02*
X126371077Y-80767000D01*
X126331077Y-89388000D02*
X126331077Y-86331000D01*
X126331077Y-83849000D02*
X126331077Y-80792000D01*
X126291077Y-89363000D02*
X126291077Y-86331000D01*
X126291077Y-83849000D02*
X126291077Y-80817000D01*
X126251077Y-89337000D02*
X126251077Y-86331000D01*
X126251077Y-83849000D02*
X126251077Y-80843000D01*
X126211077Y-89311000D02*
X126211077Y-86331000D01*
X126211077Y-83849000D02*
X126211077Y-80869000D01*
X126171077Y-89284000D02*
X126171077Y-86331000D01*
X126171077Y-83849000D02*
X126171077Y-80896000D01*
X126131077Y-89256000D02*
X126131077Y-86331000D01*
X126131077Y-83849000D02*
X126131077Y-80924000D01*
X126091077Y-89228000D02*
X126091077Y-86331000D01*
X126091077Y-83849000D02*
X126091077Y-80952000D01*
X126051077Y-89200000D02*
X126051077Y-86331000D01*
X126051077Y-83849000D02*
X126051077Y-80980000D01*
X126011077Y-89170000D02*
X126011077Y-86331000D01*
X126011077Y-83849000D02*
X126011077Y-81010000D01*
X125971077Y-89140000D02*
X125971077Y-86331000D01*
X125971077Y-83849000D02*
X125971077Y-81040000D01*
X125931077Y-89110000D02*
X125931077Y-86331000D01*
X125931077Y-83849000D02*
X125931077Y-81070000D01*
X125891077Y-89079000D02*
X125891077Y-86331000D01*
X125891077Y-83849000D02*
X125891077Y-81101000D01*
X125851077Y-89047000D02*
X125851077Y-86331000D01*
X125851077Y-83849000D02*
X125851077Y-81133000D01*
X125811077Y-89015000D02*
X125811077Y-86331000D01*
X125811077Y-83849000D02*
X125811077Y-81165000D01*
X125771077Y-88982000D02*
X125771077Y-86331000D01*
X125771077Y-83849000D02*
X125771077Y-81198000D01*
X125731077Y-88948000D02*
X125731077Y-86331000D01*
X125731077Y-83849000D02*
X125731077Y-81232000D01*
X125691077Y-88914000D02*
X125691077Y-86331000D01*
X125691077Y-83849000D02*
X125691077Y-81266000D01*
X125651077Y-88879000D02*
X125651077Y-86331000D01*
X125651077Y-83849000D02*
X125651077Y-81301000D01*
X125611077Y-88843000D02*
X125611077Y-86331000D01*
X125611077Y-83849000D02*
X125611077Y-81337000D01*
X125571077Y-88806000D02*
X125571077Y-86331000D01*
X125571077Y-83849000D02*
X125571077Y-81374000D01*
X125531077Y-88769000D02*
X125531077Y-86331000D01*
X125531077Y-83849000D02*
X125531077Y-81411000D01*
X125491077Y-88730000D02*
X125491077Y-86331000D01*
X125491077Y-83849000D02*
X125491077Y-81450000D01*
X125451077Y-88691000D02*
X125451077Y-86331000D01*
X125451077Y-83849000D02*
X125451077Y-81489000D01*
X125411077Y-88651000D02*
X125411077Y-86331000D01*
X125411077Y-83849000D02*
X125411077Y-81529000D01*
X125371077Y-88610000D02*
X125371077Y-86331000D01*
X125371077Y-83849000D02*
X125371077Y-81570000D01*
X125331077Y-88568000D02*
X125331077Y-86331000D01*
X125331077Y-83849000D02*
X125331077Y-81612000D01*
X125291077Y-88526000D02*
X125291077Y-81654000D01*
X125251077Y-88482000D02*
X125251077Y-81698000D01*
X125211077Y-88437000D02*
X125211077Y-81743000D01*
X125171077Y-88391000D02*
X125171077Y-81789000D01*
X125131077Y-88344000D02*
X125131077Y-81836000D01*
X125091077Y-88296000D02*
X125091077Y-81884000D01*
X125051077Y-88246000D02*
X125051077Y-81934000D01*
X125011077Y-88196000D02*
X125011077Y-81984000D01*
X124971077Y-88144000D02*
X124971077Y-82036000D01*
X124931077Y-88090000D02*
X124931077Y-82090000D01*
X124891077Y-88035000D02*
X124891077Y-82145000D01*
X124851077Y-87979000D02*
X124851077Y-82201000D01*
X124811077Y-87920000D02*
X124811077Y-82260000D01*
X124771077Y-87860000D02*
X124771077Y-82320000D01*
X124731077Y-87799000D02*
X124731077Y-82381000D01*
X124691077Y-87735000D02*
X124691077Y-82445000D01*
X124651077Y-87669000D02*
X124651077Y-82511000D01*
X124611077Y-87600000D02*
X124611077Y-82580000D01*
X124571077Y-87529000D02*
X124571077Y-82651000D01*
X124531077Y-87455000D02*
X124531077Y-82725000D01*
X124491077Y-87379000D02*
X124491077Y-82801000D01*
X124451077Y-87299000D02*
X124451077Y-82881000D01*
X124411077Y-87215000D02*
X124411077Y-82965000D01*
X124371077Y-87127000D02*
X124371077Y-83053000D01*
X124331077Y-87034000D02*
X124331077Y-83146000D01*
X124291077Y-86936000D02*
X124291077Y-83244000D01*
X124251077Y-86832000D02*
X124251077Y-83348000D01*
X124211077Y-86720000D02*
X124211077Y-83460000D01*
X124171077Y-86600000D02*
X124171077Y-83580000D01*
X124131077Y-86468000D02*
X124131077Y-83712000D01*
X124091077Y-86320000D02*
X124091077Y-83860000D01*
X124051077Y-86152000D02*
X124051077Y-84028000D01*
X124011077Y-85952000D02*
X124011077Y-84228000D01*
X123971077Y-85689000D02*
X123971077Y-84491000D01*
X134172077Y-85090000D02*
G75*
G03*
X134172077Y-85090000I-5120000J0D01*
G01*
%TO.C,D2*%
X111982400Y-76098400D02*
X113002400Y-76098400D01*
X113002400Y-74628400D02*
X113002400Y-77568400D01*
X113002400Y-77568400D02*
X118442400Y-77568400D01*
X113782400Y-74628400D02*
X113782400Y-77568400D01*
X113902400Y-74628400D02*
X113902400Y-77568400D01*
X114022400Y-74628400D02*
X114022400Y-77568400D01*
X118442400Y-74628400D02*
X113002400Y-74628400D01*
X118442400Y-77568400D02*
X118442400Y-74628400D01*
X119462400Y-76098400D02*
X118442400Y-76098400D01*
%TO.C,C3*%
X146341477Y-70226200D02*
X147341477Y-70226200D01*
X146841477Y-69726200D02*
X146841477Y-70726200D01*
X151821123Y-68021200D02*
X151821123Y-78181200D01*
X151861123Y-68021200D02*
X151861123Y-78181200D01*
X151901123Y-68021200D02*
X151901123Y-78181200D01*
X151941123Y-68022200D02*
X151941123Y-78180200D01*
X151981123Y-68023200D02*
X151981123Y-78179200D01*
X152021123Y-68024200D02*
X152021123Y-78178200D01*
X152061123Y-68026200D02*
X152061123Y-78176200D01*
X152101123Y-68028200D02*
X152101123Y-78174200D01*
X152141123Y-68031200D02*
X152141123Y-78171200D01*
X152181123Y-68033200D02*
X152181123Y-78169200D01*
X152221123Y-68036200D02*
X152221123Y-78166200D01*
X152261123Y-68039200D02*
X152261123Y-78163200D01*
X152301123Y-68043200D02*
X152301123Y-78159200D01*
X152341123Y-68047200D02*
X152341123Y-78155200D01*
X152381123Y-68051200D02*
X152381123Y-78151200D01*
X152421123Y-68056200D02*
X152421123Y-78146200D01*
X152461123Y-68061200D02*
X152461123Y-78141200D01*
X152501123Y-68066200D02*
X152501123Y-78136200D01*
X152542123Y-68071200D02*
X152542123Y-78131200D01*
X152582123Y-68077200D02*
X152582123Y-78125200D01*
X152622123Y-68083200D02*
X152622123Y-78119200D01*
X152662123Y-68090200D02*
X152662123Y-78112200D01*
X152702123Y-68097200D02*
X152702123Y-78105200D01*
X152742123Y-68104200D02*
X152742123Y-78098200D01*
X152782123Y-68111200D02*
X152782123Y-78091200D01*
X152822123Y-68119200D02*
X152822123Y-78083200D01*
X152862123Y-68127200D02*
X152862123Y-78075200D01*
X152902123Y-68136200D02*
X152902123Y-78066200D01*
X152942123Y-68145200D02*
X152942123Y-78057200D01*
X152982123Y-68154200D02*
X152982123Y-78048200D01*
X153022123Y-68163200D02*
X153022123Y-78039200D01*
X153062123Y-68173200D02*
X153062123Y-78029200D01*
X153102123Y-68183200D02*
X153102123Y-71860200D01*
X153102123Y-74342200D02*
X153102123Y-78019200D01*
X153142123Y-68194200D02*
X153142123Y-71860200D01*
X153142123Y-74342200D02*
X153142123Y-78008200D01*
X153182123Y-68204200D02*
X153182123Y-71860200D01*
X153182123Y-74342200D02*
X153182123Y-77998200D01*
X153222123Y-68216200D02*
X153222123Y-71860200D01*
X153222123Y-74342200D02*
X153222123Y-77986200D01*
X153262123Y-68227200D02*
X153262123Y-71860200D01*
X153262123Y-74342200D02*
X153262123Y-77975200D01*
X153302123Y-68239200D02*
X153302123Y-71860200D01*
X153302123Y-74342200D02*
X153302123Y-77963200D01*
X153342123Y-68251200D02*
X153342123Y-71860200D01*
X153342123Y-74342200D02*
X153342123Y-77951200D01*
X153382123Y-68264200D02*
X153382123Y-71860200D01*
X153382123Y-74342200D02*
X153382123Y-77938200D01*
X153422123Y-68277200D02*
X153422123Y-71860200D01*
X153422123Y-74342200D02*
X153422123Y-77925200D01*
X153462123Y-68290200D02*
X153462123Y-71860200D01*
X153462123Y-74342200D02*
X153462123Y-77912200D01*
X153502123Y-68304200D02*
X153502123Y-71860200D01*
X153502123Y-74342200D02*
X153502123Y-77898200D01*
X153542123Y-68318200D02*
X153542123Y-71860200D01*
X153542123Y-74342200D02*
X153542123Y-77884200D01*
X153582123Y-68333200D02*
X153582123Y-71860200D01*
X153582123Y-74342200D02*
X153582123Y-77869200D01*
X153622123Y-68347200D02*
X153622123Y-71860200D01*
X153622123Y-74342200D02*
X153622123Y-77855200D01*
X153662123Y-68363200D02*
X153662123Y-71860200D01*
X153662123Y-74342200D02*
X153662123Y-77839200D01*
X153702123Y-68378200D02*
X153702123Y-71860200D01*
X153702123Y-74342200D02*
X153702123Y-77824200D01*
X153742123Y-68394200D02*
X153742123Y-71860200D01*
X153742123Y-74342200D02*
X153742123Y-77808200D01*
X153782123Y-68411200D02*
X153782123Y-71860200D01*
X153782123Y-74342200D02*
X153782123Y-77791200D01*
X153822123Y-68427200D02*
X153822123Y-71860200D01*
X153822123Y-74342200D02*
X153822123Y-77775200D01*
X153862123Y-68444200D02*
X153862123Y-71860200D01*
X153862123Y-74342200D02*
X153862123Y-77758200D01*
X153902123Y-68462200D02*
X153902123Y-71860200D01*
X153902123Y-74342200D02*
X153902123Y-77740200D01*
X153942123Y-68480200D02*
X153942123Y-71860200D01*
X153942123Y-74342200D02*
X153942123Y-77722200D01*
X153982123Y-68498200D02*
X153982123Y-71860200D01*
X153982123Y-74342200D02*
X153982123Y-77704200D01*
X154022123Y-68517200D02*
X154022123Y-71860200D01*
X154022123Y-74342200D02*
X154022123Y-77685200D01*
X154062123Y-68537200D02*
X154062123Y-71860200D01*
X154062123Y-74342200D02*
X154062123Y-77665200D01*
X154102123Y-68556200D02*
X154102123Y-71860200D01*
X154102123Y-74342200D02*
X154102123Y-77646200D01*
X154142123Y-68576200D02*
X154142123Y-71860200D01*
X154142123Y-74342200D02*
X154142123Y-77626200D01*
X154182123Y-68597200D02*
X154182123Y-71860200D01*
X154182123Y-74342200D02*
X154182123Y-77605200D01*
X154222123Y-68618200D02*
X154222123Y-71860200D01*
X154222123Y-74342200D02*
X154222123Y-77584200D01*
X154262123Y-68639200D02*
X154262123Y-71860200D01*
X154262123Y-74342200D02*
X154262123Y-77563200D01*
X154302123Y-68661200D02*
X154302123Y-71860200D01*
X154302123Y-74342200D02*
X154302123Y-77541200D01*
X154342123Y-68684200D02*
X154342123Y-71860200D01*
X154342123Y-74342200D02*
X154342123Y-77518200D01*
X154382123Y-68706200D02*
X154382123Y-71860200D01*
X154382123Y-74342200D02*
X154382123Y-77496200D01*
X154422123Y-68730200D02*
X154422123Y-71860200D01*
X154422123Y-74342200D02*
X154422123Y-77472200D01*
X154462123Y-68754200D02*
X154462123Y-71860200D01*
X154462123Y-74342200D02*
X154462123Y-77448200D01*
X154502123Y-68778200D02*
X154502123Y-71860200D01*
X154502123Y-74342200D02*
X154502123Y-77424200D01*
X154542123Y-68803200D02*
X154542123Y-71860200D01*
X154542123Y-74342200D02*
X154542123Y-77399200D01*
X154582123Y-68828200D02*
X154582123Y-71860200D01*
X154582123Y-74342200D02*
X154582123Y-77374200D01*
X154622123Y-68854200D02*
X154622123Y-71860200D01*
X154622123Y-74342200D02*
X154622123Y-77348200D01*
X154662123Y-68880200D02*
X154662123Y-71860200D01*
X154662123Y-74342200D02*
X154662123Y-77322200D01*
X154702123Y-68907200D02*
X154702123Y-71860200D01*
X154702123Y-74342200D02*
X154702123Y-77295200D01*
X154742123Y-68935200D02*
X154742123Y-71860200D01*
X154742123Y-74342200D02*
X154742123Y-77267200D01*
X154782123Y-68963200D02*
X154782123Y-71860200D01*
X154782123Y-74342200D02*
X154782123Y-77239200D01*
X154822123Y-68991200D02*
X154822123Y-71860200D01*
X154822123Y-74342200D02*
X154822123Y-77211200D01*
X154862123Y-69021200D02*
X154862123Y-71860200D01*
X154862123Y-74342200D02*
X154862123Y-77181200D01*
X154902123Y-69051200D02*
X154902123Y-71860200D01*
X154902123Y-74342200D02*
X154902123Y-77151200D01*
X154942123Y-69081200D02*
X154942123Y-71860200D01*
X154942123Y-74342200D02*
X154942123Y-77121200D01*
X154982123Y-69112200D02*
X154982123Y-71860200D01*
X154982123Y-74342200D02*
X154982123Y-77090200D01*
X155022123Y-69144200D02*
X155022123Y-71860200D01*
X155022123Y-74342200D02*
X155022123Y-77058200D01*
X155062123Y-69176200D02*
X155062123Y-71860200D01*
X155062123Y-74342200D02*
X155062123Y-77026200D01*
X155102123Y-69209200D02*
X155102123Y-71860200D01*
X155102123Y-74342200D02*
X155102123Y-76993200D01*
X155142123Y-69243200D02*
X155142123Y-71860200D01*
X155142123Y-74342200D02*
X155142123Y-76959200D01*
X155182123Y-69277200D02*
X155182123Y-71860200D01*
X155182123Y-74342200D02*
X155182123Y-76925200D01*
X155222123Y-69312200D02*
X155222123Y-71860200D01*
X155222123Y-74342200D02*
X155222123Y-76890200D01*
X155262123Y-69348200D02*
X155262123Y-71860200D01*
X155262123Y-74342200D02*
X155262123Y-76854200D01*
X155302123Y-69385200D02*
X155302123Y-71860200D01*
X155302123Y-74342200D02*
X155302123Y-76817200D01*
X155342123Y-69422200D02*
X155342123Y-71860200D01*
X155342123Y-74342200D02*
X155342123Y-76780200D01*
X155382123Y-69461200D02*
X155382123Y-71860200D01*
X155382123Y-74342200D02*
X155382123Y-76741200D01*
X155422123Y-69500200D02*
X155422123Y-71860200D01*
X155422123Y-74342200D02*
X155422123Y-76702200D01*
X155462123Y-69540200D02*
X155462123Y-71860200D01*
X155462123Y-74342200D02*
X155462123Y-76662200D01*
X155502123Y-69581200D02*
X155502123Y-71860200D01*
X155502123Y-74342200D02*
X155502123Y-76621200D01*
X155542123Y-69623200D02*
X155542123Y-71860200D01*
X155542123Y-74342200D02*
X155542123Y-76579200D01*
X155582123Y-69665200D02*
X155582123Y-76537200D01*
X155622123Y-69709200D02*
X155622123Y-76493200D01*
X155662123Y-69754200D02*
X155662123Y-76448200D01*
X155702123Y-69800200D02*
X155702123Y-76402200D01*
X155742123Y-69847200D02*
X155742123Y-76355200D01*
X155782123Y-69895200D02*
X155782123Y-76307200D01*
X155822123Y-69945200D02*
X155822123Y-76257200D01*
X155862123Y-69995200D02*
X155862123Y-76207200D01*
X155902123Y-70047200D02*
X155902123Y-76155200D01*
X155942123Y-70101200D02*
X155942123Y-76101200D01*
X155982123Y-70156200D02*
X155982123Y-76046200D01*
X156022123Y-70212200D02*
X156022123Y-75990200D01*
X156062123Y-70271200D02*
X156062123Y-75931200D01*
X156102123Y-70331200D02*
X156102123Y-75871200D01*
X156142123Y-70392200D02*
X156142123Y-75810200D01*
X156182123Y-70456200D02*
X156182123Y-75746200D01*
X156222123Y-70522200D02*
X156222123Y-75680200D01*
X156262123Y-70591200D02*
X156262123Y-75611200D01*
X156302123Y-70662200D02*
X156302123Y-75540200D01*
X156342123Y-70736200D02*
X156342123Y-75466200D01*
X156382123Y-70812200D02*
X156382123Y-75390200D01*
X156422123Y-70892200D02*
X156422123Y-75310200D01*
X156462123Y-70976200D02*
X156462123Y-75226200D01*
X156502123Y-71064200D02*
X156502123Y-75138200D01*
X156542123Y-71157200D02*
X156542123Y-75045200D01*
X156582123Y-71255200D02*
X156582123Y-74947200D01*
X156622123Y-71359200D02*
X156622123Y-74843200D01*
X156662123Y-71471200D02*
X156662123Y-74731200D01*
X156702123Y-71591200D02*
X156702123Y-74611200D01*
X156742123Y-71723200D02*
X156742123Y-74479200D01*
X156782123Y-71871200D02*
X156782123Y-74331200D01*
X156822123Y-72039200D02*
X156822123Y-74163200D01*
X156862123Y-72239200D02*
X156862123Y-73963200D01*
X156902123Y-72502200D02*
X156902123Y-73700200D01*
X156941123Y-73101200D02*
G75*
G03*
X156941123Y-73101200I-5120000J0D01*
G01*
%TO.C,D6*%
X166181600Y-87867200D02*
X166181600Y-88023200D01*
X166181600Y-90183200D02*
X166181600Y-90339200D01*
X169413934Y-88024592D02*
G75*
G03*
X166181601Y-87867685I-1672334J-1078608D01*
G01*
X168782729Y-88023364D02*
G75*
G03*
X166700640Y-88023201I-1041129J-1079836D01*
G01*
X166700640Y-90183199D02*
G75*
G03*
X168782729Y-90183036I1040960J1079999D01*
G01*
X166181601Y-90338715D02*
G75*
G03*
X169413934Y-90181808I1559999J1235515D01*
G01*
%TO.C,D1*%
X111982400Y-71018400D02*
X113002400Y-71018400D01*
X113002400Y-69548400D02*
X113002400Y-72488400D01*
X113002400Y-72488400D02*
X118442400Y-72488400D01*
X113782400Y-69548400D02*
X113782400Y-72488400D01*
X113902400Y-69548400D02*
X113902400Y-72488400D01*
X114022400Y-69548400D02*
X114022400Y-72488400D01*
X118442400Y-69548400D02*
X113002400Y-69548400D01*
X118442400Y-72488400D02*
X118442400Y-69548400D01*
X119462400Y-71018400D02*
X118442400Y-71018400D01*
%TO.C,C4*%
X146646277Y-82215000D02*
X147646277Y-82215000D01*
X147146277Y-81715000D02*
X147146277Y-82715000D01*
X152125923Y-80010000D02*
X152125923Y-90170000D01*
X152165923Y-80010000D02*
X152165923Y-90170000D01*
X152205923Y-80010000D02*
X152205923Y-90170000D01*
X152245923Y-80011000D02*
X152245923Y-90169000D01*
X152285923Y-80012000D02*
X152285923Y-90168000D01*
X152325923Y-80013000D02*
X152325923Y-90167000D01*
X152365923Y-80015000D02*
X152365923Y-90165000D01*
X152405923Y-80017000D02*
X152405923Y-90163000D01*
X152445923Y-80020000D02*
X152445923Y-90160000D01*
X152485923Y-80022000D02*
X152485923Y-90158000D01*
X152525923Y-80025000D02*
X152525923Y-90155000D01*
X152565923Y-80028000D02*
X152565923Y-90152000D01*
X152605923Y-80032000D02*
X152605923Y-90148000D01*
X152645923Y-80036000D02*
X152645923Y-90144000D01*
X152685923Y-80040000D02*
X152685923Y-90140000D01*
X152725923Y-80045000D02*
X152725923Y-90135000D01*
X152765923Y-80050000D02*
X152765923Y-90130000D01*
X152805923Y-80055000D02*
X152805923Y-90125000D01*
X152846923Y-80060000D02*
X152846923Y-90120000D01*
X152886923Y-80066000D02*
X152886923Y-90114000D01*
X152926923Y-80072000D02*
X152926923Y-90108000D01*
X152966923Y-80079000D02*
X152966923Y-90101000D01*
X153006923Y-80086000D02*
X153006923Y-90094000D01*
X153046923Y-80093000D02*
X153046923Y-90087000D01*
X153086923Y-80100000D02*
X153086923Y-90080000D01*
X153126923Y-80108000D02*
X153126923Y-90072000D01*
X153166923Y-80116000D02*
X153166923Y-90064000D01*
X153206923Y-80125000D02*
X153206923Y-90055000D01*
X153246923Y-80134000D02*
X153246923Y-90046000D01*
X153286923Y-80143000D02*
X153286923Y-90037000D01*
X153326923Y-80152000D02*
X153326923Y-90028000D01*
X153366923Y-80162000D02*
X153366923Y-90018000D01*
X153406923Y-80172000D02*
X153406923Y-83849000D01*
X153406923Y-86331000D02*
X153406923Y-90008000D01*
X153446923Y-80183000D02*
X153446923Y-83849000D01*
X153446923Y-86331000D02*
X153446923Y-89997000D01*
X153486923Y-80193000D02*
X153486923Y-83849000D01*
X153486923Y-86331000D02*
X153486923Y-89987000D01*
X153526923Y-80205000D02*
X153526923Y-83849000D01*
X153526923Y-86331000D02*
X153526923Y-89975000D01*
X153566923Y-80216000D02*
X153566923Y-83849000D01*
X153566923Y-86331000D02*
X153566923Y-89964000D01*
X153606923Y-80228000D02*
X153606923Y-83849000D01*
X153606923Y-86331000D02*
X153606923Y-89952000D01*
X153646923Y-80240000D02*
X153646923Y-83849000D01*
X153646923Y-86331000D02*
X153646923Y-89940000D01*
X153686923Y-80253000D02*
X153686923Y-83849000D01*
X153686923Y-86331000D02*
X153686923Y-89927000D01*
X153726923Y-80266000D02*
X153726923Y-83849000D01*
X153726923Y-86331000D02*
X153726923Y-89914000D01*
X153766923Y-80279000D02*
X153766923Y-83849000D01*
X153766923Y-86331000D02*
X153766923Y-89901000D01*
X153806923Y-80293000D02*
X153806923Y-83849000D01*
X153806923Y-86331000D02*
X153806923Y-89887000D01*
X153846923Y-80307000D02*
X153846923Y-83849000D01*
X153846923Y-86331000D02*
X153846923Y-89873000D01*
X153886923Y-80322000D02*
X153886923Y-83849000D01*
X153886923Y-86331000D02*
X153886923Y-89858000D01*
X153926923Y-80336000D02*
X153926923Y-83849000D01*
X153926923Y-86331000D02*
X153926923Y-89844000D01*
X153966923Y-80352000D02*
X153966923Y-83849000D01*
X153966923Y-86331000D02*
X153966923Y-89828000D01*
X154006923Y-80367000D02*
X154006923Y-83849000D01*
X154006923Y-86331000D02*
X154006923Y-89813000D01*
X154046923Y-80383000D02*
X154046923Y-83849000D01*
X154046923Y-86331000D02*
X154046923Y-89797000D01*
X154086923Y-80400000D02*
X154086923Y-83849000D01*
X154086923Y-86331000D02*
X154086923Y-89780000D01*
X154126923Y-80416000D02*
X154126923Y-83849000D01*
X154126923Y-86331000D02*
X154126923Y-89764000D01*
X154166923Y-80433000D02*
X154166923Y-83849000D01*
X154166923Y-86331000D02*
X154166923Y-89747000D01*
X154206923Y-80451000D02*
X154206923Y-83849000D01*
X154206923Y-86331000D02*
X154206923Y-89729000D01*
X154246923Y-80469000D02*
X154246923Y-83849000D01*
X154246923Y-86331000D02*
X154246923Y-89711000D01*
X154286923Y-80487000D02*
X154286923Y-83849000D01*
X154286923Y-86331000D02*
X154286923Y-89693000D01*
X154326923Y-80506000D02*
X154326923Y-83849000D01*
X154326923Y-86331000D02*
X154326923Y-89674000D01*
X154366923Y-80526000D02*
X154366923Y-83849000D01*
X154366923Y-86331000D02*
X154366923Y-89654000D01*
X154406923Y-80545000D02*
X154406923Y-83849000D01*
X154406923Y-86331000D02*
X154406923Y-89635000D01*
X154446923Y-80565000D02*
X154446923Y-83849000D01*
X154446923Y-86331000D02*
X154446923Y-89615000D01*
X154486923Y-80586000D02*
X154486923Y-83849000D01*
X154486923Y-86331000D02*
X154486923Y-89594000D01*
X154526923Y-80607000D02*
X154526923Y-83849000D01*
X154526923Y-86331000D02*
X154526923Y-89573000D01*
X154566923Y-80628000D02*
X154566923Y-83849000D01*
X154566923Y-86331000D02*
X154566923Y-89552000D01*
X154606923Y-80650000D02*
X154606923Y-83849000D01*
X154606923Y-86331000D02*
X154606923Y-89530000D01*
X154646923Y-80673000D02*
X154646923Y-83849000D01*
X154646923Y-86331000D02*
X154646923Y-89507000D01*
X154686923Y-80695000D02*
X154686923Y-83849000D01*
X154686923Y-86331000D02*
X154686923Y-89485000D01*
X154726923Y-80719000D02*
X154726923Y-83849000D01*
X154726923Y-86331000D02*
X154726923Y-89461000D01*
X154766923Y-80743000D02*
X154766923Y-83849000D01*
X154766923Y-86331000D02*
X154766923Y-89437000D01*
X154806923Y-80767000D02*
X154806923Y-83849000D01*
X154806923Y-86331000D02*
X154806923Y-89413000D01*
X154846923Y-80792000D02*
X154846923Y-83849000D01*
X154846923Y-86331000D02*
X154846923Y-89388000D01*
X154886923Y-80817000D02*
X154886923Y-83849000D01*
X154886923Y-86331000D02*
X154886923Y-89363000D01*
X154926923Y-80843000D02*
X154926923Y-83849000D01*
X154926923Y-86331000D02*
X154926923Y-89337000D01*
X154966923Y-80869000D02*
X154966923Y-83849000D01*
X154966923Y-86331000D02*
X154966923Y-89311000D01*
X155006923Y-80896000D02*
X155006923Y-83849000D01*
X155006923Y-86331000D02*
X155006923Y-89284000D01*
X155046923Y-80924000D02*
X155046923Y-83849000D01*
X155046923Y-86331000D02*
X155046923Y-89256000D01*
X155086923Y-80952000D02*
X155086923Y-83849000D01*
X155086923Y-86331000D02*
X155086923Y-89228000D01*
X155126923Y-80980000D02*
X155126923Y-83849000D01*
X155126923Y-86331000D02*
X155126923Y-89200000D01*
X155166923Y-81010000D02*
X155166923Y-83849000D01*
X155166923Y-86331000D02*
X155166923Y-89170000D01*
X155206923Y-81040000D02*
X155206923Y-83849000D01*
X155206923Y-86331000D02*
X155206923Y-89140000D01*
X155246923Y-81070000D02*
X155246923Y-83849000D01*
X155246923Y-86331000D02*
X155246923Y-89110000D01*
X155286923Y-81101000D02*
X155286923Y-83849000D01*
X155286923Y-86331000D02*
X155286923Y-89079000D01*
X155326923Y-81133000D02*
X155326923Y-83849000D01*
X155326923Y-86331000D02*
X155326923Y-89047000D01*
X155366923Y-81165000D02*
X155366923Y-83849000D01*
X155366923Y-86331000D02*
X155366923Y-89015000D01*
X155406923Y-81198000D02*
X155406923Y-83849000D01*
X155406923Y-86331000D02*
X155406923Y-88982000D01*
X155446923Y-81232000D02*
X155446923Y-83849000D01*
X155446923Y-86331000D02*
X155446923Y-88948000D01*
X155486923Y-81266000D02*
X155486923Y-83849000D01*
X155486923Y-86331000D02*
X155486923Y-88914000D01*
X155526923Y-81301000D02*
X155526923Y-83849000D01*
X155526923Y-86331000D02*
X155526923Y-88879000D01*
X155566923Y-81337000D02*
X155566923Y-83849000D01*
X155566923Y-86331000D02*
X155566923Y-88843000D01*
X155606923Y-81374000D02*
X155606923Y-83849000D01*
X155606923Y-86331000D02*
X155606923Y-88806000D01*
X155646923Y-81411000D02*
X155646923Y-83849000D01*
X155646923Y-86331000D02*
X155646923Y-88769000D01*
X155686923Y-81450000D02*
X155686923Y-83849000D01*
X155686923Y-86331000D02*
X155686923Y-88730000D01*
X155726923Y-81489000D02*
X155726923Y-83849000D01*
X155726923Y-86331000D02*
X155726923Y-88691000D01*
X155766923Y-81529000D02*
X155766923Y-83849000D01*
X155766923Y-86331000D02*
X155766923Y-88651000D01*
X155806923Y-81570000D02*
X155806923Y-83849000D01*
X155806923Y-86331000D02*
X155806923Y-88610000D01*
X155846923Y-81612000D02*
X155846923Y-83849000D01*
X155846923Y-86331000D02*
X155846923Y-88568000D01*
X155886923Y-81654000D02*
X155886923Y-88526000D01*
X155926923Y-81698000D02*
X155926923Y-88482000D01*
X155966923Y-81743000D02*
X155966923Y-88437000D01*
X156006923Y-81789000D02*
X156006923Y-88391000D01*
X156046923Y-81836000D02*
X156046923Y-88344000D01*
X156086923Y-81884000D02*
X156086923Y-88296000D01*
X156126923Y-81934000D02*
X156126923Y-88246000D01*
X156166923Y-81984000D02*
X156166923Y-88196000D01*
X156206923Y-82036000D02*
X156206923Y-88144000D01*
X156246923Y-82090000D02*
X156246923Y-88090000D01*
X156286923Y-82145000D02*
X156286923Y-88035000D01*
X156326923Y-82201000D02*
X156326923Y-87979000D01*
X156366923Y-82260000D02*
X156366923Y-87920000D01*
X156406923Y-82320000D02*
X156406923Y-87860000D01*
X156446923Y-82381000D02*
X156446923Y-87799000D01*
X156486923Y-82445000D02*
X156486923Y-87735000D01*
X156526923Y-82511000D02*
X156526923Y-87669000D01*
X156566923Y-82580000D02*
X156566923Y-87600000D01*
X156606923Y-82651000D02*
X156606923Y-87529000D01*
X156646923Y-82725000D02*
X156646923Y-87455000D01*
X156686923Y-82801000D02*
X156686923Y-87379000D01*
X156726923Y-82881000D02*
X156726923Y-87299000D01*
X156766923Y-82965000D02*
X156766923Y-87215000D01*
X156806923Y-83053000D02*
X156806923Y-87127000D01*
X156846923Y-83146000D02*
X156846923Y-87034000D01*
X156886923Y-83244000D02*
X156886923Y-86936000D01*
X156926923Y-83348000D02*
X156926923Y-86832000D01*
X156966923Y-83460000D02*
X156966923Y-86720000D01*
X157006923Y-83580000D02*
X157006923Y-86600000D01*
X157046923Y-83712000D02*
X157046923Y-86468000D01*
X157086923Y-83860000D02*
X157086923Y-86320000D01*
X157126923Y-84028000D02*
X157126923Y-86152000D01*
X157166923Y-84228000D02*
X157166923Y-85952000D01*
X157206923Y-84491000D02*
X157206923Y-85689000D01*
X157245923Y-85090000D02*
G75*
G03*
X157245923Y-85090000I-5120000J0D01*
G01*
%TO.C,J2*%
X169260000Y-86507600D02*
X170000000Y-86507600D01*
X170000000Y-86507600D02*
X170000000Y-86007600D01*
X159839000Y-86267600D02*
X169760000Y-86267600D01*
X159839000Y-86267600D02*
X159839000Y-70907600D01*
X162799000Y-86267600D02*
X162799000Y-70907600D01*
X167700000Y-86267600D02*
X167700000Y-70907600D01*
X169200000Y-86267600D02*
X169200000Y-70907600D01*
X169760000Y-86267600D02*
X169760000Y-70907600D01*
X166123000Y-79814600D02*
X166169000Y-79861600D01*
X166339000Y-79621600D02*
X166374000Y-79656600D01*
X163825000Y-77517600D02*
X163861000Y-77552600D01*
X164031000Y-77312600D02*
X164077000Y-77359600D01*
X166123000Y-74734600D02*
X166169000Y-74781600D01*
X166339000Y-74541600D02*
X166374000Y-74576600D01*
X163825000Y-72437600D02*
X163861000Y-72472600D01*
X164031000Y-72232600D02*
X164077000Y-72279600D01*
X159839000Y-70907600D02*
X169760000Y-70907600D01*
X164416001Y-85202599D02*
G75*
G03*
X165783042Y-85203026I684000J1534992D01*
G01*
X163565001Y-82983601D02*
G75*
G03*
X163564574Y-84350642I1534992J-684000D01*
G01*
X166634999Y-84351600D02*
G75*
G03*
X166780252Y-83638795I-1535000J683999D01*
G01*
X166779999Y-83667600D02*
G75*
G03*
X166634755Y-82984282I-1679999J0D01*
G01*
X165784000Y-82132600D02*
G75*
G03*
X164416958Y-82132174I-684000J-1535000D01*
G01*
X166780000Y-78587600D02*
G75*
G03*
X166780000Y-78587600I-1680000J0D01*
G01*
X166780000Y-73507600D02*
G75*
G03*
X166780000Y-73507600I-1680000J0D01*
G01*
%TO.C,C1*%
X123583077Y-69616600D02*
X124583077Y-69616600D01*
X124083077Y-69116600D02*
X124083077Y-70116600D01*
X129062723Y-67411600D02*
X129062723Y-77571600D01*
X129102723Y-67411600D02*
X129102723Y-77571600D01*
X129142723Y-67411600D02*
X129142723Y-77571600D01*
X129182723Y-67412600D02*
X129182723Y-77570600D01*
X129222723Y-67413600D02*
X129222723Y-77569600D01*
X129262723Y-67414600D02*
X129262723Y-77568600D01*
X129302723Y-67416600D02*
X129302723Y-77566600D01*
X129342723Y-67418600D02*
X129342723Y-77564600D01*
X129382723Y-67421600D02*
X129382723Y-77561600D01*
X129422723Y-67423600D02*
X129422723Y-77559600D01*
X129462723Y-67426600D02*
X129462723Y-77556600D01*
X129502723Y-67429600D02*
X129502723Y-77553600D01*
X129542723Y-67433600D02*
X129542723Y-77549600D01*
X129582723Y-67437600D02*
X129582723Y-77545600D01*
X129622723Y-67441600D02*
X129622723Y-77541600D01*
X129662723Y-67446600D02*
X129662723Y-77536600D01*
X129702723Y-67451600D02*
X129702723Y-77531600D01*
X129742723Y-67456600D02*
X129742723Y-77526600D01*
X129783723Y-67461600D02*
X129783723Y-77521600D01*
X129823723Y-67467600D02*
X129823723Y-77515600D01*
X129863723Y-67473600D02*
X129863723Y-77509600D01*
X129903723Y-67480600D02*
X129903723Y-77502600D01*
X129943723Y-67487600D02*
X129943723Y-77495600D01*
X129983723Y-67494600D02*
X129983723Y-77488600D01*
X130023723Y-67501600D02*
X130023723Y-77481600D01*
X130063723Y-67509600D02*
X130063723Y-77473600D01*
X130103723Y-67517600D02*
X130103723Y-77465600D01*
X130143723Y-67526600D02*
X130143723Y-77456600D01*
X130183723Y-67535600D02*
X130183723Y-77447600D01*
X130223723Y-67544600D02*
X130223723Y-77438600D01*
X130263723Y-67553600D02*
X130263723Y-77429600D01*
X130303723Y-67563600D02*
X130303723Y-77419600D01*
X130343723Y-67573600D02*
X130343723Y-71250600D01*
X130343723Y-73732600D02*
X130343723Y-77409600D01*
X130383723Y-67584600D02*
X130383723Y-71250600D01*
X130383723Y-73732600D02*
X130383723Y-77398600D01*
X130423723Y-67594600D02*
X130423723Y-71250600D01*
X130423723Y-73732600D02*
X130423723Y-77388600D01*
X130463723Y-67606600D02*
X130463723Y-71250600D01*
X130463723Y-73732600D02*
X130463723Y-77376600D01*
X130503723Y-67617600D02*
X130503723Y-71250600D01*
X130503723Y-73732600D02*
X130503723Y-77365600D01*
X130543723Y-67629600D02*
X130543723Y-71250600D01*
X130543723Y-73732600D02*
X130543723Y-77353600D01*
X130583723Y-67641600D02*
X130583723Y-71250600D01*
X130583723Y-73732600D02*
X130583723Y-77341600D01*
X130623723Y-67654600D02*
X130623723Y-71250600D01*
X130623723Y-73732600D02*
X130623723Y-77328600D01*
X130663723Y-67667600D02*
X130663723Y-71250600D01*
X130663723Y-73732600D02*
X130663723Y-77315600D01*
X130703723Y-67680600D02*
X130703723Y-71250600D01*
X130703723Y-73732600D02*
X130703723Y-77302600D01*
X130743723Y-67694600D02*
X130743723Y-71250600D01*
X130743723Y-73732600D02*
X130743723Y-77288600D01*
X130783723Y-67708600D02*
X130783723Y-71250600D01*
X130783723Y-73732600D02*
X130783723Y-77274600D01*
X130823723Y-67723600D02*
X130823723Y-71250600D01*
X130823723Y-73732600D02*
X130823723Y-77259600D01*
X130863723Y-67737600D02*
X130863723Y-71250600D01*
X130863723Y-73732600D02*
X130863723Y-77245600D01*
X130903723Y-67753600D02*
X130903723Y-71250600D01*
X130903723Y-73732600D02*
X130903723Y-77229600D01*
X130943723Y-67768600D02*
X130943723Y-71250600D01*
X130943723Y-73732600D02*
X130943723Y-77214600D01*
X130983723Y-67784600D02*
X130983723Y-71250600D01*
X130983723Y-73732600D02*
X130983723Y-77198600D01*
X131023723Y-67801600D02*
X131023723Y-71250600D01*
X131023723Y-73732600D02*
X131023723Y-77181600D01*
X131063723Y-67817600D02*
X131063723Y-71250600D01*
X131063723Y-73732600D02*
X131063723Y-77165600D01*
X131103723Y-67834600D02*
X131103723Y-71250600D01*
X131103723Y-73732600D02*
X131103723Y-77148600D01*
X131143723Y-67852600D02*
X131143723Y-71250600D01*
X131143723Y-73732600D02*
X131143723Y-77130600D01*
X131183723Y-67870600D02*
X131183723Y-71250600D01*
X131183723Y-73732600D02*
X131183723Y-77112600D01*
X131223723Y-67888600D02*
X131223723Y-71250600D01*
X131223723Y-73732600D02*
X131223723Y-77094600D01*
X131263723Y-67907600D02*
X131263723Y-71250600D01*
X131263723Y-73732600D02*
X131263723Y-77075600D01*
X131303723Y-67927600D02*
X131303723Y-71250600D01*
X131303723Y-73732600D02*
X131303723Y-77055600D01*
X131343723Y-67946600D02*
X131343723Y-71250600D01*
X131343723Y-73732600D02*
X131343723Y-77036600D01*
X131383723Y-67966600D02*
X131383723Y-71250600D01*
X131383723Y-73732600D02*
X131383723Y-77016600D01*
X131423723Y-67987600D02*
X131423723Y-71250600D01*
X131423723Y-73732600D02*
X131423723Y-76995600D01*
X131463723Y-68008600D02*
X131463723Y-71250600D01*
X131463723Y-73732600D02*
X131463723Y-76974600D01*
X131503723Y-68029600D02*
X131503723Y-71250600D01*
X131503723Y-73732600D02*
X131503723Y-76953600D01*
X131543723Y-68051600D02*
X131543723Y-71250600D01*
X131543723Y-73732600D02*
X131543723Y-76931600D01*
X131583723Y-68074600D02*
X131583723Y-71250600D01*
X131583723Y-73732600D02*
X131583723Y-76908600D01*
X131623723Y-68096600D02*
X131623723Y-71250600D01*
X131623723Y-73732600D02*
X131623723Y-76886600D01*
X131663723Y-68120600D02*
X131663723Y-71250600D01*
X131663723Y-73732600D02*
X131663723Y-76862600D01*
X131703723Y-68144600D02*
X131703723Y-71250600D01*
X131703723Y-73732600D02*
X131703723Y-76838600D01*
X131743723Y-68168600D02*
X131743723Y-71250600D01*
X131743723Y-73732600D02*
X131743723Y-76814600D01*
X131783723Y-68193600D02*
X131783723Y-71250600D01*
X131783723Y-73732600D02*
X131783723Y-76789600D01*
X131823723Y-68218600D02*
X131823723Y-71250600D01*
X131823723Y-73732600D02*
X131823723Y-76764600D01*
X131863723Y-68244600D02*
X131863723Y-71250600D01*
X131863723Y-73732600D02*
X131863723Y-76738600D01*
X131903723Y-68270600D02*
X131903723Y-71250600D01*
X131903723Y-73732600D02*
X131903723Y-76712600D01*
X131943723Y-68297600D02*
X131943723Y-71250600D01*
X131943723Y-73732600D02*
X131943723Y-76685600D01*
X131983723Y-68325600D02*
X131983723Y-71250600D01*
X131983723Y-73732600D02*
X131983723Y-76657600D01*
X132023723Y-68353600D02*
X132023723Y-71250600D01*
X132023723Y-73732600D02*
X132023723Y-76629600D01*
X132063723Y-68381600D02*
X132063723Y-71250600D01*
X132063723Y-73732600D02*
X132063723Y-76601600D01*
X132103723Y-68411600D02*
X132103723Y-71250600D01*
X132103723Y-73732600D02*
X132103723Y-76571600D01*
X132143723Y-68441600D02*
X132143723Y-71250600D01*
X132143723Y-73732600D02*
X132143723Y-76541600D01*
X132183723Y-68471600D02*
X132183723Y-71250600D01*
X132183723Y-73732600D02*
X132183723Y-76511600D01*
X132223723Y-68502600D02*
X132223723Y-71250600D01*
X132223723Y-73732600D02*
X132223723Y-76480600D01*
X132263723Y-68534600D02*
X132263723Y-71250600D01*
X132263723Y-73732600D02*
X132263723Y-76448600D01*
X132303723Y-68566600D02*
X132303723Y-71250600D01*
X132303723Y-73732600D02*
X132303723Y-76416600D01*
X132343723Y-68599600D02*
X132343723Y-71250600D01*
X132343723Y-73732600D02*
X132343723Y-76383600D01*
X132383723Y-68633600D02*
X132383723Y-71250600D01*
X132383723Y-73732600D02*
X132383723Y-76349600D01*
X132423723Y-68667600D02*
X132423723Y-71250600D01*
X132423723Y-73732600D02*
X132423723Y-76315600D01*
X132463723Y-68702600D02*
X132463723Y-71250600D01*
X132463723Y-73732600D02*
X132463723Y-76280600D01*
X132503723Y-68738600D02*
X132503723Y-71250600D01*
X132503723Y-73732600D02*
X132503723Y-76244600D01*
X132543723Y-68775600D02*
X132543723Y-71250600D01*
X132543723Y-73732600D02*
X132543723Y-76207600D01*
X132583723Y-68812600D02*
X132583723Y-71250600D01*
X132583723Y-73732600D02*
X132583723Y-76170600D01*
X132623723Y-68851600D02*
X132623723Y-71250600D01*
X132623723Y-73732600D02*
X132623723Y-76131600D01*
X132663723Y-68890600D02*
X132663723Y-71250600D01*
X132663723Y-73732600D02*
X132663723Y-76092600D01*
X132703723Y-68930600D02*
X132703723Y-71250600D01*
X132703723Y-73732600D02*
X132703723Y-76052600D01*
X132743723Y-68971600D02*
X132743723Y-71250600D01*
X132743723Y-73732600D02*
X132743723Y-76011600D01*
X132783723Y-69013600D02*
X132783723Y-71250600D01*
X132783723Y-73732600D02*
X132783723Y-75969600D01*
X132823723Y-69055600D02*
X132823723Y-75927600D01*
X132863723Y-69099600D02*
X132863723Y-75883600D01*
X132903723Y-69144600D02*
X132903723Y-75838600D01*
X132943723Y-69190600D02*
X132943723Y-75792600D01*
X132983723Y-69237600D02*
X132983723Y-75745600D01*
X133023723Y-69285600D02*
X133023723Y-75697600D01*
X133063723Y-69335600D02*
X133063723Y-75647600D01*
X133103723Y-69385600D02*
X133103723Y-75597600D01*
X133143723Y-69437600D02*
X133143723Y-75545600D01*
X133183723Y-69491600D02*
X133183723Y-75491600D01*
X133223723Y-69546600D02*
X133223723Y-75436600D01*
X133263723Y-69602600D02*
X133263723Y-75380600D01*
X133303723Y-69661600D02*
X133303723Y-75321600D01*
X133343723Y-69721600D02*
X133343723Y-75261600D01*
X133383723Y-69782600D02*
X133383723Y-75200600D01*
X133423723Y-69846600D02*
X133423723Y-75136600D01*
X133463723Y-69912600D02*
X133463723Y-75070600D01*
X133503723Y-69981600D02*
X133503723Y-75001600D01*
X133543723Y-70052600D02*
X133543723Y-74930600D01*
X133583723Y-70126600D02*
X133583723Y-74856600D01*
X133623723Y-70202600D02*
X133623723Y-74780600D01*
X133663723Y-70282600D02*
X133663723Y-74700600D01*
X133703723Y-70366600D02*
X133703723Y-74616600D01*
X133743723Y-70454600D02*
X133743723Y-74528600D01*
X133783723Y-70547600D02*
X133783723Y-74435600D01*
X133823723Y-70645600D02*
X133823723Y-74337600D01*
X133863723Y-70749600D02*
X133863723Y-74233600D01*
X133903723Y-70861600D02*
X133903723Y-74121600D01*
X133943723Y-70981600D02*
X133943723Y-74001600D01*
X133983723Y-71113600D02*
X133983723Y-73869600D01*
X134023723Y-71261600D02*
X134023723Y-73721600D01*
X134063723Y-71429600D02*
X134063723Y-73553600D01*
X134103723Y-71629600D02*
X134103723Y-73353600D01*
X134143723Y-71892600D02*
X134143723Y-73090600D01*
X134182723Y-72491600D02*
G75*
G03*
X134182723Y-72491600I-5120000J0D01*
G01*
%TO.C,U1*%
X135443600Y-66122800D02*
X135443600Y-70763800D01*
X135443600Y-66122800D02*
X145683600Y-66122800D01*
X135443600Y-67632800D02*
X145683600Y-67632800D01*
X135443600Y-70763800D02*
X145683600Y-70763800D01*
X138713600Y-66122800D02*
X138713600Y-67632800D01*
X142414600Y-66122800D02*
X142414600Y-67632800D01*
X145683600Y-66122800D02*
X145683600Y-70763800D01*
%TO.C,R2*%
X158658800Y-87268800D02*
X162498800Y-87268800D01*
X158658800Y-89108800D02*
X162498800Y-89108800D01*
%TO.C,D4*%
X112134800Y-85648800D02*
X113154800Y-85648800D01*
X113154800Y-84178800D02*
X113154800Y-87118800D01*
X113154800Y-87118800D02*
X118594800Y-87118800D01*
X113934800Y-84178800D02*
X113934800Y-87118800D01*
X114054800Y-84178800D02*
X114054800Y-87118800D01*
X114174800Y-84178800D02*
X114174800Y-87118800D01*
X118594800Y-84178800D02*
X113154800Y-84178800D01*
X118594800Y-87118800D02*
X118594800Y-84178800D01*
X119614800Y-85648800D02*
X118594800Y-85648800D01*
%TO.C,R1*%
X162803600Y-69449200D02*
X158963600Y-69449200D01*
X162803600Y-67609200D02*
X158963600Y-67609200D01*
%TD*%
M02*
