%TF.GenerationSoftware,KiCad,Pcbnew,7.0.2*%
%TF.CreationDate,2023-08-22T20:11:56+05:30*%
%TF.ProjectId,Power_Supply_12V,506f7765-725f-4537-9570-706c795f3132,rev?*%
%TF.SameCoordinates,Original*%
%TF.FileFunction,Profile,NP*%
%FSLAX46Y46*%
G04 Gerber Fmt 4.6, Leading zero omitted, Abs format (unit mm)*
G04 Created by KiCad (PCBNEW 7.0.2) date 2023-08-22 20:11:56*
%MOMM*%
%LPD*%
G01*
G04 APERTURE LIST*
%TA.AperFunction,Profile*%
%ADD10C,0.100000*%
%TD*%
%ADD11C,0.150000*%
G04 APERTURE END LIST*
D10*
X96113600Y-64414400D02*
X171450000Y-64414400D01*
X171450000Y-92405200D01*
X96113600Y-92405200D01*
X96113600Y-64414400D01*
D11*
X174633057Y-83028846D02*
X174585438Y-82981227D01*
X174585438Y-82981227D02*
X174537819Y-82885989D01*
X174537819Y-82885989D02*
X174537819Y-82647894D01*
X174537819Y-82647894D02*
X174585438Y-82552656D01*
X174585438Y-82552656D02*
X174633057Y-82505037D01*
X174633057Y-82505037D02*
X174728295Y-82457418D01*
X174728295Y-82457418D02*
X174823533Y-82457418D01*
X174823533Y-82457418D02*
X174966390Y-82505037D01*
X174966390Y-82505037D02*
X175537819Y-83076465D01*
X175537819Y-83076465D02*
X175537819Y-82457418D01*
X174537819Y-82124084D02*
X174537819Y-81457418D01*
X174537819Y-81457418D02*
X175537819Y-81885989D01*
X175442580Y-81076465D02*
X175490200Y-81028846D01*
X175490200Y-81028846D02*
X175537819Y-81076465D01*
X175537819Y-81076465D02*
X175490200Y-81124084D01*
X175490200Y-81124084D02*
X175442580Y-81076465D01*
X175442580Y-81076465D02*
X175537819Y-81076465D01*
X175537819Y-80552656D02*
X175537819Y-80362180D01*
X175537819Y-80362180D02*
X175490200Y-80266942D01*
X175490200Y-80266942D02*
X175442580Y-80219323D01*
X175442580Y-80219323D02*
X175299723Y-80124085D01*
X175299723Y-80124085D02*
X175109247Y-80076466D01*
X175109247Y-80076466D02*
X174728295Y-80076466D01*
X174728295Y-80076466D02*
X174633057Y-80124085D01*
X174633057Y-80124085D02*
X174585438Y-80171704D01*
X174585438Y-80171704D02*
X174537819Y-80266942D01*
X174537819Y-80266942D02*
X174537819Y-80457418D01*
X174537819Y-80457418D02*
X174585438Y-80552656D01*
X174585438Y-80552656D02*
X174633057Y-80600275D01*
X174633057Y-80600275D02*
X174728295Y-80647894D01*
X174728295Y-80647894D02*
X174966390Y-80647894D01*
X174966390Y-80647894D02*
X175061628Y-80600275D01*
X175061628Y-80600275D02*
X175109247Y-80552656D01*
X175109247Y-80552656D02*
X175156866Y-80457418D01*
X175156866Y-80457418D02*
X175156866Y-80266942D01*
X175156866Y-80266942D02*
X175109247Y-80171704D01*
X175109247Y-80171704D02*
X175061628Y-80124085D01*
X175061628Y-80124085D02*
X174966390Y-80076466D01*
X175537819Y-79600275D02*
X175537819Y-79409799D01*
X175537819Y-79409799D02*
X175490200Y-79314561D01*
X175490200Y-79314561D02*
X175442580Y-79266942D01*
X175442580Y-79266942D02*
X175299723Y-79171704D01*
X175299723Y-79171704D02*
X175109247Y-79124085D01*
X175109247Y-79124085D02*
X174728295Y-79124085D01*
X174728295Y-79124085D02*
X174633057Y-79171704D01*
X174633057Y-79171704D02*
X174585438Y-79219323D01*
X174585438Y-79219323D02*
X174537819Y-79314561D01*
X174537819Y-79314561D02*
X174537819Y-79505037D01*
X174537819Y-79505037D02*
X174585438Y-79600275D01*
X174585438Y-79600275D02*
X174633057Y-79647894D01*
X174633057Y-79647894D02*
X174728295Y-79695513D01*
X174728295Y-79695513D02*
X174966390Y-79695513D01*
X174966390Y-79695513D02*
X175061628Y-79647894D01*
X175061628Y-79647894D02*
X175109247Y-79600275D01*
X175109247Y-79600275D02*
X175156866Y-79505037D01*
X175156866Y-79505037D02*
X175156866Y-79314561D01*
X175156866Y-79314561D02*
X175109247Y-79219323D01*
X175109247Y-79219323D02*
X175061628Y-79171704D01*
X175061628Y-79171704D02*
X174966390Y-79124085D01*
X174537819Y-78505037D02*
X174537819Y-78409799D01*
X174537819Y-78409799D02*
X174585438Y-78314561D01*
X174585438Y-78314561D02*
X174633057Y-78266942D01*
X174633057Y-78266942D02*
X174728295Y-78219323D01*
X174728295Y-78219323D02*
X174918771Y-78171704D01*
X174918771Y-78171704D02*
X175156866Y-78171704D01*
X175156866Y-78171704D02*
X175347342Y-78219323D01*
X175347342Y-78219323D02*
X175442580Y-78266942D01*
X175442580Y-78266942D02*
X175490200Y-78314561D01*
X175490200Y-78314561D02*
X175537819Y-78409799D01*
X175537819Y-78409799D02*
X175537819Y-78505037D01*
X175537819Y-78505037D02*
X175490200Y-78600275D01*
X175490200Y-78600275D02*
X175442580Y-78647894D01*
X175442580Y-78647894D02*
X175347342Y-78695513D01*
X175347342Y-78695513D02*
X175156866Y-78743132D01*
X175156866Y-78743132D02*
X174918771Y-78743132D01*
X174918771Y-78743132D02*
X174728295Y-78695513D01*
X174728295Y-78695513D02*
X174633057Y-78647894D01*
X174633057Y-78647894D02*
X174585438Y-78600275D01*
X174585438Y-78600275D02*
X174537819Y-78505037D01*
X174966390Y-77600275D02*
X174918771Y-77695513D01*
X174918771Y-77695513D02*
X174871152Y-77743132D01*
X174871152Y-77743132D02*
X174775914Y-77790751D01*
X174775914Y-77790751D02*
X174728295Y-77790751D01*
X174728295Y-77790751D02*
X174633057Y-77743132D01*
X174633057Y-77743132D02*
X174585438Y-77695513D01*
X174585438Y-77695513D02*
X174537819Y-77600275D01*
X174537819Y-77600275D02*
X174537819Y-77409799D01*
X174537819Y-77409799D02*
X174585438Y-77314561D01*
X174585438Y-77314561D02*
X174633057Y-77266942D01*
X174633057Y-77266942D02*
X174728295Y-77219323D01*
X174728295Y-77219323D02*
X174775914Y-77219323D01*
X174775914Y-77219323D02*
X174871152Y-77266942D01*
X174871152Y-77266942D02*
X174918771Y-77314561D01*
X174918771Y-77314561D02*
X174966390Y-77409799D01*
X174966390Y-77409799D02*
X174966390Y-77600275D01*
X174966390Y-77600275D02*
X175014009Y-77695513D01*
X175014009Y-77695513D02*
X175061628Y-77743132D01*
X175061628Y-77743132D02*
X175156866Y-77790751D01*
X175156866Y-77790751D02*
X175347342Y-77790751D01*
X175347342Y-77790751D02*
X175442580Y-77743132D01*
X175442580Y-77743132D02*
X175490200Y-77695513D01*
X175490200Y-77695513D02*
X175537819Y-77600275D01*
X175537819Y-77600275D02*
X175537819Y-77409799D01*
X175537819Y-77409799D02*
X175490200Y-77314561D01*
X175490200Y-77314561D02*
X175442580Y-77266942D01*
X175442580Y-77266942D02*
X175347342Y-77219323D01*
X175347342Y-77219323D02*
X175156866Y-77219323D01*
X175156866Y-77219323D02*
X175061628Y-77266942D01*
X175061628Y-77266942D02*
X175014009Y-77314561D01*
X175014009Y-77314561D02*
X174966390Y-77409799D01*
X175537819Y-76028846D02*
X174871152Y-76028846D01*
X174966390Y-76028846D02*
X174918771Y-75981227D01*
X174918771Y-75981227D02*
X174871152Y-75885989D01*
X174871152Y-75885989D02*
X174871152Y-75743132D01*
X174871152Y-75743132D02*
X174918771Y-75647894D01*
X174918771Y-75647894D02*
X175014009Y-75600275D01*
X175014009Y-75600275D02*
X175537819Y-75600275D01*
X175014009Y-75600275D02*
X174918771Y-75552656D01*
X174918771Y-75552656D02*
X174871152Y-75457418D01*
X174871152Y-75457418D02*
X174871152Y-75314561D01*
X174871152Y-75314561D02*
X174918771Y-75219322D01*
X174918771Y-75219322D02*
X175014009Y-75171703D01*
X175014009Y-75171703D02*
X175537819Y-75171703D01*
X175537819Y-74695513D02*
X174871152Y-74695513D01*
X174966390Y-74695513D02*
X174918771Y-74647894D01*
X174918771Y-74647894D02*
X174871152Y-74552656D01*
X174871152Y-74552656D02*
X174871152Y-74409799D01*
X174871152Y-74409799D02*
X174918771Y-74314561D01*
X174918771Y-74314561D02*
X175014009Y-74266942D01*
X175014009Y-74266942D02*
X175537819Y-74266942D01*
X175014009Y-74266942D02*
X174918771Y-74219323D01*
X174918771Y-74219323D02*
X174871152Y-74124085D01*
X174871152Y-74124085D02*
X174871152Y-73981228D01*
X174871152Y-73981228D02*
X174918771Y-73885989D01*
X174918771Y-73885989D02*
X175014009Y-73838370D01*
X175014009Y-73838370D02*
X175537819Y-73838370D01*
D10*
X171950000Y-64414400D02*
X176811620Y-64414400D01*
X171950000Y-92405200D02*
X176811620Y-92405200D01*
X176225200Y-64414400D02*
X176225200Y-92405200D01*
X176225200Y-64414400D02*
X176225200Y-92405200D01*
X176225200Y-64414400D02*
X176811621Y-65540904D01*
X176225200Y-64414400D02*
X175638779Y-65540904D01*
X176225200Y-92405200D02*
X175638779Y-91278696D01*
X176225200Y-92405200D02*
X176811621Y-91278696D01*
D11*
X129115134Y-95035819D02*
X129781800Y-95035819D01*
X129781800Y-95035819D02*
X129353229Y-96035819D01*
X130638943Y-95035819D02*
X130162753Y-95035819D01*
X130162753Y-95035819D02*
X130115134Y-95512009D01*
X130115134Y-95512009D02*
X130162753Y-95464390D01*
X130162753Y-95464390D02*
X130257991Y-95416771D01*
X130257991Y-95416771D02*
X130496086Y-95416771D01*
X130496086Y-95416771D02*
X130591324Y-95464390D01*
X130591324Y-95464390D02*
X130638943Y-95512009D01*
X130638943Y-95512009D02*
X130686562Y-95607247D01*
X130686562Y-95607247D02*
X130686562Y-95845342D01*
X130686562Y-95845342D02*
X130638943Y-95940580D01*
X130638943Y-95940580D02*
X130591324Y-95988200D01*
X130591324Y-95988200D02*
X130496086Y-96035819D01*
X130496086Y-96035819D02*
X130257991Y-96035819D01*
X130257991Y-96035819D02*
X130162753Y-95988200D01*
X130162753Y-95988200D02*
X130115134Y-95940580D01*
X131115134Y-95940580D02*
X131162753Y-95988200D01*
X131162753Y-95988200D02*
X131115134Y-96035819D01*
X131115134Y-96035819D02*
X131067515Y-95988200D01*
X131067515Y-95988200D02*
X131115134Y-95940580D01*
X131115134Y-95940580D02*
X131115134Y-96035819D01*
X131496086Y-95035819D02*
X132115133Y-95035819D01*
X132115133Y-95035819D02*
X131781800Y-95416771D01*
X131781800Y-95416771D02*
X131924657Y-95416771D01*
X131924657Y-95416771D02*
X132019895Y-95464390D01*
X132019895Y-95464390D02*
X132067514Y-95512009D01*
X132067514Y-95512009D02*
X132115133Y-95607247D01*
X132115133Y-95607247D02*
X132115133Y-95845342D01*
X132115133Y-95845342D02*
X132067514Y-95940580D01*
X132067514Y-95940580D02*
X132019895Y-95988200D01*
X132019895Y-95988200D02*
X131924657Y-96035819D01*
X131924657Y-96035819D02*
X131638943Y-96035819D01*
X131638943Y-96035819D02*
X131543705Y-95988200D01*
X131543705Y-95988200D02*
X131496086Y-95940580D01*
X132448467Y-95035819D02*
X133067514Y-95035819D01*
X133067514Y-95035819D02*
X132734181Y-95416771D01*
X132734181Y-95416771D02*
X132877038Y-95416771D01*
X132877038Y-95416771D02*
X132972276Y-95464390D01*
X132972276Y-95464390D02*
X133019895Y-95512009D01*
X133019895Y-95512009D02*
X133067514Y-95607247D01*
X133067514Y-95607247D02*
X133067514Y-95845342D01*
X133067514Y-95845342D02*
X133019895Y-95940580D01*
X133019895Y-95940580D02*
X132972276Y-95988200D01*
X132972276Y-95988200D02*
X132877038Y-96035819D01*
X132877038Y-96035819D02*
X132591324Y-96035819D01*
X132591324Y-96035819D02*
X132496086Y-95988200D01*
X132496086Y-95988200D02*
X132448467Y-95940580D01*
X133924657Y-95035819D02*
X133734181Y-95035819D01*
X133734181Y-95035819D02*
X133638943Y-95083438D01*
X133638943Y-95083438D02*
X133591324Y-95131057D01*
X133591324Y-95131057D02*
X133496086Y-95273914D01*
X133496086Y-95273914D02*
X133448467Y-95464390D01*
X133448467Y-95464390D02*
X133448467Y-95845342D01*
X133448467Y-95845342D02*
X133496086Y-95940580D01*
X133496086Y-95940580D02*
X133543705Y-95988200D01*
X133543705Y-95988200D02*
X133638943Y-96035819D01*
X133638943Y-96035819D02*
X133829419Y-96035819D01*
X133829419Y-96035819D02*
X133924657Y-95988200D01*
X133924657Y-95988200D02*
X133972276Y-95940580D01*
X133972276Y-95940580D02*
X134019895Y-95845342D01*
X134019895Y-95845342D02*
X134019895Y-95607247D01*
X134019895Y-95607247D02*
X133972276Y-95512009D01*
X133972276Y-95512009D02*
X133924657Y-95464390D01*
X133924657Y-95464390D02*
X133829419Y-95416771D01*
X133829419Y-95416771D02*
X133638943Y-95416771D01*
X133638943Y-95416771D02*
X133543705Y-95464390D01*
X133543705Y-95464390D02*
X133496086Y-95512009D01*
X133496086Y-95512009D02*
X133448467Y-95607247D01*
X134877038Y-95369152D02*
X134877038Y-96035819D01*
X134638943Y-94988200D02*
X134400848Y-95702485D01*
X134400848Y-95702485D02*
X135019895Y-95702485D01*
X136162753Y-96035819D02*
X136162753Y-95369152D01*
X136162753Y-95464390D02*
X136210372Y-95416771D01*
X136210372Y-95416771D02*
X136305610Y-95369152D01*
X136305610Y-95369152D02*
X136448467Y-95369152D01*
X136448467Y-95369152D02*
X136543705Y-95416771D01*
X136543705Y-95416771D02*
X136591324Y-95512009D01*
X136591324Y-95512009D02*
X136591324Y-96035819D01*
X136591324Y-95512009D02*
X136638943Y-95416771D01*
X136638943Y-95416771D02*
X136734181Y-95369152D01*
X136734181Y-95369152D02*
X136877038Y-95369152D01*
X136877038Y-95369152D02*
X136972277Y-95416771D01*
X136972277Y-95416771D02*
X137019896Y-95512009D01*
X137019896Y-95512009D02*
X137019896Y-96035819D01*
X137496086Y-96035819D02*
X137496086Y-95369152D01*
X137496086Y-95464390D02*
X137543705Y-95416771D01*
X137543705Y-95416771D02*
X137638943Y-95369152D01*
X137638943Y-95369152D02*
X137781800Y-95369152D01*
X137781800Y-95369152D02*
X137877038Y-95416771D01*
X137877038Y-95416771D02*
X137924657Y-95512009D01*
X137924657Y-95512009D02*
X137924657Y-96035819D01*
X137924657Y-95512009D02*
X137972276Y-95416771D01*
X137972276Y-95416771D02*
X138067514Y-95369152D01*
X138067514Y-95369152D02*
X138210371Y-95369152D01*
X138210371Y-95369152D02*
X138305610Y-95416771D01*
X138305610Y-95416771D02*
X138353229Y-95512009D01*
X138353229Y-95512009D02*
X138353229Y-96035819D01*
D10*
X96113600Y-92905200D02*
X96113600Y-97309620D01*
X171450000Y-92905200D02*
X171450000Y-97309620D01*
X96113600Y-96723200D02*
X171450000Y-96723200D01*
X96113600Y-96723200D02*
X171450000Y-96723200D01*
X96113600Y-96723200D02*
X97240104Y-96136779D01*
X96113600Y-96723200D02*
X97240104Y-97309621D01*
X171450000Y-96723200D02*
X170323496Y-97309621D01*
X171450000Y-96723200D02*
X170323496Y-96136779D01*
M02*
