%TF.GenerationSoftware,KiCad,Pcbnew,7.0.2*%
%TF.CreationDate,2023-08-23T09:20:03+05:30*%
%TF.ProjectId,Power_Supply_12V,506f7765-725f-4537-9570-706c795f3132,rev?*%
%TF.SameCoordinates,Original*%
%TF.FileFunction,Drillmap*%
%TF.FilePolarity,Positive*%
%FSLAX45Y45*%
G04 Gerber Fmt 4.5, Leading zero omitted, Abs format (unit mm)*
G04 Created by KiCad (PCBNEW 7.0.2) date 2023-08-23 09:20:03*
%MOMM*%
%LPD*%
G01*
G04 APERTURE LIST*
%ADD10C,0.100000*%
%ADD11C,0.200000*%
%ADD12C,0.070000*%
%ADD13C,0.090000*%
%ADD14C,0.110000*%
%ADD15C,0.130000*%
G04 APERTURE END LIST*
D10*
X9611360Y-6441440D02*
X17145000Y-6441440D01*
X17145000Y-9240520D01*
X9611360Y-9240520D01*
X9611360Y-6441440D01*
D11*
D12*
X15768880Y-8783880D02*
X15838880Y-8853880D01*
X15838880Y-8783880D02*
X15768880Y-8853880D01*
X15799360Y-6817920D02*
X15869360Y-6887920D01*
X15869360Y-6817920D02*
X15799360Y-6887920D01*
X16276880Y-8783880D02*
X16346880Y-8853880D01*
X16346880Y-8783880D02*
X16276880Y-8853880D01*
X16307360Y-6817920D02*
X16377360Y-6887920D01*
X16377360Y-6817920D02*
X16307360Y-6887920D01*
D13*
X16656600Y-6766560D02*
G75*
G03*
X16656600Y-6766560I-45000J0D01*
G01*
X16692160Y-8910320D02*
G75*
G03*
X16692160Y-8910320I-45000J0D01*
G01*
X16910600Y-6766560D02*
G75*
G03*
X16910600Y-6766560I-45000J0D01*
G01*
X16946160Y-8910320D02*
G75*
G03*
X16946160Y-8910320I-45000J0D01*
G01*
D10*
X12655208Y-8459000D02*
X12655208Y-8559000D01*
X12605208Y-8509000D02*
X12705208Y-8509000D01*
X12656272Y-7199160D02*
X12656272Y-7299160D01*
X12606272Y-7249160D02*
X12706272Y-7249160D01*
X13155208Y-8459000D02*
X13155208Y-8559000D01*
X13105208Y-8509000D02*
X13205208Y-8509000D01*
X13156272Y-7199160D02*
X13156272Y-7299160D01*
X13106272Y-7249160D02*
X13206272Y-7249160D01*
X14932112Y-7260120D02*
X14932112Y-7360120D01*
X14882112Y-7310120D02*
X14982112Y-7310120D01*
X14962592Y-8459000D02*
X14962592Y-8559000D01*
X14912592Y-8509000D02*
X15012592Y-8509000D01*
X15432112Y-7260120D02*
X15432112Y-7360120D01*
X15382112Y-7310120D02*
X15482112Y-7310120D01*
X15462592Y-8459000D02*
X15462592Y-8559000D01*
X15412592Y-8509000D02*
X15512592Y-8509000D01*
D14*
X11103131Y-7140731D02*
X11103131Y-7062949D01*
X11025349Y-7062949D01*
X11025349Y-7140731D01*
X11103131Y-7140731D01*
X11103131Y-7648731D02*
X11103131Y-7570949D01*
X11025349Y-7570949D01*
X11025349Y-7648731D01*
X11103131Y-7648731D01*
X11113291Y-8136411D02*
X11113291Y-8058629D01*
X11035509Y-8058629D01*
X11035509Y-8136411D01*
X11113291Y-8136411D01*
X11118371Y-8603771D02*
X11118371Y-8525989D01*
X11040589Y-8525989D01*
X11040589Y-8603771D01*
X11118371Y-8603771D01*
X12119131Y-7140731D02*
X12119131Y-7062949D01*
X12041349Y-7062949D01*
X12041349Y-7140731D01*
X12119131Y-7140731D01*
X12119131Y-7648731D02*
X12119131Y-7570949D01*
X12041349Y-7570949D01*
X12041349Y-7648731D01*
X12119131Y-7648731D01*
X12129291Y-8136411D02*
X12129291Y-8058629D01*
X12051509Y-8058629D01*
X12051509Y-8136411D01*
X12129291Y-8136411D01*
X12134371Y-8603771D02*
X12134371Y-8525989D01*
X12056589Y-8525989D01*
X12056589Y-8603771D01*
X12134371Y-8603771D01*
X13841251Y-6978171D02*
X13841251Y-6900389D01*
X13763469Y-6900389D01*
X13763469Y-6978171D01*
X13841251Y-6978171D01*
X13871731Y-8822211D02*
X13871731Y-8744429D01*
X13793949Y-8744429D01*
X13793949Y-8822211D01*
X13871731Y-8822211D01*
X14095251Y-6978171D02*
X14095251Y-6900389D01*
X14017469Y-6900389D01*
X14017469Y-6978171D01*
X14095251Y-6978171D01*
X14125731Y-8822211D02*
X14125731Y-8744429D01*
X14047949Y-8744429D01*
X14047949Y-8822211D01*
X14125731Y-8822211D01*
X14349251Y-6978171D02*
X14349251Y-6900389D01*
X14271469Y-6900389D01*
X14271469Y-6978171D01*
X14349251Y-6978171D01*
X14379731Y-8822211D02*
X14379731Y-8744429D01*
X14301949Y-8744429D01*
X14301949Y-8822211D01*
X14379731Y-8822211D01*
D15*
X10215880Y-7339560D02*
X10280880Y-7274560D01*
X10215880Y-7209560D01*
X10150880Y-7274560D01*
X10215880Y-7339560D01*
X10215880Y-7847560D02*
X10280880Y-7782560D01*
X10215880Y-7717560D01*
X10150880Y-7782560D01*
X10215880Y-7847560D01*
X10215880Y-8355560D02*
X10280880Y-8290560D01*
X10215880Y-8225560D01*
X10150880Y-8290560D01*
X10215880Y-8355560D01*
X16510000Y-7415760D02*
X16575000Y-7350760D01*
X16510000Y-7285760D01*
X16445000Y-7350760D01*
X16510000Y-7415760D01*
X16510000Y-7923760D02*
X16575000Y-7858760D01*
X16510000Y-7793760D01*
X16445000Y-7858760D01*
X16510000Y-7923760D01*
X16510000Y-8431760D02*
X16575000Y-8366760D01*
X16510000Y-8301760D01*
X16445000Y-8366760D01*
X16510000Y-8431760D01*
D11*
X9853979Y-9558044D02*
X9853979Y-9358044D01*
X9853979Y-9358044D02*
X9901598Y-9358044D01*
X9901598Y-9358044D02*
X9930170Y-9367568D01*
X9930170Y-9367568D02*
X9949217Y-9386615D01*
X9949217Y-9386615D02*
X9958741Y-9405663D01*
X9958741Y-9405663D02*
X9968265Y-9443758D01*
X9968265Y-9443758D02*
X9968265Y-9472330D01*
X9968265Y-9472330D02*
X9958741Y-9510425D01*
X9958741Y-9510425D02*
X9949217Y-9529472D01*
X9949217Y-9529472D02*
X9930170Y-9548520D01*
X9930170Y-9548520D02*
X9901598Y-9558044D01*
X9901598Y-9558044D02*
X9853979Y-9558044D01*
X10053979Y-9558044D02*
X10053979Y-9424710D01*
X10053979Y-9462806D02*
X10063503Y-9443758D01*
X10063503Y-9443758D02*
X10073027Y-9434234D01*
X10073027Y-9434234D02*
X10092074Y-9424710D01*
X10092074Y-9424710D02*
X10111122Y-9424710D01*
X10177789Y-9558044D02*
X10177789Y-9424710D01*
X10177789Y-9358044D02*
X10168265Y-9367568D01*
X10168265Y-9367568D02*
X10177789Y-9377091D01*
X10177789Y-9377091D02*
X10187312Y-9367568D01*
X10187312Y-9367568D02*
X10177789Y-9358044D01*
X10177789Y-9358044D02*
X10177789Y-9377091D01*
X10301598Y-9558044D02*
X10282550Y-9548520D01*
X10282550Y-9548520D02*
X10273027Y-9529472D01*
X10273027Y-9529472D02*
X10273027Y-9358044D01*
X10406360Y-9558044D02*
X10387312Y-9548520D01*
X10387312Y-9548520D02*
X10377789Y-9529472D01*
X10377789Y-9529472D02*
X10377789Y-9358044D01*
X10634931Y-9558044D02*
X10634931Y-9358044D01*
X10634931Y-9358044D02*
X10701598Y-9500901D01*
X10701598Y-9500901D02*
X10768265Y-9358044D01*
X10768265Y-9358044D02*
X10768265Y-9558044D01*
X10949217Y-9558044D02*
X10949217Y-9453282D01*
X10949217Y-9453282D02*
X10939693Y-9434234D01*
X10939693Y-9434234D02*
X10920646Y-9424710D01*
X10920646Y-9424710D02*
X10882550Y-9424710D01*
X10882550Y-9424710D02*
X10863503Y-9434234D01*
X10949217Y-9548520D02*
X10930170Y-9558044D01*
X10930170Y-9558044D02*
X10882550Y-9558044D01*
X10882550Y-9558044D02*
X10863503Y-9548520D01*
X10863503Y-9548520D02*
X10853979Y-9529472D01*
X10853979Y-9529472D02*
X10853979Y-9510425D01*
X10853979Y-9510425D02*
X10863503Y-9491377D01*
X10863503Y-9491377D02*
X10882550Y-9481853D01*
X10882550Y-9481853D02*
X10930170Y-9481853D01*
X10930170Y-9481853D02*
X10949217Y-9472330D01*
X11044455Y-9424710D02*
X11044455Y-9624710D01*
X11044455Y-9434234D02*
X11063503Y-9424710D01*
X11063503Y-9424710D02*
X11101598Y-9424710D01*
X11101598Y-9424710D02*
X11120646Y-9434234D01*
X11120646Y-9434234D02*
X11130170Y-9443758D01*
X11130170Y-9443758D02*
X11139693Y-9462806D01*
X11139693Y-9462806D02*
X11139693Y-9519949D01*
X11139693Y-9519949D02*
X11130170Y-9538996D01*
X11130170Y-9538996D02*
X11120646Y-9548520D01*
X11120646Y-9548520D02*
X11101598Y-9558044D01*
X11101598Y-9558044D02*
X11063503Y-9558044D01*
X11063503Y-9558044D02*
X11044455Y-9548520D01*
X11225408Y-9538996D02*
X11234931Y-9548520D01*
X11234931Y-9548520D02*
X11225408Y-9558044D01*
X11225408Y-9558044D02*
X11215884Y-9548520D01*
X11215884Y-9548520D02*
X11225408Y-9538996D01*
X11225408Y-9538996D02*
X11225408Y-9558044D01*
X11225408Y-9434234D02*
X11234931Y-9443758D01*
X11234931Y-9443758D02*
X11225408Y-9453282D01*
X11225408Y-9453282D02*
X11215884Y-9443758D01*
X11215884Y-9443758D02*
X11225408Y-9434234D01*
X11225408Y-9434234D02*
X11225408Y-9453282D01*
D12*
X9536360Y-9850520D02*
X9606360Y-9920520D01*
X9606360Y-9850520D02*
X9536360Y-9920520D01*
D11*
X9892074Y-9778044D02*
X9911122Y-9778044D01*
X9911122Y-9778044D02*
X9930170Y-9787568D01*
X9930170Y-9787568D02*
X9939693Y-9797091D01*
X9939693Y-9797091D02*
X9949217Y-9816139D01*
X9949217Y-9816139D02*
X9958741Y-9854234D01*
X9958741Y-9854234D02*
X9958741Y-9901853D01*
X9958741Y-9901853D02*
X9949217Y-9939949D01*
X9949217Y-9939949D02*
X9939693Y-9958996D01*
X9939693Y-9958996D02*
X9930170Y-9968520D01*
X9930170Y-9968520D02*
X9911122Y-9978044D01*
X9911122Y-9978044D02*
X9892074Y-9978044D01*
X9892074Y-9978044D02*
X9873027Y-9968520D01*
X9873027Y-9968520D02*
X9863503Y-9958996D01*
X9863503Y-9958996D02*
X9853979Y-9939949D01*
X9853979Y-9939949D02*
X9844455Y-9901853D01*
X9844455Y-9901853D02*
X9844455Y-9854234D01*
X9844455Y-9854234D02*
X9853979Y-9816139D01*
X9853979Y-9816139D02*
X9863503Y-9797091D01*
X9863503Y-9797091D02*
X9873027Y-9787568D01*
X9873027Y-9787568D02*
X9892074Y-9778044D01*
X10044455Y-9958996D02*
X10053979Y-9968520D01*
X10053979Y-9968520D02*
X10044455Y-9978044D01*
X10044455Y-9978044D02*
X10034931Y-9968520D01*
X10034931Y-9968520D02*
X10044455Y-9958996D01*
X10044455Y-9958996D02*
X10044455Y-9978044D01*
X10120646Y-9778044D02*
X10253979Y-9778044D01*
X10253979Y-9778044D02*
X10168265Y-9978044D01*
X10368265Y-9778044D02*
X10387312Y-9778044D01*
X10387312Y-9778044D02*
X10406360Y-9787568D01*
X10406360Y-9787568D02*
X10415884Y-9797091D01*
X10415884Y-9797091D02*
X10425408Y-9816139D01*
X10425408Y-9816139D02*
X10434931Y-9854234D01*
X10434931Y-9854234D02*
X10434931Y-9901853D01*
X10434931Y-9901853D02*
X10425408Y-9939949D01*
X10425408Y-9939949D02*
X10415884Y-9958996D01*
X10415884Y-9958996D02*
X10406360Y-9968520D01*
X10406360Y-9968520D02*
X10387312Y-9978044D01*
X10387312Y-9978044D02*
X10368265Y-9978044D01*
X10368265Y-9978044D02*
X10349217Y-9968520D01*
X10349217Y-9968520D02*
X10339693Y-9958996D01*
X10339693Y-9958996D02*
X10330170Y-9939949D01*
X10330170Y-9939949D02*
X10320646Y-9901853D01*
X10320646Y-9901853D02*
X10320646Y-9854234D01*
X10320646Y-9854234D02*
X10330170Y-9816139D01*
X10330170Y-9816139D02*
X10339693Y-9797091D01*
X10339693Y-9797091D02*
X10349217Y-9787568D01*
X10349217Y-9787568D02*
X10368265Y-9778044D01*
X10558741Y-9778044D02*
X10577789Y-9778044D01*
X10577789Y-9778044D02*
X10596836Y-9787568D01*
X10596836Y-9787568D02*
X10606360Y-9797091D01*
X10606360Y-9797091D02*
X10615884Y-9816139D01*
X10615884Y-9816139D02*
X10625408Y-9854234D01*
X10625408Y-9854234D02*
X10625408Y-9901853D01*
X10625408Y-9901853D02*
X10615884Y-9939949D01*
X10615884Y-9939949D02*
X10606360Y-9958996D01*
X10606360Y-9958996D02*
X10596836Y-9968520D01*
X10596836Y-9968520D02*
X10577789Y-9978044D01*
X10577789Y-9978044D02*
X10558741Y-9978044D01*
X10558741Y-9978044D02*
X10539693Y-9968520D01*
X10539693Y-9968520D02*
X10530170Y-9958996D01*
X10530170Y-9958996D02*
X10520646Y-9939949D01*
X10520646Y-9939949D02*
X10511122Y-9901853D01*
X10511122Y-9901853D02*
X10511122Y-9854234D01*
X10511122Y-9854234D02*
X10520646Y-9816139D01*
X10520646Y-9816139D02*
X10530170Y-9797091D01*
X10530170Y-9797091D02*
X10539693Y-9787568D01*
X10539693Y-9787568D02*
X10558741Y-9778044D01*
X10711122Y-9978044D02*
X10711122Y-9844710D01*
X10711122Y-9863758D02*
X10720646Y-9854234D01*
X10720646Y-9854234D02*
X10739693Y-9844710D01*
X10739693Y-9844710D02*
X10768265Y-9844710D01*
X10768265Y-9844710D02*
X10787312Y-9854234D01*
X10787312Y-9854234D02*
X10796836Y-9873282D01*
X10796836Y-9873282D02*
X10796836Y-9978044D01*
X10796836Y-9873282D02*
X10806360Y-9854234D01*
X10806360Y-9854234D02*
X10825408Y-9844710D01*
X10825408Y-9844710D02*
X10853979Y-9844710D01*
X10853979Y-9844710D02*
X10873027Y-9854234D01*
X10873027Y-9854234D02*
X10882551Y-9873282D01*
X10882551Y-9873282D02*
X10882551Y-9978044D01*
X10977789Y-9978044D02*
X10977789Y-9844710D01*
X10977789Y-9863758D02*
X10987312Y-9854234D01*
X10987312Y-9854234D02*
X11006360Y-9844710D01*
X11006360Y-9844710D02*
X11034932Y-9844710D01*
X11034932Y-9844710D02*
X11053979Y-9854234D01*
X11053979Y-9854234D02*
X11063503Y-9873282D01*
X11063503Y-9873282D02*
X11063503Y-9978044D01*
X11063503Y-9873282D02*
X11073027Y-9854234D01*
X11073027Y-9854234D02*
X11092074Y-9844710D01*
X11092074Y-9844710D02*
X11120646Y-9844710D01*
X11120646Y-9844710D02*
X11139693Y-9854234D01*
X11139693Y-9854234D02*
X11149217Y-9873282D01*
X11149217Y-9873282D02*
X11149217Y-9978044D01*
X11539693Y-9768520D02*
X11368265Y-10025663D01*
X11796836Y-9778044D02*
X11815884Y-9778044D01*
X11815884Y-9778044D02*
X11834932Y-9787568D01*
X11834932Y-9787568D02*
X11844455Y-9797091D01*
X11844455Y-9797091D02*
X11853979Y-9816139D01*
X11853979Y-9816139D02*
X11863503Y-9854234D01*
X11863503Y-9854234D02*
X11863503Y-9901853D01*
X11863503Y-9901853D02*
X11853979Y-9939949D01*
X11853979Y-9939949D02*
X11844455Y-9958996D01*
X11844455Y-9958996D02*
X11834932Y-9968520D01*
X11834932Y-9968520D02*
X11815884Y-9978044D01*
X11815884Y-9978044D02*
X11796836Y-9978044D01*
X11796836Y-9978044D02*
X11777789Y-9968520D01*
X11777789Y-9968520D02*
X11768265Y-9958996D01*
X11768265Y-9958996D02*
X11758741Y-9939949D01*
X11758741Y-9939949D02*
X11749217Y-9901853D01*
X11749217Y-9901853D02*
X11749217Y-9854234D01*
X11749217Y-9854234D02*
X11758741Y-9816139D01*
X11758741Y-9816139D02*
X11768265Y-9797091D01*
X11768265Y-9797091D02*
X11777789Y-9787568D01*
X11777789Y-9787568D02*
X11796836Y-9778044D01*
X11949217Y-9958996D02*
X11958741Y-9968520D01*
X11958741Y-9968520D02*
X11949217Y-9978044D01*
X11949217Y-9978044D02*
X11939693Y-9968520D01*
X11939693Y-9968520D02*
X11949217Y-9958996D01*
X11949217Y-9958996D02*
X11949217Y-9978044D01*
X12082551Y-9778044D02*
X12101598Y-9778044D01*
X12101598Y-9778044D02*
X12120646Y-9787568D01*
X12120646Y-9787568D02*
X12130170Y-9797091D01*
X12130170Y-9797091D02*
X12139693Y-9816139D01*
X12139693Y-9816139D02*
X12149217Y-9854234D01*
X12149217Y-9854234D02*
X12149217Y-9901853D01*
X12149217Y-9901853D02*
X12139693Y-9939949D01*
X12139693Y-9939949D02*
X12130170Y-9958996D01*
X12130170Y-9958996D02*
X12120646Y-9968520D01*
X12120646Y-9968520D02*
X12101598Y-9978044D01*
X12101598Y-9978044D02*
X12082551Y-9978044D01*
X12082551Y-9978044D02*
X12063503Y-9968520D01*
X12063503Y-9968520D02*
X12053979Y-9958996D01*
X12053979Y-9958996D02*
X12044455Y-9939949D01*
X12044455Y-9939949D02*
X12034932Y-9901853D01*
X12034932Y-9901853D02*
X12034932Y-9854234D01*
X12034932Y-9854234D02*
X12044455Y-9816139D01*
X12044455Y-9816139D02*
X12053979Y-9797091D01*
X12053979Y-9797091D02*
X12063503Y-9787568D01*
X12063503Y-9787568D02*
X12082551Y-9778044D01*
X12225408Y-9797091D02*
X12234932Y-9787568D01*
X12234932Y-9787568D02*
X12253979Y-9778044D01*
X12253979Y-9778044D02*
X12301598Y-9778044D01*
X12301598Y-9778044D02*
X12320646Y-9787568D01*
X12320646Y-9787568D02*
X12330170Y-9797091D01*
X12330170Y-9797091D02*
X12339693Y-9816139D01*
X12339693Y-9816139D02*
X12339693Y-9835187D01*
X12339693Y-9835187D02*
X12330170Y-9863758D01*
X12330170Y-9863758D02*
X12215884Y-9978044D01*
X12215884Y-9978044D02*
X12339693Y-9978044D01*
X12406360Y-9778044D02*
X12539693Y-9778044D01*
X12539693Y-9778044D02*
X12453979Y-9978044D01*
X12701598Y-9778044D02*
X12663503Y-9778044D01*
X12663503Y-9778044D02*
X12644455Y-9787568D01*
X12644455Y-9787568D02*
X12634932Y-9797091D01*
X12634932Y-9797091D02*
X12615884Y-9825663D01*
X12615884Y-9825663D02*
X12606360Y-9863758D01*
X12606360Y-9863758D02*
X12606360Y-9939949D01*
X12606360Y-9939949D02*
X12615884Y-9958996D01*
X12615884Y-9958996D02*
X12625408Y-9968520D01*
X12625408Y-9968520D02*
X12644455Y-9978044D01*
X12644455Y-9978044D02*
X12682551Y-9978044D01*
X12682551Y-9978044D02*
X12701598Y-9968520D01*
X12701598Y-9968520D02*
X12711122Y-9958996D01*
X12711122Y-9958996D02*
X12720646Y-9939949D01*
X12720646Y-9939949D02*
X12720646Y-9892330D01*
X12720646Y-9892330D02*
X12711122Y-9873282D01*
X12711122Y-9873282D02*
X12701598Y-9863758D01*
X12701598Y-9863758D02*
X12682551Y-9854234D01*
X12682551Y-9854234D02*
X12644455Y-9854234D01*
X12644455Y-9854234D02*
X12625408Y-9863758D01*
X12625408Y-9863758D02*
X12615884Y-9873282D01*
X12615884Y-9873282D02*
X12606360Y-9892330D01*
X12796836Y-9778044D02*
X12796836Y-9816139D01*
X12873027Y-9778044D02*
X12873027Y-9816139D01*
X13168265Y-10054234D02*
X13158741Y-10044710D01*
X13158741Y-10044710D02*
X13139694Y-10016139D01*
X13139694Y-10016139D02*
X13130170Y-9997091D01*
X13130170Y-9997091D02*
X13120646Y-9968520D01*
X13120646Y-9968520D02*
X13111122Y-9920901D01*
X13111122Y-9920901D02*
X13111122Y-9882806D01*
X13111122Y-9882806D02*
X13120646Y-9835187D01*
X13120646Y-9835187D02*
X13130170Y-9806615D01*
X13130170Y-9806615D02*
X13139694Y-9787568D01*
X13139694Y-9787568D02*
X13158741Y-9758996D01*
X13158741Y-9758996D02*
X13168265Y-9749472D01*
X13330170Y-9844710D02*
X13330170Y-9978044D01*
X13282551Y-9768520D02*
X13234932Y-9911377D01*
X13234932Y-9911377D02*
X13358741Y-9911377D01*
X13587313Y-9978044D02*
X13587313Y-9778044D01*
X13673027Y-9978044D02*
X13673027Y-9873282D01*
X13673027Y-9873282D02*
X13663503Y-9854234D01*
X13663503Y-9854234D02*
X13644456Y-9844710D01*
X13644456Y-9844710D02*
X13615884Y-9844710D01*
X13615884Y-9844710D02*
X13596836Y-9854234D01*
X13596836Y-9854234D02*
X13587313Y-9863758D01*
X13796836Y-9978044D02*
X13777789Y-9968520D01*
X13777789Y-9968520D02*
X13768265Y-9958996D01*
X13768265Y-9958996D02*
X13758741Y-9939949D01*
X13758741Y-9939949D02*
X13758741Y-9882806D01*
X13758741Y-9882806D02*
X13768265Y-9863758D01*
X13768265Y-9863758D02*
X13777789Y-9854234D01*
X13777789Y-9854234D02*
X13796836Y-9844710D01*
X13796836Y-9844710D02*
X13825408Y-9844710D01*
X13825408Y-9844710D02*
X13844456Y-9854234D01*
X13844456Y-9854234D02*
X13853979Y-9863758D01*
X13853979Y-9863758D02*
X13863503Y-9882806D01*
X13863503Y-9882806D02*
X13863503Y-9939949D01*
X13863503Y-9939949D02*
X13853979Y-9958996D01*
X13853979Y-9958996D02*
X13844456Y-9968520D01*
X13844456Y-9968520D02*
X13825408Y-9978044D01*
X13825408Y-9978044D02*
X13796836Y-9978044D01*
X13977789Y-9978044D02*
X13958741Y-9968520D01*
X13958741Y-9968520D02*
X13949217Y-9949472D01*
X13949217Y-9949472D02*
X13949217Y-9778044D01*
X14130170Y-9968520D02*
X14111122Y-9978044D01*
X14111122Y-9978044D02*
X14073027Y-9978044D01*
X14073027Y-9978044D02*
X14053979Y-9968520D01*
X14053979Y-9968520D02*
X14044456Y-9949472D01*
X14044456Y-9949472D02*
X14044456Y-9873282D01*
X14044456Y-9873282D02*
X14053979Y-9854234D01*
X14053979Y-9854234D02*
X14073027Y-9844710D01*
X14073027Y-9844710D02*
X14111122Y-9844710D01*
X14111122Y-9844710D02*
X14130170Y-9854234D01*
X14130170Y-9854234D02*
X14139694Y-9873282D01*
X14139694Y-9873282D02*
X14139694Y-9892330D01*
X14139694Y-9892330D02*
X14044456Y-9911377D01*
X14215884Y-9968520D02*
X14234932Y-9978044D01*
X14234932Y-9978044D02*
X14273027Y-9978044D01*
X14273027Y-9978044D02*
X14292075Y-9968520D01*
X14292075Y-9968520D02*
X14301598Y-9949472D01*
X14301598Y-9949472D02*
X14301598Y-9939949D01*
X14301598Y-9939949D02*
X14292075Y-9920901D01*
X14292075Y-9920901D02*
X14273027Y-9911377D01*
X14273027Y-9911377D02*
X14244456Y-9911377D01*
X14244456Y-9911377D02*
X14225408Y-9901853D01*
X14225408Y-9901853D02*
X14215884Y-9882806D01*
X14215884Y-9882806D02*
X14215884Y-9873282D01*
X14215884Y-9873282D02*
X14225408Y-9854234D01*
X14225408Y-9854234D02*
X14244456Y-9844710D01*
X14244456Y-9844710D02*
X14273027Y-9844710D01*
X14273027Y-9844710D02*
X14292075Y-9854234D01*
X14368265Y-10054234D02*
X14377789Y-10044710D01*
X14377789Y-10044710D02*
X14396837Y-10016139D01*
X14396837Y-10016139D02*
X14406360Y-9997091D01*
X14406360Y-9997091D02*
X14415884Y-9968520D01*
X14415884Y-9968520D02*
X14425408Y-9920901D01*
X14425408Y-9920901D02*
X14425408Y-9882806D01*
X14425408Y-9882806D02*
X14415884Y-9835187D01*
X14415884Y-9835187D02*
X14406360Y-9806615D01*
X14406360Y-9806615D02*
X14396837Y-9787568D01*
X14396837Y-9787568D02*
X14377789Y-9758996D01*
X14377789Y-9758996D02*
X14368265Y-9749472D01*
D13*
X9606360Y-10149520D02*
G75*
G03*
X9606360Y-10149520I-45000J0D01*
G01*
D11*
X9892074Y-10042044D02*
X9911122Y-10042044D01*
X9911122Y-10042044D02*
X9930170Y-10051568D01*
X9930170Y-10051568D02*
X9939693Y-10061091D01*
X9939693Y-10061091D02*
X9949217Y-10080139D01*
X9949217Y-10080139D02*
X9958741Y-10118234D01*
X9958741Y-10118234D02*
X9958741Y-10165853D01*
X9958741Y-10165853D02*
X9949217Y-10203949D01*
X9949217Y-10203949D02*
X9939693Y-10222996D01*
X9939693Y-10222996D02*
X9930170Y-10232520D01*
X9930170Y-10232520D02*
X9911122Y-10242044D01*
X9911122Y-10242044D02*
X9892074Y-10242044D01*
X9892074Y-10242044D02*
X9873027Y-10232520D01*
X9873027Y-10232520D02*
X9863503Y-10222996D01*
X9863503Y-10222996D02*
X9853979Y-10203949D01*
X9853979Y-10203949D02*
X9844455Y-10165853D01*
X9844455Y-10165853D02*
X9844455Y-10118234D01*
X9844455Y-10118234D02*
X9853979Y-10080139D01*
X9853979Y-10080139D02*
X9863503Y-10061091D01*
X9863503Y-10061091D02*
X9873027Y-10051568D01*
X9873027Y-10051568D02*
X9892074Y-10042044D01*
X10044455Y-10222996D02*
X10053979Y-10232520D01*
X10053979Y-10232520D02*
X10044455Y-10242044D01*
X10044455Y-10242044D02*
X10034931Y-10232520D01*
X10034931Y-10232520D02*
X10044455Y-10222996D01*
X10044455Y-10222996D02*
X10044455Y-10242044D01*
X10149217Y-10242044D02*
X10187312Y-10242044D01*
X10187312Y-10242044D02*
X10206360Y-10232520D01*
X10206360Y-10232520D02*
X10215884Y-10222996D01*
X10215884Y-10222996D02*
X10234931Y-10194425D01*
X10234931Y-10194425D02*
X10244455Y-10156330D01*
X10244455Y-10156330D02*
X10244455Y-10080139D01*
X10244455Y-10080139D02*
X10234931Y-10061091D01*
X10234931Y-10061091D02*
X10225408Y-10051568D01*
X10225408Y-10051568D02*
X10206360Y-10042044D01*
X10206360Y-10042044D02*
X10168265Y-10042044D01*
X10168265Y-10042044D02*
X10149217Y-10051568D01*
X10149217Y-10051568D02*
X10139693Y-10061091D01*
X10139693Y-10061091D02*
X10130170Y-10080139D01*
X10130170Y-10080139D02*
X10130170Y-10127758D01*
X10130170Y-10127758D02*
X10139693Y-10146806D01*
X10139693Y-10146806D02*
X10149217Y-10156330D01*
X10149217Y-10156330D02*
X10168265Y-10165853D01*
X10168265Y-10165853D02*
X10206360Y-10165853D01*
X10206360Y-10165853D02*
X10225408Y-10156330D01*
X10225408Y-10156330D02*
X10234931Y-10146806D01*
X10234931Y-10146806D02*
X10244455Y-10127758D01*
X10368265Y-10042044D02*
X10387312Y-10042044D01*
X10387312Y-10042044D02*
X10406360Y-10051568D01*
X10406360Y-10051568D02*
X10415884Y-10061091D01*
X10415884Y-10061091D02*
X10425408Y-10080139D01*
X10425408Y-10080139D02*
X10434931Y-10118234D01*
X10434931Y-10118234D02*
X10434931Y-10165853D01*
X10434931Y-10165853D02*
X10425408Y-10203949D01*
X10425408Y-10203949D02*
X10415884Y-10222996D01*
X10415884Y-10222996D02*
X10406360Y-10232520D01*
X10406360Y-10232520D02*
X10387312Y-10242044D01*
X10387312Y-10242044D02*
X10368265Y-10242044D01*
X10368265Y-10242044D02*
X10349217Y-10232520D01*
X10349217Y-10232520D02*
X10339693Y-10222996D01*
X10339693Y-10222996D02*
X10330170Y-10203949D01*
X10330170Y-10203949D02*
X10320646Y-10165853D01*
X10320646Y-10165853D02*
X10320646Y-10118234D01*
X10320646Y-10118234D02*
X10330170Y-10080139D01*
X10330170Y-10080139D02*
X10339693Y-10061091D01*
X10339693Y-10061091D02*
X10349217Y-10051568D01*
X10349217Y-10051568D02*
X10368265Y-10042044D01*
X10558741Y-10042044D02*
X10577789Y-10042044D01*
X10577789Y-10042044D02*
X10596836Y-10051568D01*
X10596836Y-10051568D02*
X10606360Y-10061091D01*
X10606360Y-10061091D02*
X10615884Y-10080139D01*
X10615884Y-10080139D02*
X10625408Y-10118234D01*
X10625408Y-10118234D02*
X10625408Y-10165853D01*
X10625408Y-10165853D02*
X10615884Y-10203949D01*
X10615884Y-10203949D02*
X10606360Y-10222996D01*
X10606360Y-10222996D02*
X10596836Y-10232520D01*
X10596836Y-10232520D02*
X10577789Y-10242044D01*
X10577789Y-10242044D02*
X10558741Y-10242044D01*
X10558741Y-10242044D02*
X10539693Y-10232520D01*
X10539693Y-10232520D02*
X10530170Y-10222996D01*
X10530170Y-10222996D02*
X10520646Y-10203949D01*
X10520646Y-10203949D02*
X10511122Y-10165853D01*
X10511122Y-10165853D02*
X10511122Y-10118234D01*
X10511122Y-10118234D02*
X10520646Y-10080139D01*
X10520646Y-10080139D02*
X10530170Y-10061091D01*
X10530170Y-10061091D02*
X10539693Y-10051568D01*
X10539693Y-10051568D02*
X10558741Y-10042044D01*
X10711122Y-10242044D02*
X10711122Y-10108710D01*
X10711122Y-10127758D02*
X10720646Y-10118234D01*
X10720646Y-10118234D02*
X10739693Y-10108710D01*
X10739693Y-10108710D02*
X10768265Y-10108710D01*
X10768265Y-10108710D02*
X10787312Y-10118234D01*
X10787312Y-10118234D02*
X10796836Y-10137282D01*
X10796836Y-10137282D02*
X10796836Y-10242044D01*
X10796836Y-10137282D02*
X10806360Y-10118234D01*
X10806360Y-10118234D02*
X10825408Y-10108710D01*
X10825408Y-10108710D02*
X10853979Y-10108710D01*
X10853979Y-10108710D02*
X10873027Y-10118234D01*
X10873027Y-10118234D02*
X10882551Y-10137282D01*
X10882551Y-10137282D02*
X10882551Y-10242044D01*
X10977789Y-10242044D02*
X10977789Y-10108710D01*
X10977789Y-10127758D02*
X10987312Y-10118234D01*
X10987312Y-10118234D02*
X11006360Y-10108710D01*
X11006360Y-10108710D02*
X11034932Y-10108710D01*
X11034932Y-10108710D02*
X11053979Y-10118234D01*
X11053979Y-10118234D02*
X11063503Y-10137282D01*
X11063503Y-10137282D02*
X11063503Y-10242044D01*
X11063503Y-10137282D02*
X11073027Y-10118234D01*
X11073027Y-10118234D02*
X11092074Y-10108710D01*
X11092074Y-10108710D02*
X11120646Y-10108710D01*
X11120646Y-10108710D02*
X11139693Y-10118234D01*
X11139693Y-10118234D02*
X11149217Y-10137282D01*
X11149217Y-10137282D02*
X11149217Y-10242044D01*
X11539693Y-10032520D02*
X11368265Y-10289663D01*
X11796836Y-10042044D02*
X11815884Y-10042044D01*
X11815884Y-10042044D02*
X11834932Y-10051568D01*
X11834932Y-10051568D02*
X11844455Y-10061091D01*
X11844455Y-10061091D02*
X11853979Y-10080139D01*
X11853979Y-10080139D02*
X11863503Y-10118234D01*
X11863503Y-10118234D02*
X11863503Y-10165853D01*
X11863503Y-10165853D02*
X11853979Y-10203949D01*
X11853979Y-10203949D02*
X11844455Y-10222996D01*
X11844455Y-10222996D02*
X11834932Y-10232520D01*
X11834932Y-10232520D02*
X11815884Y-10242044D01*
X11815884Y-10242044D02*
X11796836Y-10242044D01*
X11796836Y-10242044D02*
X11777789Y-10232520D01*
X11777789Y-10232520D02*
X11768265Y-10222996D01*
X11768265Y-10222996D02*
X11758741Y-10203949D01*
X11758741Y-10203949D02*
X11749217Y-10165853D01*
X11749217Y-10165853D02*
X11749217Y-10118234D01*
X11749217Y-10118234D02*
X11758741Y-10080139D01*
X11758741Y-10080139D02*
X11768265Y-10061091D01*
X11768265Y-10061091D02*
X11777789Y-10051568D01*
X11777789Y-10051568D02*
X11796836Y-10042044D01*
X11949217Y-10222996D02*
X11958741Y-10232520D01*
X11958741Y-10232520D02*
X11949217Y-10242044D01*
X11949217Y-10242044D02*
X11939693Y-10232520D01*
X11939693Y-10232520D02*
X11949217Y-10222996D01*
X11949217Y-10222996D02*
X11949217Y-10242044D01*
X12082551Y-10042044D02*
X12101598Y-10042044D01*
X12101598Y-10042044D02*
X12120646Y-10051568D01*
X12120646Y-10051568D02*
X12130170Y-10061091D01*
X12130170Y-10061091D02*
X12139693Y-10080139D01*
X12139693Y-10080139D02*
X12149217Y-10118234D01*
X12149217Y-10118234D02*
X12149217Y-10165853D01*
X12149217Y-10165853D02*
X12139693Y-10203949D01*
X12139693Y-10203949D02*
X12130170Y-10222996D01*
X12130170Y-10222996D02*
X12120646Y-10232520D01*
X12120646Y-10232520D02*
X12101598Y-10242044D01*
X12101598Y-10242044D02*
X12082551Y-10242044D01*
X12082551Y-10242044D02*
X12063503Y-10232520D01*
X12063503Y-10232520D02*
X12053979Y-10222996D01*
X12053979Y-10222996D02*
X12044455Y-10203949D01*
X12044455Y-10203949D02*
X12034932Y-10165853D01*
X12034932Y-10165853D02*
X12034932Y-10118234D01*
X12034932Y-10118234D02*
X12044455Y-10080139D01*
X12044455Y-10080139D02*
X12053979Y-10061091D01*
X12053979Y-10061091D02*
X12063503Y-10051568D01*
X12063503Y-10051568D02*
X12082551Y-10042044D01*
X12215884Y-10042044D02*
X12339693Y-10042044D01*
X12339693Y-10042044D02*
X12273027Y-10118234D01*
X12273027Y-10118234D02*
X12301598Y-10118234D01*
X12301598Y-10118234D02*
X12320646Y-10127758D01*
X12320646Y-10127758D02*
X12330170Y-10137282D01*
X12330170Y-10137282D02*
X12339693Y-10156330D01*
X12339693Y-10156330D02*
X12339693Y-10203949D01*
X12339693Y-10203949D02*
X12330170Y-10222996D01*
X12330170Y-10222996D02*
X12320646Y-10232520D01*
X12320646Y-10232520D02*
X12301598Y-10242044D01*
X12301598Y-10242044D02*
X12244455Y-10242044D01*
X12244455Y-10242044D02*
X12225408Y-10232520D01*
X12225408Y-10232520D02*
X12215884Y-10222996D01*
X12520646Y-10042044D02*
X12425408Y-10042044D01*
X12425408Y-10042044D02*
X12415884Y-10137282D01*
X12415884Y-10137282D02*
X12425408Y-10127758D01*
X12425408Y-10127758D02*
X12444455Y-10118234D01*
X12444455Y-10118234D02*
X12492074Y-10118234D01*
X12492074Y-10118234D02*
X12511122Y-10127758D01*
X12511122Y-10127758D02*
X12520646Y-10137282D01*
X12520646Y-10137282D02*
X12530170Y-10156330D01*
X12530170Y-10156330D02*
X12530170Y-10203949D01*
X12530170Y-10203949D02*
X12520646Y-10222996D01*
X12520646Y-10222996D02*
X12511122Y-10232520D01*
X12511122Y-10232520D02*
X12492074Y-10242044D01*
X12492074Y-10242044D02*
X12444455Y-10242044D01*
X12444455Y-10242044D02*
X12425408Y-10232520D01*
X12425408Y-10232520D02*
X12415884Y-10222996D01*
X12701598Y-10108710D02*
X12701598Y-10242044D01*
X12653979Y-10032520D02*
X12606360Y-10175377D01*
X12606360Y-10175377D02*
X12730170Y-10175377D01*
X12796836Y-10042044D02*
X12796836Y-10080139D01*
X12873027Y-10042044D02*
X12873027Y-10080139D01*
X13168265Y-10318234D02*
X13158741Y-10308710D01*
X13158741Y-10308710D02*
X13139694Y-10280139D01*
X13139694Y-10280139D02*
X13130170Y-10261091D01*
X13130170Y-10261091D02*
X13120646Y-10232520D01*
X13120646Y-10232520D02*
X13111122Y-10184901D01*
X13111122Y-10184901D02*
X13111122Y-10146806D01*
X13111122Y-10146806D02*
X13120646Y-10099187D01*
X13120646Y-10099187D02*
X13130170Y-10070615D01*
X13130170Y-10070615D02*
X13139694Y-10051568D01*
X13139694Y-10051568D02*
X13158741Y-10022996D01*
X13158741Y-10022996D02*
X13168265Y-10013472D01*
X13330170Y-10108710D02*
X13330170Y-10242044D01*
X13282551Y-10032520D02*
X13234932Y-10175377D01*
X13234932Y-10175377D02*
X13358741Y-10175377D01*
X13587313Y-10242044D02*
X13587313Y-10042044D01*
X13673027Y-10242044D02*
X13673027Y-10137282D01*
X13673027Y-10137282D02*
X13663503Y-10118234D01*
X13663503Y-10118234D02*
X13644456Y-10108710D01*
X13644456Y-10108710D02*
X13615884Y-10108710D01*
X13615884Y-10108710D02*
X13596836Y-10118234D01*
X13596836Y-10118234D02*
X13587313Y-10127758D01*
X13796836Y-10242044D02*
X13777789Y-10232520D01*
X13777789Y-10232520D02*
X13768265Y-10222996D01*
X13768265Y-10222996D02*
X13758741Y-10203949D01*
X13758741Y-10203949D02*
X13758741Y-10146806D01*
X13758741Y-10146806D02*
X13768265Y-10127758D01*
X13768265Y-10127758D02*
X13777789Y-10118234D01*
X13777789Y-10118234D02*
X13796836Y-10108710D01*
X13796836Y-10108710D02*
X13825408Y-10108710D01*
X13825408Y-10108710D02*
X13844456Y-10118234D01*
X13844456Y-10118234D02*
X13853979Y-10127758D01*
X13853979Y-10127758D02*
X13863503Y-10146806D01*
X13863503Y-10146806D02*
X13863503Y-10203949D01*
X13863503Y-10203949D02*
X13853979Y-10222996D01*
X13853979Y-10222996D02*
X13844456Y-10232520D01*
X13844456Y-10232520D02*
X13825408Y-10242044D01*
X13825408Y-10242044D02*
X13796836Y-10242044D01*
X13977789Y-10242044D02*
X13958741Y-10232520D01*
X13958741Y-10232520D02*
X13949217Y-10213472D01*
X13949217Y-10213472D02*
X13949217Y-10042044D01*
X14130170Y-10232520D02*
X14111122Y-10242044D01*
X14111122Y-10242044D02*
X14073027Y-10242044D01*
X14073027Y-10242044D02*
X14053979Y-10232520D01*
X14053979Y-10232520D02*
X14044456Y-10213472D01*
X14044456Y-10213472D02*
X14044456Y-10137282D01*
X14044456Y-10137282D02*
X14053979Y-10118234D01*
X14053979Y-10118234D02*
X14073027Y-10108710D01*
X14073027Y-10108710D02*
X14111122Y-10108710D01*
X14111122Y-10108710D02*
X14130170Y-10118234D01*
X14130170Y-10118234D02*
X14139694Y-10137282D01*
X14139694Y-10137282D02*
X14139694Y-10156330D01*
X14139694Y-10156330D02*
X14044456Y-10175377D01*
X14215884Y-10232520D02*
X14234932Y-10242044D01*
X14234932Y-10242044D02*
X14273027Y-10242044D01*
X14273027Y-10242044D02*
X14292075Y-10232520D01*
X14292075Y-10232520D02*
X14301598Y-10213472D01*
X14301598Y-10213472D02*
X14301598Y-10203949D01*
X14301598Y-10203949D02*
X14292075Y-10184901D01*
X14292075Y-10184901D02*
X14273027Y-10175377D01*
X14273027Y-10175377D02*
X14244456Y-10175377D01*
X14244456Y-10175377D02*
X14225408Y-10165853D01*
X14225408Y-10165853D02*
X14215884Y-10146806D01*
X14215884Y-10146806D02*
X14215884Y-10137282D01*
X14215884Y-10137282D02*
X14225408Y-10118234D01*
X14225408Y-10118234D02*
X14244456Y-10108710D01*
X14244456Y-10108710D02*
X14273027Y-10108710D01*
X14273027Y-10108710D02*
X14292075Y-10118234D01*
X14368265Y-10318234D02*
X14377789Y-10308710D01*
X14377789Y-10308710D02*
X14396837Y-10280139D01*
X14396837Y-10280139D02*
X14406360Y-10261091D01*
X14406360Y-10261091D02*
X14415884Y-10232520D01*
X14415884Y-10232520D02*
X14425408Y-10184901D01*
X14425408Y-10184901D02*
X14425408Y-10146806D01*
X14425408Y-10146806D02*
X14415884Y-10099187D01*
X14415884Y-10099187D02*
X14406360Y-10070615D01*
X14406360Y-10070615D02*
X14396837Y-10051568D01*
X14396837Y-10051568D02*
X14377789Y-10022996D01*
X14377789Y-10022996D02*
X14368265Y-10013472D01*
D10*
X9556360Y-10363520D02*
X9556360Y-10463520D01*
X9506360Y-10413520D02*
X9606360Y-10413520D01*
D11*
X9958741Y-10506044D02*
X9844455Y-10506044D01*
X9901598Y-10506044D02*
X9901598Y-10306044D01*
X9901598Y-10306044D02*
X9882550Y-10334615D01*
X9882550Y-10334615D02*
X9863503Y-10353663D01*
X9863503Y-10353663D02*
X9844455Y-10363187D01*
X10044455Y-10486996D02*
X10053979Y-10496520D01*
X10053979Y-10496520D02*
X10044455Y-10506044D01*
X10044455Y-10506044D02*
X10034931Y-10496520D01*
X10034931Y-10496520D02*
X10044455Y-10486996D01*
X10044455Y-10486996D02*
X10044455Y-10506044D01*
X10177789Y-10306044D02*
X10196836Y-10306044D01*
X10196836Y-10306044D02*
X10215884Y-10315568D01*
X10215884Y-10315568D02*
X10225408Y-10325091D01*
X10225408Y-10325091D02*
X10234931Y-10344139D01*
X10234931Y-10344139D02*
X10244455Y-10382234D01*
X10244455Y-10382234D02*
X10244455Y-10429853D01*
X10244455Y-10429853D02*
X10234931Y-10467949D01*
X10234931Y-10467949D02*
X10225408Y-10486996D01*
X10225408Y-10486996D02*
X10215884Y-10496520D01*
X10215884Y-10496520D02*
X10196836Y-10506044D01*
X10196836Y-10506044D02*
X10177789Y-10506044D01*
X10177789Y-10506044D02*
X10158741Y-10496520D01*
X10158741Y-10496520D02*
X10149217Y-10486996D01*
X10149217Y-10486996D02*
X10139693Y-10467949D01*
X10139693Y-10467949D02*
X10130170Y-10429853D01*
X10130170Y-10429853D02*
X10130170Y-10382234D01*
X10130170Y-10382234D02*
X10139693Y-10344139D01*
X10139693Y-10344139D02*
X10149217Y-10325091D01*
X10149217Y-10325091D02*
X10158741Y-10315568D01*
X10158741Y-10315568D02*
X10177789Y-10306044D01*
X10368265Y-10306044D02*
X10387312Y-10306044D01*
X10387312Y-10306044D02*
X10406360Y-10315568D01*
X10406360Y-10315568D02*
X10415884Y-10325091D01*
X10415884Y-10325091D02*
X10425408Y-10344139D01*
X10425408Y-10344139D02*
X10434931Y-10382234D01*
X10434931Y-10382234D02*
X10434931Y-10429853D01*
X10434931Y-10429853D02*
X10425408Y-10467949D01*
X10425408Y-10467949D02*
X10415884Y-10486996D01*
X10415884Y-10486996D02*
X10406360Y-10496520D01*
X10406360Y-10496520D02*
X10387312Y-10506044D01*
X10387312Y-10506044D02*
X10368265Y-10506044D01*
X10368265Y-10506044D02*
X10349217Y-10496520D01*
X10349217Y-10496520D02*
X10339693Y-10486996D01*
X10339693Y-10486996D02*
X10330170Y-10467949D01*
X10330170Y-10467949D02*
X10320646Y-10429853D01*
X10320646Y-10429853D02*
X10320646Y-10382234D01*
X10320646Y-10382234D02*
X10330170Y-10344139D01*
X10330170Y-10344139D02*
X10339693Y-10325091D01*
X10339693Y-10325091D02*
X10349217Y-10315568D01*
X10349217Y-10315568D02*
X10368265Y-10306044D01*
X10558741Y-10306044D02*
X10577789Y-10306044D01*
X10577789Y-10306044D02*
X10596836Y-10315568D01*
X10596836Y-10315568D02*
X10606360Y-10325091D01*
X10606360Y-10325091D02*
X10615884Y-10344139D01*
X10615884Y-10344139D02*
X10625408Y-10382234D01*
X10625408Y-10382234D02*
X10625408Y-10429853D01*
X10625408Y-10429853D02*
X10615884Y-10467949D01*
X10615884Y-10467949D02*
X10606360Y-10486996D01*
X10606360Y-10486996D02*
X10596836Y-10496520D01*
X10596836Y-10496520D02*
X10577789Y-10506044D01*
X10577789Y-10506044D02*
X10558741Y-10506044D01*
X10558741Y-10506044D02*
X10539693Y-10496520D01*
X10539693Y-10496520D02*
X10530170Y-10486996D01*
X10530170Y-10486996D02*
X10520646Y-10467949D01*
X10520646Y-10467949D02*
X10511122Y-10429853D01*
X10511122Y-10429853D02*
X10511122Y-10382234D01*
X10511122Y-10382234D02*
X10520646Y-10344139D01*
X10520646Y-10344139D02*
X10530170Y-10325091D01*
X10530170Y-10325091D02*
X10539693Y-10315568D01*
X10539693Y-10315568D02*
X10558741Y-10306044D01*
X10711122Y-10506044D02*
X10711122Y-10372710D01*
X10711122Y-10391758D02*
X10720646Y-10382234D01*
X10720646Y-10382234D02*
X10739693Y-10372710D01*
X10739693Y-10372710D02*
X10768265Y-10372710D01*
X10768265Y-10372710D02*
X10787312Y-10382234D01*
X10787312Y-10382234D02*
X10796836Y-10401282D01*
X10796836Y-10401282D02*
X10796836Y-10506044D01*
X10796836Y-10401282D02*
X10806360Y-10382234D01*
X10806360Y-10382234D02*
X10825408Y-10372710D01*
X10825408Y-10372710D02*
X10853979Y-10372710D01*
X10853979Y-10372710D02*
X10873027Y-10382234D01*
X10873027Y-10382234D02*
X10882551Y-10401282D01*
X10882551Y-10401282D02*
X10882551Y-10506044D01*
X10977789Y-10506044D02*
X10977789Y-10372710D01*
X10977789Y-10391758D02*
X10987312Y-10382234D01*
X10987312Y-10382234D02*
X11006360Y-10372710D01*
X11006360Y-10372710D02*
X11034932Y-10372710D01*
X11034932Y-10372710D02*
X11053979Y-10382234D01*
X11053979Y-10382234D02*
X11063503Y-10401282D01*
X11063503Y-10401282D02*
X11063503Y-10506044D01*
X11063503Y-10401282D02*
X11073027Y-10382234D01*
X11073027Y-10382234D02*
X11092074Y-10372710D01*
X11092074Y-10372710D02*
X11120646Y-10372710D01*
X11120646Y-10372710D02*
X11139693Y-10382234D01*
X11139693Y-10382234D02*
X11149217Y-10401282D01*
X11149217Y-10401282D02*
X11149217Y-10506044D01*
X11539693Y-10296520D02*
X11368265Y-10553663D01*
X11796836Y-10306044D02*
X11815884Y-10306044D01*
X11815884Y-10306044D02*
X11834932Y-10315568D01*
X11834932Y-10315568D02*
X11844455Y-10325091D01*
X11844455Y-10325091D02*
X11853979Y-10344139D01*
X11853979Y-10344139D02*
X11863503Y-10382234D01*
X11863503Y-10382234D02*
X11863503Y-10429853D01*
X11863503Y-10429853D02*
X11853979Y-10467949D01*
X11853979Y-10467949D02*
X11844455Y-10486996D01*
X11844455Y-10486996D02*
X11834932Y-10496520D01*
X11834932Y-10496520D02*
X11815884Y-10506044D01*
X11815884Y-10506044D02*
X11796836Y-10506044D01*
X11796836Y-10506044D02*
X11777789Y-10496520D01*
X11777789Y-10496520D02*
X11768265Y-10486996D01*
X11768265Y-10486996D02*
X11758741Y-10467949D01*
X11758741Y-10467949D02*
X11749217Y-10429853D01*
X11749217Y-10429853D02*
X11749217Y-10382234D01*
X11749217Y-10382234D02*
X11758741Y-10344139D01*
X11758741Y-10344139D02*
X11768265Y-10325091D01*
X11768265Y-10325091D02*
X11777789Y-10315568D01*
X11777789Y-10315568D02*
X11796836Y-10306044D01*
X11949217Y-10486996D02*
X11958741Y-10496520D01*
X11958741Y-10496520D02*
X11949217Y-10506044D01*
X11949217Y-10506044D02*
X11939693Y-10496520D01*
X11939693Y-10496520D02*
X11949217Y-10486996D01*
X11949217Y-10486996D02*
X11949217Y-10506044D01*
X12082551Y-10306044D02*
X12101598Y-10306044D01*
X12101598Y-10306044D02*
X12120646Y-10315568D01*
X12120646Y-10315568D02*
X12130170Y-10325091D01*
X12130170Y-10325091D02*
X12139693Y-10344139D01*
X12139693Y-10344139D02*
X12149217Y-10382234D01*
X12149217Y-10382234D02*
X12149217Y-10429853D01*
X12149217Y-10429853D02*
X12139693Y-10467949D01*
X12139693Y-10467949D02*
X12130170Y-10486996D01*
X12130170Y-10486996D02*
X12120646Y-10496520D01*
X12120646Y-10496520D02*
X12101598Y-10506044D01*
X12101598Y-10506044D02*
X12082551Y-10506044D01*
X12082551Y-10506044D02*
X12063503Y-10496520D01*
X12063503Y-10496520D02*
X12053979Y-10486996D01*
X12053979Y-10486996D02*
X12044455Y-10467949D01*
X12044455Y-10467949D02*
X12034932Y-10429853D01*
X12034932Y-10429853D02*
X12034932Y-10382234D01*
X12034932Y-10382234D02*
X12044455Y-10344139D01*
X12044455Y-10344139D02*
X12053979Y-10325091D01*
X12053979Y-10325091D02*
X12063503Y-10315568D01*
X12063503Y-10315568D02*
X12082551Y-10306044D01*
X12215884Y-10306044D02*
X12339693Y-10306044D01*
X12339693Y-10306044D02*
X12273027Y-10382234D01*
X12273027Y-10382234D02*
X12301598Y-10382234D01*
X12301598Y-10382234D02*
X12320646Y-10391758D01*
X12320646Y-10391758D02*
X12330170Y-10401282D01*
X12330170Y-10401282D02*
X12339693Y-10420330D01*
X12339693Y-10420330D02*
X12339693Y-10467949D01*
X12339693Y-10467949D02*
X12330170Y-10486996D01*
X12330170Y-10486996D02*
X12320646Y-10496520D01*
X12320646Y-10496520D02*
X12301598Y-10506044D01*
X12301598Y-10506044D02*
X12244455Y-10506044D01*
X12244455Y-10506044D02*
X12225408Y-10496520D01*
X12225408Y-10496520D02*
X12215884Y-10486996D01*
X12434932Y-10506044D02*
X12473027Y-10506044D01*
X12473027Y-10506044D02*
X12492074Y-10496520D01*
X12492074Y-10496520D02*
X12501598Y-10486996D01*
X12501598Y-10486996D02*
X12520646Y-10458425D01*
X12520646Y-10458425D02*
X12530170Y-10420330D01*
X12530170Y-10420330D02*
X12530170Y-10344139D01*
X12530170Y-10344139D02*
X12520646Y-10325091D01*
X12520646Y-10325091D02*
X12511122Y-10315568D01*
X12511122Y-10315568D02*
X12492074Y-10306044D01*
X12492074Y-10306044D02*
X12453979Y-10306044D01*
X12453979Y-10306044D02*
X12434932Y-10315568D01*
X12434932Y-10315568D02*
X12425408Y-10325091D01*
X12425408Y-10325091D02*
X12415884Y-10344139D01*
X12415884Y-10344139D02*
X12415884Y-10391758D01*
X12415884Y-10391758D02*
X12425408Y-10410806D01*
X12425408Y-10410806D02*
X12434932Y-10420330D01*
X12434932Y-10420330D02*
X12453979Y-10429853D01*
X12453979Y-10429853D02*
X12492074Y-10429853D01*
X12492074Y-10429853D02*
X12511122Y-10420330D01*
X12511122Y-10420330D02*
X12520646Y-10410806D01*
X12520646Y-10410806D02*
X12530170Y-10391758D01*
X12701598Y-10372710D02*
X12701598Y-10506044D01*
X12653979Y-10296520D02*
X12606360Y-10439377D01*
X12606360Y-10439377D02*
X12730170Y-10439377D01*
X12796836Y-10306044D02*
X12796836Y-10344139D01*
X12873027Y-10306044D02*
X12873027Y-10344139D01*
X13168265Y-10582234D02*
X13158741Y-10572710D01*
X13158741Y-10572710D02*
X13139694Y-10544139D01*
X13139694Y-10544139D02*
X13130170Y-10525091D01*
X13130170Y-10525091D02*
X13120646Y-10496520D01*
X13120646Y-10496520D02*
X13111122Y-10448901D01*
X13111122Y-10448901D02*
X13111122Y-10410806D01*
X13111122Y-10410806D02*
X13120646Y-10363187D01*
X13120646Y-10363187D02*
X13130170Y-10334615D01*
X13130170Y-10334615D02*
X13139694Y-10315568D01*
X13139694Y-10315568D02*
X13158741Y-10286996D01*
X13158741Y-10286996D02*
X13168265Y-10277472D01*
X13273027Y-10391758D02*
X13253979Y-10382234D01*
X13253979Y-10382234D02*
X13244455Y-10372710D01*
X13244455Y-10372710D02*
X13234932Y-10353663D01*
X13234932Y-10353663D02*
X13234932Y-10344139D01*
X13234932Y-10344139D02*
X13244455Y-10325091D01*
X13244455Y-10325091D02*
X13253979Y-10315568D01*
X13253979Y-10315568D02*
X13273027Y-10306044D01*
X13273027Y-10306044D02*
X13311122Y-10306044D01*
X13311122Y-10306044D02*
X13330170Y-10315568D01*
X13330170Y-10315568D02*
X13339694Y-10325091D01*
X13339694Y-10325091D02*
X13349217Y-10344139D01*
X13349217Y-10344139D02*
X13349217Y-10353663D01*
X13349217Y-10353663D02*
X13339694Y-10372710D01*
X13339694Y-10372710D02*
X13330170Y-10382234D01*
X13330170Y-10382234D02*
X13311122Y-10391758D01*
X13311122Y-10391758D02*
X13273027Y-10391758D01*
X13273027Y-10391758D02*
X13253979Y-10401282D01*
X13253979Y-10401282D02*
X13244455Y-10410806D01*
X13244455Y-10410806D02*
X13234932Y-10429853D01*
X13234932Y-10429853D02*
X13234932Y-10467949D01*
X13234932Y-10467949D02*
X13244455Y-10486996D01*
X13244455Y-10486996D02*
X13253979Y-10496520D01*
X13253979Y-10496520D02*
X13273027Y-10506044D01*
X13273027Y-10506044D02*
X13311122Y-10506044D01*
X13311122Y-10506044D02*
X13330170Y-10496520D01*
X13330170Y-10496520D02*
X13339694Y-10486996D01*
X13339694Y-10486996D02*
X13349217Y-10467949D01*
X13349217Y-10467949D02*
X13349217Y-10429853D01*
X13349217Y-10429853D02*
X13339694Y-10410806D01*
X13339694Y-10410806D02*
X13330170Y-10401282D01*
X13330170Y-10401282D02*
X13311122Y-10391758D01*
X13587313Y-10506044D02*
X13587313Y-10306044D01*
X13673027Y-10506044D02*
X13673027Y-10401282D01*
X13673027Y-10401282D02*
X13663503Y-10382234D01*
X13663503Y-10382234D02*
X13644456Y-10372710D01*
X13644456Y-10372710D02*
X13615884Y-10372710D01*
X13615884Y-10372710D02*
X13596836Y-10382234D01*
X13596836Y-10382234D02*
X13587313Y-10391758D01*
X13796836Y-10506044D02*
X13777789Y-10496520D01*
X13777789Y-10496520D02*
X13768265Y-10486996D01*
X13768265Y-10486996D02*
X13758741Y-10467949D01*
X13758741Y-10467949D02*
X13758741Y-10410806D01*
X13758741Y-10410806D02*
X13768265Y-10391758D01*
X13768265Y-10391758D02*
X13777789Y-10382234D01*
X13777789Y-10382234D02*
X13796836Y-10372710D01*
X13796836Y-10372710D02*
X13825408Y-10372710D01*
X13825408Y-10372710D02*
X13844456Y-10382234D01*
X13844456Y-10382234D02*
X13853979Y-10391758D01*
X13853979Y-10391758D02*
X13863503Y-10410806D01*
X13863503Y-10410806D02*
X13863503Y-10467949D01*
X13863503Y-10467949D02*
X13853979Y-10486996D01*
X13853979Y-10486996D02*
X13844456Y-10496520D01*
X13844456Y-10496520D02*
X13825408Y-10506044D01*
X13825408Y-10506044D02*
X13796836Y-10506044D01*
X13977789Y-10506044D02*
X13958741Y-10496520D01*
X13958741Y-10496520D02*
X13949217Y-10477472D01*
X13949217Y-10477472D02*
X13949217Y-10306044D01*
X14130170Y-10496520D02*
X14111122Y-10506044D01*
X14111122Y-10506044D02*
X14073027Y-10506044D01*
X14073027Y-10506044D02*
X14053979Y-10496520D01*
X14053979Y-10496520D02*
X14044456Y-10477472D01*
X14044456Y-10477472D02*
X14044456Y-10401282D01*
X14044456Y-10401282D02*
X14053979Y-10382234D01*
X14053979Y-10382234D02*
X14073027Y-10372710D01*
X14073027Y-10372710D02*
X14111122Y-10372710D01*
X14111122Y-10372710D02*
X14130170Y-10382234D01*
X14130170Y-10382234D02*
X14139694Y-10401282D01*
X14139694Y-10401282D02*
X14139694Y-10420330D01*
X14139694Y-10420330D02*
X14044456Y-10439377D01*
X14215884Y-10496520D02*
X14234932Y-10506044D01*
X14234932Y-10506044D02*
X14273027Y-10506044D01*
X14273027Y-10506044D02*
X14292075Y-10496520D01*
X14292075Y-10496520D02*
X14301598Y-10477472D01*
X14301598Y-10477472D02*
X14301598Y-10467949D01*
X14301598Y-10467949D02*
X14292075Y-10448901D01*
X14292075Y-10448901D02*
X14273027Y-10439377D01*
X14273027Y-10439377D02*
X14244456Y-10439377D01*
X14244456Y-10439377D02*
X14225408Y-10429853D01*
X14225408Y-10429853D02*
X14215884Y-10410806D01*
X14215884Y-10410806D02*
X14215884Y-10401282D01*
X14215884Y-10401282D02*
X14225408Y-10382234D01*
X14225408Y-10382234D02*
X14244456Y-10372710D01*
X14244456Y-10372710D02*
X14273027Y-10372710D01*
X14273027Y-10372710D02*
X14292075Y-10382234D01*
X14368265Y-10582234D02*
X14377789Y-10572710D01*
X14377789Y-10572710D02*
X14396837Y-10544139D01*
X14396837Y-10544139D02*
X14406360Y-10525091D01*
X14406360Y-10525091D02*
X14415884Y-10496520D01*
X14415884Y-10496520D02*
X14425408Y-10448901D01*
X14425408Y-10448901D02*
X14425408Y-10410806D01*
X14425408Y-10410806D02*
X14415884Y-10363187D01*
X14415884Y-10363187D02*
X14406360Y-10334615D01*
X14406360Y-10334615D02*
X14396837Y-10315568D01*
X14396837Y-10315568D02*
X14377789Y-10286996D01*
X14377789Y-10286996D02*
X14368265Y-10277472D01*
D14*
X9590251Y-10716411D02*
X9590251Y-10638629D01*
X9512469Y-10638629D01*
X9512469Y-10716411D01*
X9590251Y-10716411D01*
D11*
X9958741Y-10770044D02*
X9844455Y-10770044D01*
X9901598Y-10770044D02*
X9901598Y-10570044D01*
X9901598Y-10570044D02*
X9882550Y-10598615D01*
X9882550Y-10598615D02*
X9863503Y-10617663D01*
X9863503Y-10617663D02*
X9844455Y-10627187D01*
X10044455Y-10750996D02*
X10053979Y-10760520D01*
X10053979Y-10760520D02*
X10044455Y-10770044D01*
X10044455Y-10770044D02*
X10034931Y-10760520D01*
X10034931Y-10760520D02*
X10044455Y-10750996D01*
X10044455Y-10750996D02*
X10044455Y-10770044D01*
X10244455Y-10770044D02*
X10130170Y-10770044D01*
X10187312Y-10770044D02*
X10187312Y-10570044D01*
X10187312Y-10570044D02*
X10168265Y-10598615D01*
X10168265Y-10598615D02*
X10149217Y-10617663D01*
X10149217Y-10617663D02*
X10130170Y-10627187D01*
X10368265Y-10570044D02*
X10387312Y-10570044D01*
X10387312Y-10570044D02*
X10406360Y-10579568D01*
X10406360Y-10579568D02*
X10415884Y-10589091D01*
X10415884Y-10589091D02*
X10425408Y-10608139D01*
X10425408Y-10608139D02*
X10434931Y-10646234D01*
X10434931Y-10646234D02*
X10434931Y-10693853D01*
X10434931Y-10693853D02*
X10425408Y-10731949D01*
X10425408Y-10731949D02*
X10415884Y-10750996D01*
X10415884Y-10750996D02*
X10406360Y-10760520D01*
X10406360Y-10760520D02*
X10387312Y-10770044D01*
X10387312Y-10770044D02*
X10368265Y-10770044D01*
X10368265Y-10770044D02*
X10349217Y-10760520D01*
X10349217Y-10760520D02*
X10339693Y-10750996D01*
X10339693Y-10750996D02*
X10330170Y-10731949D01*
X10330170Y-10731949D02*
X10320646Y-10693853D01*
X10320646Y-10693853D02*
X10320646Y-10646234D01*
X10320646Y-10646234D02*
X10330170Y-10608139D01*
X10330170Y-10608139D02*
X10339693Y-10589091D01*
X10339693Y-10589091D02*
X10349217Y-10579568D01*
X10349217Y-10579568D02*
X10368265Y-10570044D01*
X10558741Y-10570044D02*
X10577789Y-10570044D01*
X10577789Y-10570044D02*
X10596836Y-10579568D01*
X10596836Y-10579568D02*
X10606360Y-10589091D01*
X10606360Y-10589091D02*
X10615884Y-10608139D01*
X10615884Y-10608139D02*
X10625408Y-10646234D01*
X10625408Y-10646234D02*
X10625408Y-10693853D01*
X10625408Y-10693853D02*
X10615884Y-10731949D01*
X10615884Y-10731949D02*
X10606360Y-10750996D01*
X10606360Y-10750996D02*
X10596836Y-10760520D01*
X10596836Y-10760520D02*
X10577789Y-10770044D01*
X10577789Y-10770044D02*
X10558741Y-10770044D01*
X10558741Y-10770044D02*
X10539693Y-10760520D01*
X10539693Y-10760520D02*
X10530170Y-10750996D01*
X10530170Y-10750996D02*
X10520646Y-10731949D01*
X10520646Y-10731949D02*
X10511122Y-10693853D01*
X10511122Y-10693853D02*
X10511122Y-10646234D01*
X10511122Y-10646234D02*
X10520646Y-10608139D01*
X10520646Y-10608139D02*
X10530170Y-10589091D01*
X10530170Y-10589091D02*
X10539693Y-10579568D01*
X10539693Y-10579568D02*
X10558741Y-10570044D01*
X10711122Y-10770044D02*
X10711122Y-10636710D01*
X10711122Y-10655758D02*
X10720646Y-10646234D01*
X10720646Y-10646234D02*
X10739693Y-10636710D01*
X10739693Y-10636710D02*
X10768265Y-10636710D01*
X10768265Y-10636710D02*
X10787312Y-10646234D01*
X10787312Y-10646234D02*
X10796836Y-10665282D01*
X10796836Y-10665282D02*
X10796836Y-10770044D01*
X10796836Y-10665282D02*
X10806360Y-10646234D01*
X10806360Y-10646234D02*
X10825408Y-10636710D01*
X10825408Y-10636710D02*
X10853979Y-10636710D01*
X10853979Y-10636710D02*
X10873027Y-10646234D01*
X10873027Y-10646234D02*
X10882551Y-10665282D01*
X10882551Y-10665282D02*
X10882551Y-10770044D01*
X10977789Y-10770044D02*
X10977789Y-10636710D01*
X10977789Y-10655758D02*
X10987312Y-10646234D01*
X10987312Y-10646234D02*
X11006360Y-10636710D01*
X11006360Y-10636710D02*
X11034932Y-10636710D01*
X11034932Y-10636710D02*
X11053979Y-10646234D01*
X11053979Y-10646234D02*
X11063503Y-10665282D01*
X11063503Y-10665282D02*
X11063503Y-10770044D01*
X11063503Y-10665282D02*
X11073027Y-10646234D01*
X11073027Y-10646234D02*
X11092074Y-10636710D01*
X11092074Y-10636710D02*
X11120646Y-10636710D01*
X11120646Y-10636710D02*
X11139693Y-10646234D01*
X11139693Y-10646234D02*
X11149217Y-10665282D01*
X11149217Y-10665282D02*
X11149217Y-10770044D01*
X11539693Y-10560520D02*
X11368265Y-10817663D01*
X11796836Y-10570044D02*
X11815884Y-10570044D01*
X11815884Y-10570044D02*
X11834932Y-10579568D01*
X11834932Y-10579568D02*
X11844455Y-10589091D01*
X11844455Y-10589091D02*
X11853979Y-10608139D01*
X11853979Y-10608139D02*
X11863503Y-10646234D01*
X11863503Y-10646234D02*
X11863503Y-10693853D01*
X11863503Y-10693853D02*
X11853979Y-10731949D01*
X11853979Y-10731949D02*
X11844455Y-10750996D01*
X11844455Y-10750996D02*
X11834932Y-10760520D01*
X11834932Y-10760520D02*
X11815884Y-10770044D01*
X11815884Y-10770044D02*
X11796836Y-10770044D01*
X11796836Y-10770044D02*
X11777789Y-10760520D01*
X11777789Y-10760520D02*
X11768265Y-10750996D01*
X11768265Y-10750996D02*
X11758741Y-10731949D01*
X11758741Y-10731949D02*
X11749217Y-10693853D01*
X11749217Y-10693853D02*
X11749217Y-10646234D01*
X11749217Y-10646234D02*
X11758741Y-10608139D01*
X11758741Y-10608139D02*
X11768265Y-10589091D01*
X11768265Y-10589091D02*
X11777789Y-10579568D01*
X11777789Y-10579568D02*
X11796836Y-10570044D01*
X11949217Y-10750996D02*
X11958741Y-10760520D01*
X11958741Y-10760520D02*
X11949217Y-10770044D01*
X11949217Y-10770044D02*
X11939693Y-10760520D01*
X11939693Y-10760520D02*
X11949217Y-10750996D01*
X11949217Y-10750996D02*
X11949217Y-10770044D01*
X12082551Y-10570044D02*
X12101598Y-10570044D01*
X12101598Y-10570044D02*
X12120646Y-10579568D01*
X12120646Y-10579568D02*
X12130170Y-10589091D01*
X12130170Y-10589091D02*
X12139693Y-10608139D01*
X12139693Y-10608139D02*
X12149217Y-10646234D01*
X12149217Y-10646234D02*
X12149217Y-10693853D01*
X12149217Y-10693853D02*
X12139693Y-10731949D01*
X12139693Y-10731949D02*
X12130170Y-10750996D01*
X12130170Y-10750996D02*
X12120646Y-10760520D01*
X12120646Y-10760520D02*
X12101598Y-10770044D01*
X12101598Y-10770044D02*
X12082551Y-10770044D01*
X12082551Y-10770044D02*
X12063503Y-10760520D01*
X12063503Y-10760520D02*
X12053979Y-10750996D01*
X12053979Y-10750996D02*
X12044455Y-10731949D01*
X12044455Y-10731949D02*
X12034932Y-10693853D01*
X12034932Y-10693853D02*
X12034932Y-10646234D01*
X12034932Y-10646234D02*
X12044455Y-10608139D01*
X12044455Y-10608139D02*
X12053979Y-10589091D01*
X12053979Y-10589091D02*
X12063503Y-10579568D01*
X12063503Y-10579568D02*
X12082551Y-10570044D01*
X12320646Y-10636710D02*
X12320646Y-10770044D01*
X12273027Y-10560520D02*
X12225408Y-10703377D01*
X12225408Y-10703377D02*
X12349217Y-10703377D01*
X12406360Y-10570044D02*
X12530170Y-10570044D01*
X12530170Y-10570044D02*
X12463503Y-10646234D01*
X12463503Y-10646234D02*
X12492074Y-10646234D01*
X12492074Y-10646234D02*
X12511122Y-10655758D01*
X12511122Y-10655758D02*
X12520646Y-10665282D01*
X12520646Y-10665282D02*
X12530170Y-10684330D01*
X12530170Y-10684330D02*
X12530170Y-10731949D01*
X12530170Y-10731949D02*
X12520646Y-10750996D01*
X12520646Y-10750996D02*
X12511122Y-10760520D01*
X12511122Y-10760520D02*
X12492074Y-10770044D01*
X12492074Y-10770044D02*
X12434932Y-10770044D01*
X12434932Y-10770044D02*
X12415884Y-10760520D01*
X12415884Y-10760520D02*
X12406360Y-10750996D01*
X12596836Y-10570044D02*
X12720646Y-10570044D01*
X12720646Y-10570044D02*
X12653979Y-10646234D01*
X12653979Y-10646234D02*
X12682551Y-10646234D01*
X12682551Y-10646234D02*
X12701598Y-10655758D01*
X12701598Y-10655758D02*
X12711122Y-10665282D01*
X12711122Y-10665282D02*
X12720646Y-10684330D01*
X12720646Y-10684330D02*
X12720646Y-10731949D01*
X12720646Y-10731949D02*
X12711122Y-10750996D01*
X12711122Y-10750996D02*
X12701598Y-10760520D01*
X12701598Y-10760520D02*
X12682551Y-10770044D01*
X12682551Y-10770044D02*
X12625408Y-10770044D01*
X12625408Y-10770044D02*
X12606360Y-10760520D01*
X12606360Y-10760520D02*
X12596836Y-10750996D01*
X12796836Y-10570044D02*
X12796836Y-10608139D01*
X12873027Y-10570044D02*
X12873027Y-10608139D01*
X13168265Y-10846234D02*
X13158741Y-10836710D01*
X13158741Y-10836710D02*
X13139694Y-10808139D01*
X13139694Y-10808139D02*
X13130170Y-10789091D01*
X13130170Y-10789091D02*
X13120646Y-10760520D01*
X13120646Y-10760520D02*
X13111122Y-10712901D01*
X13111122Y-10712901D02*
X13111122Y-10674806D01*
X13111122Y-10674806D02*
X13120646Y-10627187D01*
X13120646Y-10627187D02*
X13130170Y-10598615D01*
X13130170Y-10598615D02*
X13139694Y-10579568D01*
X13139694Y-10579568D02*
X13158741Y-10550996D01*
X13158741Y-10550996D02*
X13168265Y-10541472D01*
X13349217Y-10770044D02*
X13234932Y-10770044D01*
X13292074Y-10770044D02*
X13292074Y-10570044D01*
X13292074Y-10570044D02*
X13273027Y-10598615D01*
X13273027Y-10598615D02*
X13253979Y-10617663D01*
X13253979Y-10617663D02*
X13234932Y-10627187D01*
X13520646Y-10636710D02*
X13520646Y-10770044D01*
X13473027Y-10560520D02*
X13425408Y-10703377D01*
X13425408Y-10703377D02*
X13549217Y-10703377D01*
X13777789Y-10770044D02*
X13777789Y-10570044D01*
X13863503Y-10770044D02*
X13863503Y-10665282D01*
X13863503Y-10665282D02*
X13853979Y-10646234D01*
X13853979Y-10646234D02*
X13834932Y-10636710D01*
X13834932Y-10636710D02*
X13806360Y-10636710D01*
X13806360Y-10636710D02*
X13787313Y-10646234D01*
X13787313Y-10646234D02*
X13777789Y-10655758D01*
X13987313Y-10770044D02*
X13968265Y-10760520D01*
X13968265Y-10760520D02*
X13958741Y-10750996D01*
X13958741Y-10750996D02*
X13949217Y-10731949D01*
X13949217Y-10731949D02*
X13949217Y-10674806D01*
X13949217Y-10674806D02*
X13958741Y-10655758D01*
X13958741Y-10655758D02*
X13968265Y-10646234D01*
X13968265Y-10646234D02*
X13987313Y-10636710D01*
X13987313Y-10636710D02*
X14015884Y-10636710D01*
X14015884Y-10636710D02*
X14034932Y-10646234D01*
X14034932Y-10646234D02*
X14044456Y-10655758D01*
X14044456Y-10655758D02*
X14053979Y-10674806D01*
X14053979Y-10674806D02*
X14053979Y-10731949D01*
X14053979Y-10731949D02*
X14044456Y-10750996D01*
X14044456Y-10750996D02*
X14034932Y-10760520D01*
X14034932Y-10760520D02*
X14015884Y-10770044D01*
X14015884Y-10770044D02*
X13987313Y-10770044D01*
X14168265Y-10770044D02*
X14149217Y-10760520D01*
X14149217Y-10760520D02*
X14139694Y-10741472D01*
X14139694Y-10741472D02*
X14139694Y-10570044D01*
X14320646Y-10760520D02*
X14301598Y-10770044D01*
X14301598Y-10770044D02*
X14263503Y-10770044D01*
X14263503Y-10770044D02*
X14244456Y-10760520D01*
X14244456Y-10760520D02*
X14234932Y-10741472D01*
X14234932Y-10741472D02*
X14234932Y-10665282D01*
X14234932Y-10665282D02*
X14244456Y-10646234D01*
X14244456Y-10646234D02*
X14263503Y-10636710D01*
X14263503Y-10636710D02*
X14301598Y-10636710D01*
X14301598Y-10636710D02*
X14320646Y-10646234D01*
X14320646Y-10646234D02*
X14330170Y-10665282D01*
X14330170Y-10665282D02*
X14330170Y-10684330D01*
X14330170Y-10684330D02*
X14234932Y-10703377D01*
X14406360Y-10760520D02*
X14425408Y-10770044D01*
X14425408Y-10770044D02*
X14463503Y-10770044D01*
X14463503Y-10770044D02*
X14482551Y-10760520D01*
X14482551Y-10760520D02*
X14492075Y-10741472D01*
X14492075Y-10741472D02*
X14492075Y-10731949D01*
X14492075Y-10731949D02*
X14482551Y-10712901D01*
X14482551Y-10712901D02*
X14463503Y-10703377D01*
X14463503Y-10703377D02*
X14434932Y-10703377D01*
X14434932Y-10703377D02*
X14415884Y-10693853D01*
X14415884Y-10693853D02*
X14406360Y-10674806D01*
X14406360Y-10674806D02*
X14406360Y-10665282D01*
X14406360Y-10665282D02*
X14415884Y-10646234D01*
X14415884Y-10646234D02*
X14434932Y-10636710D01*
X14434932Y-10636710D02*
X14463503Y-10636710D01*
X14463503Y-10636710D02*
X14482551Y-10646234D01*
X14558741Y-10846234D02*
X14568265Y-10836710D01*
X14568265Y-10836710D02*
X14587313Y-10808139D01*
X14587313Y-10808139D02*
X14596837Y-10789091D01*
X14596837Y-10789091D02*
X14606360Y-10760520D01*
X14606360Y-10760520D02*
X14615884Y-10712901D01*
X14615884Y-10712901D02*
X14615884Y-10674806D01*
X14615884Y-10674806D02*
X14606360Y-10627187D01*
X14606360Y-10627187D02*
X14596837Y-10598615D01*
X14596837Y-10598615D02*
X14587313Y-10579568D01*
X14587313Y-10579568D02*
X14568265Y-10550996D01*
X14568265Y-10550996D02*
X14558741Y-10541472D01*
D15*
X9541360Y-11006520D02*
X9606360Y-10941520D01*
X9541360Y-10876520D01*
X9476360Y-10941520D01*
X9541360Y-11006520D01*
D11*
X9958741Y-11034044D02*
X9844455Y-11034044D01*
X9901598Y-11034044D02*
X9901598Y-10834044D01*
X9901598Y-10834044D02*
X9882550Y-10862615D01*
X9882550Y-10862615D02*
X9863503Y-10881663D01*
X9863503Y-10881663D02*
X9844455Y-10891187D01*
X10044455Y-11014996D02*
X10053979Y-11024520D01*
X10053979Y-11024520D02*
X10044455Y-11034044D01*
X10044455Y-11034044D02*
X10034931Y-11024520D01*
X10034931Y-11024520D02*
X10044455Y-11014996D01*
X10044455Y-11014996D02*
X10044455Y-11034044D01*
X10120646Y-10834044D02*
X10244455Y-10834044D01*
X10244455Y-10834044D02*
X10177789Y-10910234D01*
X10177789Y-10910234D02*
X10206360Y-10910234D01*
X10206360Y-10910234D02*
X10225408Y-10919758D01*
X10225408Y-10919758D02*
X10234931Y-10929282D01*
X10234931Y-10929282D02*
X10244455Y-10948330D01*
X10244455Y-10948330D02*
X10244455Y-10995949D01*
X10244455Y-10995949D02*
X10234931Y-11014996D01*
X10234931Y-11014996D02*
X10225408Y-11024520D01*
X10225408Y-11024520D02*
X10206360Y-11034044D01*
X10206360Y-11034044D02*
X10149217Y-11034044D01*
X10149217Y-11034044D02*
X10130170Y-11024520D01*
X10130170Y-11024520D02*
X10120646Y-11014996D01*
X10368265Y-10834044D02*
X10387312Y-10834044D01*
X10387312Y-10834044D02*
X10406360Y-10843568D01*
X10406360Y-10843568D02*
X10415884Y-10853091D01*
X10415884Y-10853091D02*
X10425408Y-10872139D01*
X10425408Y-10872139D02*
X10434931Y-10910234D01*
X10434931Y-10910234D02*
X10434931Y-10957853D01*
X10434931Y-10957853D02*
X10425408Y-10995949D01*
X10425408Y-10995949D02*
X10415884Y-11014996D01*
X10415884Y-11014996D02*
X10406360Y-11024520D01*
X10406360Y-11024520D02*
X10387312Y-11034044D01*
X10387312Y-11034044D02*
X10368265Y-11034044D01*
X10368265Y-11034044D02*
X10349217Y-11024520D01*
X10349217Y-11024520D02*
X10339693Y-11014996D01*
X10339693Y-11014996D02*
X10330170Y-10995949D01*
X10330170Y-10995949D02*
X10320646Y-10957853D01*
X10320646Y-10957853D02*
X10320646Y-10910234D01*
X10320646Y-10910234D02*
X10330170Y-10872139D01*
X10330170Y-10872139D02*
X10339693Y-10853091D01*
X10339693Y-10853091D02*
X10349217Y-10843568D01*
X10349217Y-10843568D02*
X10368265Y-10834044D01*
X10558741Y-10834044D02*
X10577789Y-10834044D01*
X10577789Y-10834044D02*
X10596836Y-10843568D01*
X10596836Y-10843568D02*
X10606360Y-10853091D01*
X10606360Y-10853091D02*
X10615884Y-10872139D01*
X10615884Y-10872139D02*
X10625408Y-10910234D01*
X10625408Y-10910234D02*
X10625408Y-10957853D01*
X10625408Y-10957853D02*
X10615884Y-10995949D01*
X10615884Y-10995949D02*
X10606360Y-11014996D01*
X10606360Y-11014996D02*
X10596836Y-11024520D01*
X10596836Y-11024520D02*
X10577789Y-11034044D01*
X10577789Y-11034044D02*
X10558741Y-11034044D01*
X10558741Y-11034044D02*
X10539693Y-11024520D01*
X10539693Y-11024520D02*
X10530170Y-11014996D01*
X10530170Y-11014996D02*
X10520646Y-10995949D01*
X10520646Y-10995949D02*
X10511122Y-10957853D01*
X10511122Y-10957853D02*
X10511122Y-10910234D01*
X10511122Y-10910234D02*
X10520646Y-10872139D01*
X10520646Y-10872139D02*
X10530170Y-10853091D01*
X10530170Y-10853091D02*
X10539693Y-10843568D01*
X10539693Y-10843568D02*
X10558741Y-10834044D01*
X10711122Y-11034044D02*
X10711122Y-10900710D01*
X10711122Y-10919758D02*
X10720646Y-10910234D01*
X10720646Y-10910234D02*
X10739693Y-10900710D01*
X10739693Y-10900710D02*
X10768265Y-10900710D01*
X10768265Y-10900710D02*
X10787312Y-10910234D01*
X10787312Y-10910234D02*
X10796836Y-10929282D01*
X10796836Y-10929282D02*
X10796836Y-11034044D01*
X10796836Y-10929282D02*
X10806360Y-10910234D01*
X10806360Y-10910234D02*
X10825408Y-10900710D01*
X10825408Y-10900710D02*
X10853979Y-10900710D01*
X10853979Y-10900710D02*
X10873027Y-10910234D01*
X10873027Y-10910234D02*
X10882551Y-10929282D01*
X10882551Y-10929282D02*
X10882551Y-11034044D01*
X10977789Y-11034044D02*
X10977789Y-10900710D01*
X10977789Y-10919758D02*
X10987312Y-10910234D01*
X10987312Y-10910234D02*
X11006360Y-10900710D01*
X11006360Y-10900710D02*
X11034932Y-10900710D01*
X11034932Y-10900710D02*
X11053979Y-10910234D01*
X11053979Y-10910234D02*
X11063503Y-10929282D01*
X11063503Y-10929282D02*
X11063503Y-11034044D01*
X11063503Y-10929282D02*
X11073027Y-10910234D01*
X11073027Y-10910234D02*
X11092074Y-10900710D01*
X11092074Y-10900710D02*
X11120646Y-10900710D01*
X11120646Y-10900710D02*
X11139693Y-10910234D01*
X11139693Y-10910234D02*
X11149217Y-10929282D01*
X11149217Y-10929282D02*
X11149217Y-11034044D01*
X11539693Y-10824520D02*
X11368265Y-11081663D01*
X11796836Y-10834044D02*
X11815884Y-10834044D01*
X11815884Y-10834044D02*
X11834932Y-10843568D01*
X11834932Y-10843568D02*
X11844455Y-10853091D01*
X11844455Y-10853091D02*
X11853979Y-10872139D01*
X11853979Y-10872139D02*
X11863503Y-10910234D01*
X11863503Y-10910234D02*
X11863503Y-10957853D01*
X11863503Y-10957853D02*
X11853979Y-10995949D01*
X11853979Y-10995949D02*
X11844455Y-11014996D01*
X11844455Y-11014996D02*
X11834932Y-11024520D01*
X11834932Y-11024520D02*
X11815884Y-11034044D01*
X11815884Y-11034044D02*
X11796836Y-11034044D01*
X11796836Y-11034044D02*
X11777789Y-11024520D01*
X11777789Y-11024520D02*
X11768265Y-11014996D01*
X11768265Y-11014996D02*
X11758741Y-10995949D01*
X11758741Y-10995949D02*
X11749217Y-10957853D01*
X11749217Y-10957853D02*
X11749217Y-10910234D01*
X11749217Y-10910234D02*
X11758741Y-10872139D01*
X11758741Y-10872139D02*
X11768265Y-10853091D01*
X11768265Y-10853091D02*
X11777789Y-10843568D01*
X11777789Y-10843568D02*
X11796836Y-10834044D01*
X11949217Y-11014996D02*
X11958741Y-11024520D01*
X11958741Y-11024520D02*
X11949217Y-11034044D01*
X11949217Y-11034044D02*
X11939693Y-11024520D01*
X11939693Y-11024520D02*
X11949217Y-11014996D01*
X11949217Y-11014996D02*
X11949217Y-11034044D01*
X12082551Y-10834044D02*
X12101598Y-10834044D01*
X12101598Y-10834044D02*
X12120646Y-10843568D01*
X12120646Y-10843568D02*
X12130170Y-10853091D01*
X12130170Y-10853091D02*
X12139693Y-10872139D01*
X12139693Y-10872139D02*
X12149217Y-10910234D01*
X12149217Y-10910234D02*
X12149217Y-10957853D01*
X12149217Y-10957853D02*
X12139693Y-10995949D01*
X12139693Y-10995949D02*
X12130170Y-11014996D01*
X12130170Y-11014996D02*
X12120646Y-11024520D01*
X12120646Y-11024520D02*
X12101598Y-11034044D01*
X12101598Y-11034044D02*
X12082551Y-11034044D01*
X12082551Y-11034044D02*
X12063503Y-11024520D01*
X12063503Y-11024520D02*
X12053979Y-11014996D01*
X12053979Y-11014996D02*
X12044455Y-10995949D01*
X12044455Y-10995949D02*
X12034932Y-10957853D01*
X12034932Y-10957853D02*
X12034932Y-10910234D01*
X12034932Y-10910234D02*
X12044455Y-10872139D01*
X12044455Y-10872139D02*
X12053979Y-10853091D01*
X12053979Y-10853091D02*
X12063503Y-10843568D01*
X12063503Y-10843568D02*
X12082551Y-10834044D01*
X12330170Y-10834044D02*
X12234932Y-10834044D01*
X12234932Y-10834044D02*
X12225408Y-10929282D01*
X12225408Y-10929282D02*
X12234932Y-10919758D01*
X12234932Y-10919758D02*
X12253979Y-10910234D01*
X12253979Y-10910234D02*
X12301598Y-10910234D01*
X12301598Y-10910234D02*
X12320646Y-10919758D01*
X12320646Y-10919758D02*
X12330170Y-10929282D01*
X12330170Y-10929282D02*
X12339693Y-10948330D01*
X12339693Y-10948330D02*
X12339693Y-10995949D01*
X12339693Y-10995949D02*
X12330170Y-11014996D01*
X12330170Y-11014996D02*
X12320646Y-11024520D01*
X12320646Y-11024520D02*
X12301598Y-11034044D01*
X12301598Y-11034044D02*
X12253979Y-11034044D01*
X12253979Y-11034044D02*
X12234932Y-11024520D01*
X12234932Y-11024520D02*
X12225408Y-11014996D01*
X12530170Y-11034044D02*
X12415884Y-11034044D01*
X12473027Y-11034044D02*
X12473027Y-10834044D01*
X12473027Y-10834044D02*
X12453979Y-10862615D01*
X12453979Y-10862615D02*
X12434932Y-10881663D01*
X12434932Y-10881663D02*
X12415884Y-10891187D01*
X12606360Y-10853091D02*
X12615884Y-10843568D01*
X12615884Y-10843568D02*
X12634932Y-10834044D01*
X12634932Y-10834044D02*
X12682551Y-10834044D01*
X12682551Y-10834044D02*
X12701598Y-10843568D01*
X12701598Y-10843568D02*
X12711122Y-10853091D01*
X12711122Y-10853091D02*
X12720646Y-10872139D01*
X12720646Y-10872139D02*
X12720646Y-10891187D01*
X12720646Y-10891187D02*
X12711122Y-10919758D01*
X12711122Y-10919758D02*
X12596836Y-11034044D01*
X12596836Y-11034044D02*
X12720646Y-11034044D01*
X12796836Y-10834044D02*
X12796836Y-10872139D01*
X12873027Y-10834044D02*
X12873027Y-10872139D01*
X13168265Y-11110234D02*
X13158741Y-11100710D01*
X13158741Y-11100710D02*
X13139694Y-11072139D01*
X13139694Y-11072139D02*
X13130170Y-11053091D01*
X13130170Y-11053091D02*
X13120646Y-11024520D01*
X13120646Y-11024520D02*
X13111122Y-10976901D01*
X13111122Y-10976901D02*
X13111122Y-10938806D01*
X13111122Y-10938806D02*
X13120646Y-10891187D01*
X13120646Y-10891187D02*
X13130170Y-10862615D01*
X13130170Y-10862615D02*
X13139694Y-10843568D01*
X13139694Y-10843568D02*
X13158741Y-10814996D01*
X13158741Y-10814996D02*
X13168265Y-10805472D01*
X13330170Y-10834044D02*
X13292074Y-10834044D01*
X13292074Y-10834044D02*
X13273027Y-10843568D01*
X13273027Y-10843568D02*
X13263503Y-10853091D01*
X13263503Y-10853091D02*
X13244455Y-10881663D01*
X13244455Y-10881663D02*
X13234932Y-10919758D01*
X13234932Y-10919758D02*
X13234932Y-10995949D01*
X13234932Y-10995949D02*
X13244455Y-11014996D01*
X13244455Y-11014996D02*
X13253979Y-11024520D01*
X13253979Y-11024520D02*
X13273027Y-11034044D01*
X13273027Y-11034044D02*
X13311122Y-11034044D01*
X13311122Y-11034044D02*
X13330170Y-11024520D01*
X13330170Y-11024520D02*
X13339694Y-11014996D01*
X13339694Y-11014996D02*
X13349217Y-10995949D01*
X13349217Y-10995949D02*
X13349217Y-10948330D01*
X13349217Y-10948330D02*
X13339694Y-10929282D01*
X13339694Y-10929282D02*
X13330170Y-10919758D01*
X13330170Y-10919758D02*
X13311122Y-10910234D01*
X13311122Y-10910234D02*
X13273027Y-10910234D01*
X13273027Y-10910234D02*
X13253979Y-10919758D01*
X13253979Y-10919758D02*
X13244455Y-10929282D01*
X13244455Y-10929282D02*
X13234932Y-10948330D01*
X13587313Y-11034044D02*
X13587313Y-10834044D01*
X13673027Y-11034044D02*
X13673027Y-10929282D01*
X13673027Y-10929282D02*
X13663503Y-10910234D01*
X13663503Y-10910234D02*
X13644456Y-10900710D01*
X13644456Y-10900710D02*
X13615884Y-10900710D01*
X13615884Y-10900710D02*
X13596836Y-10910234D01*
X13596836Y-10910234D02*
X13587313Y-10919758D01*
X13796836Y-11034044D02*
X13777789Y-11024520D01*
X13777789Y-11024520D02*
X13768265Y-11014996D01*
X13768265Y-11014996D02*
X13758741Y-10995949D01*
X13758741Y-10995949D02*
X13758741Y-10938806D01*
X13758741Y-10938806D02*
X13768265Y-10919758D01*
X13768265Y-10919758D02*
X13777789Y-10910234D01*
X13777789Y-10910234D02*
X13796836Y-10900710D01*
X13796836Y-10900710D02*
X13825408Y-10900710D01*
X13825408Y-10900710D02*
X13844456Y-10910234D01*
X13844456Y-10910234D02*
X13853979Y-10919758D01*
X13853979Y-10919758D02*
X13863503Y-10938806D01*
X13863503Y-10938806D02*
X13863503Y-10995949D01*
X13863503Y-10995949D02*
X13853979Y-11014996D01*
X13853979Y-11014996D02*
X13844456Y-11024520D01*
X13844456Y-11024520D02*
X13825408Y-11034044D01*
X13825408Y-11034044D02*
X13796836Y-11034044D01*
X13977789Y-11034044D02*
X13958741Y-11024520D01*
X13958741Y-11024520D02*
X13949217Y-11005472D01*
X13949217Y-11005472D02*
X13949217Y-10834044D01*
X14130170Y-11024520D02*
X14111122Y-11034044D01*
X14111122Y-11034044D02*
X14073027Y-11034044D01*
X14073027Y-11034044D02*
X14053979Y-11024520D01*
X14053979Y-11024520D02*
X14044456Y-11005472D01*
X14044456Y-11005472D02*
X14044456Y-10929282D01*
X14044456Y-10929282D02*
X14053979Y-10910234D01*
X14053979Y-10910234D02*
X14073027Y-10900710D01*
X14073027Y-10900710D02*
X14111122Y-10900710D01*
X14111122Y-10900710D02*
X14130170Y-10910234D01*
X14130170Y-10910234D02*
X14139694Y-10929282D01*
X14139694Y-10929282D02*
X14139694Y-10948330D01*
X14139694Y-10948330D02*
X14044456Y-10967377D01*
X14215884Y-11024520D02*
X14234932Y-11034044D01*
X14234932Y-11034044D02*
X14273027Y-11034044D01*
X14273027Y-11034044D02*
X14292075Y-11024520D01*
X14292075Y-11024520D02*
X14301598Y-11005472D01*
X14301598Y-11005472D02*
X14301598Y-10995949D01*
X14301598Y-10995949D02*
X14292075Y-10976901D01*
X14292075Y-10976901D02*
X14273027Y-10967377D01*
X14273027Y-10967377D02*
X14244456Y-10967377D01*
X14244456Y-10967377D02*
X14225408Y-10957853D01*
X14225408Y-10957853D02*
X14215884Y-10938806D01*
X14215884Y-10938806D02*
X14215884Y-10929282D01*
X14215884Y-10929282D02*
X14225408Y-10910234D01*
X14225408Y-10910234D02*
X14244456Y-10900710D01*
X14244456Y-10900710D02*
X14273027Y-10900710D01*
X14273027Y-10900710D02*
X14292075Y-10910234D01*
X14368265Y-11110234D02*
X14377789Y-11100710D01*
X14377789Y-11100710D02*
X14396837Y-11072139D01*
X14396837Y-11072139D02*
X14406360Y-11053091D01*
X14406360Y-11053091D02*
X14415884Y-11024520D01*
X14415884Y-11024520D02*
X14425408Y-10976901D01*
X14425408Y-10976901D02*
X14425408Y-10938806D01*
X14425408Y-10938806D02*
X14415884Y-10891187D01*
X14415884Y-10891187D02*
X14406360Y-10862615D01*
X14406360Y-10862615D02*
X14396837Y-10843568D01*
X14396837Y-10843568D02*
X14377789Y-10814996D01*
X14377789Y-10814996D02*
X14368265Y-10805472D01*
M02*
