M48
; DRILL file {KiCad 7.0.2} date Wed Aug 23 09:24:36 2023
; FORMAT={-:-/ absolute / inch / decimal}
; #@! TF.CreationDate,2023-08-23T09:24:36+05:30
; #@! TF.GenerationSoftware,Kicad,Pcbnew,7.0.2
; #@! TF.FileFunction,Plated,1,2,PTH
FMAT,2
INCH
; #@! TA.AperFunction,Plated,PTH,ComponentDrill
T1C0.0276
; #@! TA.AperFunction,Plated,PTH,ComponentDrill
T2C0.0354
; #@! TA.AperFunction,Plated,PTH,ComponentDrill
T3C0.0394
; #@! TA.AperFunction,Plated,PTH,ComponentDrill
T4C0.0433
; #@! TA.AperFunction,Plated,PTH,ComponentDrill
T5C0.0512
%
G90
G05
T1
X6.222Y3.472
X6.234Y2.698
X6.422Y3.472
X6.434Y2.698
T2
X6.54Y2.664
X6.554Y3.508
X6.64Y2.664
X6.654Y3.508
T3
X4.9824Y3.35
X4.9828Y2.854
X5.1792Y3.35
X5.1796Y2.854
X5.8788Y2.878
X5.8908Y3.35
X6.0756Y2.878
X6.0876Y3.35
T4
X4.356Y2.796
X4.356Y2.996
X4.36Y3.188
X4.362Y3.372
X4.756Y2.796
X4.756Y2.996
X4.76Y3.188
X4.762Y3.372
X5.434Y2.732
X5.446Y3.458
X5.534Y2.732
X5.546Y3.458
X5.634Y2.732
X5.646Y3.458
T5
X4.022Y2.864
X4.022Y3.064
X4.022Y3.264
X6.5Y2.894
X6.5Y3.094
X6.5Y3.294
T0
M30
