%TF.GenerationSoftware,KiCad,Pcbnew,7.0.2*%
%TF.CreationDate,2023-08-22T20:11:55+05:30*%
%TF.ProjectId,Power_Supply_12V,506f7765-725f-4537-9570-706c795f3132,rev?*%
%TF.SameCoordinates,Original*%
%TF.FileFunction,Copper,L2,Bot*%
%TF.FilePolarity,Positive*%
%FSLAX46Y46*%
G04 Gerber Fmt 4.6, Leading zero omitted, Abs format (unit mm)*
G04 Created by KiCad (PCBNEW 7.0.2) date 2023-08-22 20:11:55*
%MOMM*%
%LPD*%
G01*
G04 APERTURE LIST*
%TA.AperFunction,ComponentPad*%
%ADD10R,2.600000X2.600000*%
%TD*%
%TA.AperFunction,ComponentPad*%
%ADD11C,2.600000*%
%TD*%
%TA.AperFunction,ComponentPad*%
%ADD12R,1.905000X2.000000*%
%TD*%
%TA.AperFunction,ComponentPad*%
%ADD13O,1.905000X2.000000*%
%TD*%
%TA.AperFunction,ComponentPad*%
%ADD14R,1.800000X1.800000*%
%TD*%
%TA.AperFunction,ComponentPad*%
%ADD15C,1.800000*%
%TD*%
%TA.AperFunction,ComponentPad*%
%ADD16R,2.200000X2.200000*%
%TD*%
%TA.AperFunction,ComponentPad*%
%ADD17O,2.200000X2.200000*%
%TD*%
%TA.AperFunction,ComponentPad*%
%ADD18R,2.000000X2.000000*%
%TD*%
%TA.AperFunction,ComponentPad*%
%ADD19C,2.000000*%
%TD*%
%TA.AperFunction,ComponentPad*%
%ADD20C,1.400000*%
%TD*%
%TA.AperFunction,ComponentPad*%
%ADD21O,1.400000X1.400000*%
%TD*%
%TA.AperFunction,Conductor*%
%ADD22C,0.500000*%
%TD*%
G04 APERTURE END LIST*
D10*
%TO.P,J1,1,Pin_1*%
%TO.N,Net-(D1-A)*%
X102158800Y-72745600D03*
D11*
%TO.P,J1,2,Pin_2*%
%TO.N,Net-(D5-K)*%
X102158800Y-77825600D03*
%TO.P,J1,3,Pin_3*%
%TO.N,Net-(D2-A)*%
X102158800Y-82905600D03*
%TD*%
D12*
%TO.P,U2,1,GND*%
%TO.N,Net-(D5-K)*%
X143408400Y-87833200D03*
D13*
%TO.P,U2,2,VI*%
%TO.N,Net-(D3-A)*%
X140868400Y-87833200D03*
%TO.P,U2,3,VO*%
%TO.N,Net-(J2-Pin_1)*%
X138328400Y-87833200D03*
%TD*%
D14*
%TO.P,D5,1,K*%
%TO.N,Net-(D5-K)*%
X166116000Y-67665600D03*
D15*
%TO.P,D5,2,A*%
%TO.N,Net-(D5-A)*%
X168656000Y-67665600D03*
%TD*%
D16*
%TO.P,D3,1,K*%
%TO.N,Net-(D1-A)*%
X110744000Y-80975200D03*
D17*
%TO.P,D3,2,A*%
%TO.N,Net-(D3-A)*%
X120904000Y-80975200D03*
%TD*%
D18*
%TO.P,C2,1*%
%TO.N,Net-(D3-A)*%
X131552077Y-85090000D03*
D19*
%TO.P,C2,2*%
%TO.N,Net-(D5-K)*%
X126552077Y-85090000D03*
%TD*%
D16*
%TO.P,D2,1,K*%
%TO.N,Net-(D1-K)*%
X110642400Y-76098400D03*
D17*
%TO.P,D2,2,A*%
%TO.N,Net-(D2-A)*%
X120802400Y-76098400D03*
%TD*%
D18*
%TO.P,C3,1*%
%TO.N,Net-(J2-Pin_3)*%
X149321123Y-73101200D03*
D19*
%TO.P,C3,2*%
%TO.N,Net-(D5-K)*%
X154321123Y-73101200D03*
%TD*%
D14*
%TO.P,D6,1,K*%
%TO.N,Net-(D6-K)*%
X166471600Y-89103200D03*
D15*
%TO.P,D6,2,A*%
%TO.N,Net-(D5-K)*%
X169011600Y-89103200D03*
%TD*%
D16*
%TO.P,D1,1,K*%
%TO.N,Net-(D1-K)*%
X110642400Y-71018400D03*
D17*
%TO.P,D1,2,A*%
%TO.N,Net-(D1-A)*%
X120802400Y-71018400D03*
%TD*%
D18*
%TO.P,C4,1*%
%TO.N,Net-(J2-Pin_1)*%
X149625923Y-85090000D03*
D19*
%TO.P,C4,2*%
%TO.N,Net-(D5-K)*%
X154625923Y-85090000D03*
%TD*%
D10*
%TO.P,J2,1,Pin_1*%
%TO.N,Net-(J2-Pin_1)*%
X165100000Y-83667600D03*
D11*
%TO.P,J2,2,Pin_2*%
%TO.N,Net-(D5-K)*%
X165100000Y-78587600D03*
%TO.P,J2,3,Pin_3*%
%TO.N,Net-(J2-Pin_3)*%
X165100000Y-73507600D03*
%TD*%
D18*
%TO.P,C1,1*%
%TO.N,Net-(D1-K)*%
X126562723Y-72491600D03*
D19*
%TO.P,C1,2*%
%TO.N,Net-(D5-K)*%
X131562723Y-72491600D03*
%TD*%
D12*
%TO.P,U1,1,VI*%
%TO.N,Net-(D1-K)*%
X138023600Y-69392800D03*
D13*
%TO.P,U1,2,GND*%
%TO.N,Net-(D5-K)*%
X140563600Y-69392800D03*
%TO.P,U1,3,VO*%
%TO.N,Net-(J2-Pin_3)*%
X143103600Y-69392800D03*
%TD*%
D20*
%TO.P,R2,1*%
%TO.N,Net-(J2-Pin_1)*%
X158038800Y-88188800D03*
D21*
%TO.P,R2,2*%
%TO.N,Net-(D6-K)*%
X163118800Y-88188800D03*
%TD*%
D16*
%TO.P,D4,1,K*%
%TO.N,Net-(D2-A)*%
X110794800Y-85648800D03*
D17*
%TO.P,D4,2,A*%
%TO.N,Net-(D3-A)*%
X120954800Y-85648800D03*
%TD*%
D20*
%TO.P,R1,1*%
%TO.N,Net-(D5-A)*%
X163423600Y-68529200D03*
D21*
%TO.P,R1,2*%
%TO.N,Net-(J2-Pin_3)*%
X158343600Y-68529200D03*
%TD*%
D22*
%TO.N,Net-(D1-K)*%
X136550400Y-68884800D02*
X137058400Y-69392800D01*
X125831600Y-68884800D02*
X126562723Y-69615923D01*
X110642400Y-71018400D02*
X112776000Y-68884800D01*
X110642400Y-71018400D02*
X110642400Y-76098400D01*
X124561600Y-68884800D02*
X124714000Y-68884800D01*
X137058400Y-69392800D02*
X138023600Y-69392800D01*
X112776000Y-68884800D02*
X124561600Y-68884800D01*
X124714000Y-68884800D02*
X125831600Y-68884800D01*
X126562723Y-69615923D02*
X126562723Y-72491600D01*
X124714000Y-68884800D02*
X136550400Y-68884800D01*
%TO.N,Net-(D1-A)*%
X106984800Y-80010000D02*
X107950000Y-80975200D01*
X115468400Y-80010000D02*
X114503200Y-80975200D01*
X116230400Y-71018400D02*
X115468400Y-71780400D01*
X106984800Y-73660000D02*
X106984800Y-80010000D01*
X115468400Y-71780400D02*
X115468400Y-80010000D01*
X102158800Y-72745600D02*
X106070400Y-72745600D01*
X107950000Y-80975200D02*
X110744000Y-80975200D01*
X114503200Y-80975200D02*
X110744000Y-80975200D01*
X120802400Y-71018400D02*
X116230400Y-71018400D01*
X106070400Y-72745600D02*
X106984800Y-73660000D01*
%TO.N,Net-(D2-A)*%
X116484400Y-77216000D02*
X116484400Y-84277200D01*
X120802400Y-76098400D02*
X117602000Y-76098400D01*
X116484400Y-84277200D02*
X115112800Y-85648800D01*
X102158800Y-84632800D02*
X103174800Y-85648800D01*
X117602000Y-76098400D02*
X116484400Y-77216000D01*
X103174800Y-85648800D02*
X110794800Y-85648800D01*
X102158800Y-82905600D02*
X102158800Y-84632800D01*
X115112800Y-85648800D02*
X110794800Y-85648800D01*
%TO.N,Net-(D3-A)*%
X120904000Y-83210400D02*
X120904000Y-85598000D01*
X140868400Y-87833200D02*
X140868400Y-85953600D01*
X122732800Y-87426800D02*
X131216400Y-87426800D01*
X120954800Y-85648800D02*
X122732800Y-87426800D01*
X131216400Y-87426800D02*
X131552077Y-87091123D01*
X140004800Y-85090000D02*
X131552077Y-85090000D01*
X120904000Y-85598000D02*
X120954800Y-85648800D01*
X120904000Y-80975200D02*
X120904000Y-83210400D01*
X120954800Y-85648800D02*
X120954800Y-86360000D01*
X131552077Y-87091123D02*
X131552077Y-85090000D01*
X140868400Y-85953600D02*
X140004800Y-85090000D01*
%TO.N,Net-(J2-Pin_1)*%
X148691600Y-90271600D02*
X149625923Y-89337277D01*
X149625923Y-89337277D02*
X149625923Y-87446723D01*
X158038800Y-88188800D02*
X150368000Y-88188800D01*
X149625923Y-87446723D02*
X149625923Y-85090000D01*
X150368000Y-88188800D02*
X149625923Y-87446723D01*
X159156400Y-83667600D02*
X157988000Y-84836000D01*
X138328400Y-89509600D02*
X139090400Y-90271600D01*
X158038800Y-84886800D02*
X158038800Y-88188800D01*
X139090400Y-90271600D02*
X148691600Y-90271600D01*
X165100000Y-83667600D02*
X159156400Y-83667600D01*
X157988000Y-84836000D02*
X158038800Y-84886800D01*
X138328400Y-87833200D02*
X138328400Y-89509600D01*
%TO.N,Net-(D5-K)*%
X131562723Y-77326877D02*
X131562723Y-74472800D01*
X150977600Y-77774800D02*
X150977600Y-82092800D01*
X140563600Y-72694800D02*
X138328400Y-74930000D01*
X102158800Y-77825600D02*
X99771200Y-77825600D01*
X144221200Y-76403200D02*
X149098000Y-76403200D01*
X124256800Y-78486000D02*
X124510800Y-78486000D01*
X124256800Y-78486000D02*
X130200400Y-78486000D01*
X149606000Y-76403200D02*
X150977600Y-77774800D01*
X143408400Y-84378800D02*
X144678400Y-83108800D01*
X169011600Y-80721200D02*
X169011600Y-79654400D01*
X142748000Y-74930000D02*
X144221200Y-76403200D01*
X149098000Y-76403200D02*
X149606000Y-76403200D01*
X150977600Y-82092800D02*
X151993600Y-83108800D01*
X169011600Y-71932800D02*
X169011600Y-80721200D01*
X167944800Y-78587600D02*
X165100000Y-78587600D01*
X140563600Y-69392800D02*
X140563600Y-72694800D01*
X132019923Y-74930000D02*
X131562723Y-74472800D01*
X166116000Y-67665600D02*
X166116000Y-69037200D01*
X169011600Y-79654400D02*
X167944800Y-78587600D01*
X99466400Y-89306400D02*
X115925600Y-89306400D01*
X98348800Y-79248000D02*
X98348800Y-88188800D01*
X131562723Y-74472800D02*
X131562723Y-72491600D01*
X162915600Y-76403200D02*
X165100000Y-78587600D01*
X130200400Y-78486000D02*
X130302000Y-78587600D01*
X138328400Y-74930000D02*
X132019923Y-74930000D01*
X149098000Y-76403200D02*
X162915600Y-76403200D01*
X154625923Y-83810723D02*
X154625923Y-85090000D01*
X169011600Y-89103200D02*
X169011600Y-80721200D01*
X98348800Y-88188800D02*
X99466400Y-89306400D01*
X117652800Y-87579200D02*
X117652800Y-79298800D01*
X166116000Y-69037200D02*
X169011600Y-71932800D01*
X117652800Y-79298800D02*
X118465600Y-78486000D01*
X144678400Y-83108800D02*
X151993600Y-83108800D01*
X154321123Y-74278877D02*
X154321123Y-73101200D01*
X130302000Y-78587600D02*
X131562723Y-77326877D01*
X118465600Y-78486000D02*
X124256800Y-78486000D01*
X126552077Y-80527277D02*
X126552077Y-85090000D01*
X153670000Y-74930000D02*
X154321123Y-74278877D01*
X138328400Y-74930000D02*
X142748000Y-74930000D01*
X143408400Y-87833200D02*
X143408400Y-84378800D01*
X115925600Y-89306400D02*
X117652800Y-87579200D01*
X99771200Y-77825600D02*
X98348800Y-79248000D01*
X153924000Y-83108800D02*
X154625923Y-83810723D01*
X142748000Y-74930000D02*
X153670000Y-74930000D01*
X151993600Y-83108800D02*
X153924000Y-83108800D01*
X124510800Y-78486000D02*
X126552077Y-80527277D01*
%TO.N,Net-(J2-Pin_3)*%
X164236400Y-71170800D02*
X165100000Y-72034400D01*
X146405600Y-69392800D02*
X143103600Y-69392800D01*
X165100000Y-72034400D02*
X165100000Y-73507600D01*
X155346400Y-69392800D02*
X146405600Y-69392800D01*
X157327600Y-71170800D02*
X164236400Y-71170800D01*
X158343600Y-68529200D02*
X157480000Y-69392800D01*
X148539200Y-69392800D02*
X146405600Y-69392800D01*
X155549600Y-69392800D02*
X157327600Y-71170800D01*
X157480000Y-69392800D02*
X155041600Y-69392800D01*
X155346400Y-69392800D02*
X155549600Y-69392800D01*
X155702000Y-69392800D02*
X155346400Y-69392800D01*
X149321123Y-70174723D02*
X148539200Y-69392800D01*
X157480000Y-69392800D02*
X155346400Y-69392800D01*
X149321123Y-73101200D02*
X149321123Y-70174723D01*
%TO.N,Net-(D5-A)*%
X163423600Y-68529200D02*
X163423600Y-67539251D01*
X168656000Y-66497200D02*
X168656000Y-67665600D01*
X164973651Y-65989200D02*
X168148000Y-65989200D01*
X168148000Y-65989200D02*
X168656000Y-66497200D01*
X163423600Y-67539251D02*
X164973651Y-65989200D01*
%TO.N,Net-(D6-K)*%
X164033200Y-89103200D02*
X163118800Y-88188800D01*
X166471600Y-89103200D02*
X164033200Y-89103200D01*
%TD*%
M02*
