%TF.GenerationSoftware,KiCad,Pcbnew,7.0.2*%
%TF.CreationDate,2023-08-23T09:20:03+05:30*%
%TF.ProjectId,Power_Supply_12V,506f7765-725f-4537-9570-706c795f3132,rev?*%
%TF.SameCoordinates,Original*%
%TF.FileFunction,Drillmap*%
%TF.FilePolarity,Positive*%
%FSLAX45Y45*%
G04 Gerber Fmt 4.5, Leading zero omitted, Abs format (unit mm)*
G04 Created by KiCad (PCBNEW 7.0.2) date 2023-08-23 09:20:03*
%MOMM*%
%LPD*%
G01*
G04 APERTURE LIST*
%ADD10C,0.100000*%
%ADD11C,0.200000*%
G04 APERTURE END LIST*
D10*
X9611360Y-6441440D02*
X17145000Y-6441440D01*
X17145000Y-9240520D01*
X9611360Y-9240520D01*
X9611360Y-6441440D01*
D11*
X9853979Y-9558044D02*
X9853979Y-9358044D01*
X9853979Y-9358044D02*
X9901598Y-9358044D01*
X9901598Y-9358044D02*
X9930170Y-9367568D01*
X9930170Y-9367568D02*
X9949217Y-9386615D01*
X9949217Y-9386615D02*
X9958741Y-9405663D01*
X9958741Y-9405663D02*
X9968265Y-9443758D01*
X9968265Y-9443758D02*
X9968265Y-9472330D01*
X9968265Y-9472330D02*
X9958741Y-9510425D01*
X9958741Y-9510425D02*
X9949217Y-9529472D01*
X9949217Y-9529472D02*
X9930170Y-9548520D01*
X9930170Y-9548520D02*
X9901598Y-9558044D01*
X9901598Y-9558044D02*
X9853979Y-9558044D01*
X10053979Y-9558044D02*
X10053979Y-9424710D01*
X10053979Y-9462806D02*
X10063503Y-9443758D01*
X10063503Y-9443758D02*
X10073027Y-9434234D01*
X10073027Y-9434234D02*
X10092074Y-9424710D01*
X10092074Y-9424710D02*
X10111122Y-9424710D01*
X10177789Y-9558044D02*
X10177789Y-9424710D01*
X10177789Y-9358044D02*
X10168265Y-9367568D01*
X10168265Y-9367568D02*
X10177789Y-9377091D01*
X10177789Y-9377091D02*
X10187312Y-9367568D01*
X10187312Y-9367568D02*
X10177789Y-9358044D01*
X10177789Y-9358044D02*
X10177789Y-9377091D01*
X10301598Y-9558044D02*
X10282550Y-9548520D01*
X10282550Y-9548520D02*
X10273027Y-9529472D01*
X10273027Y-9529472D02*
X10273027Y-9358044D01*
X10406360Y-9558044D02*
X10387312Y-9548520D01*
X10387312Y-9548520D02*
X10377789Y-9529472D01*
X10377789Y-9529472D02*
X10377789Y-9358044D01*
X10634931Y-9558044D02*
X10634931Y-9358044D01*
X10634931Y-9358044D02*
X10701598Y-9500901D01*
X10701598Y-9500901D02*
X10768265Y-9358044D01*
X10768265Y-9358044D02*
X10768265Y-9558044D01*
X10949217Y-9558044D02*
X10949217Y-9453282D01*
X10949217Y-9453282D02*
X10939693Y-9434234D01*
X10939693Y-9434234D02*
X10920646Y-9424710D01*
X10920646Y-9424710D02*
X10882550Y-9424710D01*
X10882550Y-9424710D02*
X10863503Y-9434234D01*
X10949217Y-9548520D02*
X10930170Y-9558044D01*
X10930170Y-9558044D02*
X10882550Y-9558044D01*
X10882550Y-9558044D02*
X10863503Y-9548520D01*
X10863503Y-9548520D02*
X10853979Y-9529472D01*
X10853979Y-9529472D02*
X10853979Y-9510425D01*
X10853979Y-9510425D02*
X10863503Y-9491377D01*
X10863503Y-9491377D02*
X10882550Y-9481853D01*
X10882550Y-9481853D02*
X10930170Y-9481853D01*
X10930170Y-9481853D02*
X10949217Y-9472330D01*
X11044455Y-9424710D02*
X11044455Y-9624710D01*
X11044455Y-9434234D02*
X11063503Y-9424710D01*
X11063503Y-9424710D02*
X11101598Y-9424710D01*
X11101598Y-9424710D02*
X11120646Y-9434234D01*
X11120646Y-9434234D02*
X11130170Y-9443758D01*
X11130170Y-9443758D02*
X11139693Y-9462806D01*
X11139693Y-9462806D02*
X11139693Y-9519949D01*
X11139693Y-9519949D02*
X11130170Y-9538996D01*
X11130170Y-9538996D02*
X11120646Y-9548520D01*
X11120646Y-9548520D02*
X11101598Y-9558044D01*
X11101598Y-9558044D02*
X11063503Y-9558044D01*
X11063503Y-9558044D02*
X11044455Y-9548520D01*
X11225408Y-9538996D02*
X11234931Y-9548520D01*
X11234931Y-9548520D02*
X11225408Y-9558044D01*
X11225408Y-9558044D02*
X11215884Y-9548520D01*
X11215884Y-9548520D02*
X11225408Y-9538996D01*
X11225408Y-9538996D02*
X11225408Y-9558044D01*
X11225408Y-9434234D02*
X11234931Y-9443758D01*
X11234931Y-9443758D02*
X11225408Y-9453282D01*
X11225408Y-9453282D02*
X11215884Y-9443758D01*
X11215884Y-9443758D02*
X11225408Y-9434234D01*
X11225408Y-9434234D02*
X11225408Y-9453282D01*
M02*
