M48
; DRILL file {KiCad 7.0.2} date Tue Aug 22 20:12:20 2023
; FORMAT={-:-/ absolute / inch / decimal}
; #@! TF.CreationDate,2023-08-22T20:12:20+05:30
; #@! TF.GenerationSoftware,Kicad,Pcbnew,7.0.2
; #@! TF.FileFunction,Plated,1,2,PTH
FMAT,2
INCH
; #@! TA.AperFunction,Plated,PTH,ComponentDrill
T1C0.0276
; #@! TA.AperFunction,Plated,PTH,ComponentDrill
T2C0.0354
; #@! TA.AperFunction,Plated,PTH,ComponentDrill
T3C0.0394
; #@! TA.AperFunction,Plated,PTH,ComponentDrill
T4C0.0433
; #@! TA.AperFunction,Plated,PTH,ComponentDrill
T5C0.0512
%
G90
G05
T1
X6.222Y-3.472
X6.234Y-2.698
X6.422Y-3.472
X6.434Y-2.698
T2
X6.54Y-2.664
X6.554Y-3.508
X6.64Y-2.664
X6.654Y-3.508
T3
X4.9824Y-3.35
X4.9828Y-2.854
X5.1792Y-3.35
X5.1796Y-2.854
X5.8788Y-2.878
X5.8908Y-3.35
X6.0756Y-2.878
X6.0876Y-3.35
T4
X4.356Y-2.796
X4.356Y-2.996
X4.36Y-3.188
X4.362Y-3.372
X4.756Y-2.796
X4.756Y-2.996
X4.76Y-3.188
X4.762Y-3.372
X5.434Y-2.732
X5.446Y-3.458
X5.534Y-2.732
X5.546Y-3.458
X5.634Y-2.732
X5.646Y-3.458
T5
X4.022Y-2.864
X4.022Y-3.064
X4.022Y-3.264
X6.5Y-2.894
X6.5Y-3.094
X6.5Y-3.294
T0
M30
